<?xml version="1.0" encoding="UTF-8" standalone="no"?>
<svg
   xmlns:dc="http://purl.org/dc/elements/1.1/"
   xmlns:cc="http://creativecommons.org/ns#"
   xmlns:rdf="http://www.w3.org/1999/02/22-rdf-syntax-ns#"
   xmlns:svg="http://www.w3.org/2000/svg"
   xmlns="http://www.w3.org/2000/svg"
   style="fill:none"
   id="svg58"
   version="1.1"
   viewBox="0 0 5000 5000.0001"
   height="5000"
   width="5000">
  <metadata
     id="metadata64">
    <rdf:RDF>
      <cc:Work
         rdf:about="">
        <dc:format>image/svg+xml</dc:format>
        <dc:type
           rdf:resource="http://purl.org/dc/dcmitype/StillImage" />
        <dc:title></dc:title>
      </cc:Work>
    </rdf:RDF>
  </metadata>
  <defs
     id="defs62">
    <clipPath
       id="clip0">
      <rect
         width="128"
         height="128"
         id="rect4285"
         x="0"
         y="0"
         style="fill:#ffffff" />
    </clipPath>
  </defs>
  <g
     transform="translate(0,3993.5189)"
     id="layer1" />
  <path
     id="rect16522"
     d="M 679.65914,4350.0283 H 2042.0973 c 68.9592,0 124.475,55.5159 124.475,124.475 v 224.9877 c 0,68.9592 -55.5158,124.475 -124.475,124.475 H 679.65914 c -68.95915,0 -124.475,-55.5158 -124.475,-124.475 v -224.9877 c 0,-68.9591 55.51585,-124.475 124.475,-124.475 z"
     style="opacity:1;vector-effect:none;fill:#0e0333;fill-opacity:1;stroke:none;stroke-width:4;stroke-linecap:round;stroke-linejoin:round;stroke-miterlimit:4;stroke-dasharray:none;stroke-dashoffset:0;stroke-opacity:1"
     transform="matrix(1.4054622,0,0,1.1714286,1355.7389,-758.01986)" />
  <path
     id="rect16520"
     d="M 679.65914,4350.0283 H 2042.0973 c 68.9592,0 124.475,55.5159 124.475,124.475 v 224.9877 c 0,68.9592 -55.5158,124.475 -124.475,124.475 H 679.65914 c -68.95915,0 -124.475,-55.5158 -124.475,-124.475 v -224.9877 c 0,-68.9591 55.51585,-124.475 124.475,-124.475 z"
     style="opacity:1;vector-effect:none;fill:#0e0333;fill-opacity:1;stroke:none;stroke-width:4;stroke-linecap:round;stroke-linejoin:round;stroke-miterlimit:4;stroke-dasharray:none;stroke-dashoffset:0;stroke-opacity:1"
     transform="matrix(0.94957983,0,0,1.1714286,22.69014,-758.01986)" />
  <path
     id="rect16509"
     d="M 756.42399,3860.5764 H 4184.2695 c 68.959,0 124.4748,55.5158 124.4748,124.4748 v 134.0499 c 0,68.959 -55.5158,124.4748 -124.4748,124.4748 H 756.42399 c -68.95906,0 -124.47483,-55.5158 -124.47483,-124.4748 v -134.0499 c 0,-68.959 55.51577,-124.4748 124.47483,-124.4748 z"
     style="opacity:1;vector-effect:none;fill:#02e2ac;fill-opacity:1;stroke:#02e2ac;stroke-width:4;stroke-linecap:round;stroke-linejoin:round;stroke-miterlimit:4;stroke-dasharray:none;stroke-dashoffset:0;stroke-opacity:1"
     transform="matrix(1.0440482,0,0,1.031216,-98.526077,-92.167253)" />
  <g
     transform="translate(-3.6727966e-5)"
     id="g16863">
    <rect
       style="opacity:0;vector-effect:none;fill:#cccccc;fill-opacity:1;stroke:#02e2ac;stroke-width:4;stroke-linecap:round;stroke-linejoin:round;stroke-miterlimit:4;stroke-dasharray:none;stroke-dashoffset:0;stroke-opacity:1"
       id="rect16518"
       width="2163.947"
       height="2546.9465"
       x="-2393.7468"
       y="1246.605"
       ry="124.475"
       transform="matrix(1.8134835,0,0,1.4278994,4878.8793,-1670.0826)" />
    <g
       style="fill:none"
       transform="matrix(7.7581879,0,0,7.7581879,826.99107,835.94094)"
       clip-path="url(#clip0)"
       id="g4283">
      <path
         style="fill:#02e2ac"
         d="M 64,128 C 99.3131,128 128,99.3759 128,64.0404 127.919,28.6241 99.3131,0 64,0 28.6061,0 0,28.6241 0,63.9596 0,99.295 28.6061,128 64,128 Z"
         id="path4279" />
      <path
         transform="matrix(1.0274055,0,0,1.0274055,-2.905199,-1.802054)"
         style="clip-rule:evenodd;fill:#0e0333;fill-rule:evenodd"
         d="m 89.3096,85.2494 -4.4354,-3.3971 c 3.2883,-4.7098 5.1237,-10.346 5.1237,-15.9822 0.0764,-6.0995 -1.9118,-12.1218 -5.659,-16.9859 l 4.9707,-4.7097 c 0.6118,-0.5405 0.6118,-1.467 0.0765,-2.0847 L 88.1625,40.8545 C 81.9682,34.5234 73.5563,30.8174 64.7619,30.5085 v -5.1729 c 0.0765,-3.0112 -4.5884,-3.0112 -4.5884,0 v 5.3274 c -2.0647,0.1544 -4.1295,0.6176 -6.1178,1.1581 v -6.5627 c 0.0765,-3.0112 -4.5883,-3.0112 -4.5883,0 v 8.2613 h -0.0765 c -7.0355,3.3199 -13.0004,8.9562 -16.5181,16.1366 -3.5942,7.026 -4.7413,15.2101 -3.2119,23.0081 1.606,7.7981 5.7355,14.8241 11.7768,19.9971 6.0414,5.0957 13.6886,7.9525 21.5653,8.1845 L 88.4684,101 c 0.7647,0 1.3765,-0.618 1.3765,-1.3898 v -12.971 c 0,-0.6949 -0.1529,-1.1581 -0.5353,-1.3898 z m -17.0534,-25.17 7.2649,-6.6399 c 4.9707,7.026 5.1237,17.1403 0.0765,24.3207 l -7.7238,-5.9451 c 1.3001,-1.6985 1.9883,-3.6288 2.0648,-5.7906 -0.0765,-2.0846 -0.5353,-4.0921 -1.6824,-5.9451 z m 11.318,33.8174 c 0,0.386 -0.3059,0.6949 -0.6883,0.6949 L 63.5383,94.5145 C 57.2676,94.4373 51.1498,92.3526 46.179,88.5694 41.2083,84.709 37.6141,79.2272 36.0846,73.1277 32.7198,60.8515 38.4553,46.954 49.4674,40.7773 l 0.2294,-0.0772 V 50.66 c -0.0765,3.0111 4.5883,3.0111 4.5883,0 V 38.461 c 8.7944,-3.0883 19.1947,-1.5442 26.5361,4.2465 0.3823,0.2316 0.3823,0.7721 0.0764,1.0809 L 67.4384,56.1418 c -2.6,-1.0809 -5.5825,-1.0809 -8.1061,0.1544 -4.053,1.853 -6.6531,6.4083 -5.8884,10.8864 0.153,1.467 0.6883,2.8567 1.453,4.0921 0.7647,1.3125 1.8354,2.3162 3.0589,3.1655 2.4471,1.6214 5.5825,2.0847 8.412,1.2354 l 16.9769,13.0482 c 0.153,0.1544 0.2295,0.3861 0.2295,0.6177 z M 67.6679,65.7157 c 0,0.772 -0.2295,1.6213 -0.6883,2.239 -0.4588,0.6949 -1.0706,1.1581 -1.8353,1.5442 -0.7648,0.3088 -1.606,0.386 -2.2942,0.1544 -0.7647,-0.1544 -1.453,-0.5405 -2.0648,-1.0809 -0.5353,-0.5405 -0.9177,-1.3126 -1.0706,-2.0847 -0.1529,-0.772 -0.0765,-1.6213 0.2294,-2.3162 0.3059,-0.7721 0.8412,-1.3126 1.453,-1.853 1.6059,-1.0809 3.7472,-0.8493 5.1237,0.5404 0.6882,0.6949 1.1471,1.7758 1.1471,2.8568 z"
         id="path4281" />
      <text
         transform="matrix(0.83296121,0,0,0.83296121,29.159558,27.810524)"
         id="text766"
         y="772"
         x="-54"
         style="font-style:normal;font-weight:normal;font-size:40px;line-height:1.25;font-family:sans-serif;letter-spacing:0px;word-spacing:0px;fill:#000000;fill-opacity:1;stroke:none"
         xml:space="preserve"><tspan
           y="807.39062"
           x="-54"
           id="tspan764" /></text>
      <text
         transform="matrix(0.83296121,0,0,0.83296121,29.159558,27.810524)"
         id="text770"
         y="692"
         x="-294"
         style="font-style:normal;font-weight:normal;font-size:40px;line-height:1.25;font-family:sans-serif;letter-spacing:0px;word-spacing:0px;fill:#000000;fill-opacity:1;stroke:none"
         xml:space="preserve"><tspan
           y="727.39062"
           x="-294"
           id="tspan768" /></text>
      <text
         transform="matrix(0.83296121,0,0,0.83296121,29.159558,27.810524)"
         id="text774"
         y="358"
         x="-310"
         style="font-style:normal;font-weight:normal;font-size:40px;line-height:1.25;font-family:sans-serif;letter-spacing:0px;word-spacing:0px;fill:#ff0000;fill-opacity:1;stroke:none"
         xml:space="preserve"><tspan
           style="fill:#00ff00"
           y="358"
           x="-310"
           id="tspan772">sdsddsdsddddddddddddddddsdsd</tspan></text>
    </g>
    <path
       d="m 265.148,479.187 c 0,0 -26.136,14.266 -34.77,12.957 -8.633,-1.309 -23.61,3.582 -23.61,3.582 0,0 -8.794,4.526 -12.706,-1.275 -3.913,-5.802 -3.689,-18.788 -3.689,-18.788 l 1.823,-11.358 8.068,-12.883 10.501,-10.427 45.533,1.695 22.791,11.918 z"
       id="path2"
       style="fill:#ffccaa;stroke:#0e0333;stroke-width:18;stroke-opacity:1"
       transform="matrix(4.8283887,0,0,4.8283887,1169.841,1170.9712)" />
    <path
       d="m 329.836,228.852 c 0.312,-0.606 0.447,-0.918 0.791,-1.585 5.657,-10.966 8.273,-13.099 9.423,-7.685 1.202,5.657 12.355,20.825 22.965,31.234 21.963,21.545 33.841,27.31 42.885,20.815 1.62,-1.163 4.746,-2.91 6.947,-3.883 6.894,-3.049 20.389,-13.447 45.523,-35.076 20.648,-17.768 28.456,-23.951 33.391,-26.443 2.331,-1.176 11.528,-4.58 20.437,-7.565 15.15,-5.075 16.605,-5.712 22.462,-9.841 3.445,-2.429 6.414,-4.799 6.598,-5.265 0.453,-1.143 -1.468,-2.969 -3.124,-2.969 -0.736,0 -1.963,0.624 -2.726,1.388 -0.764,0.763 -1.857,1.388 -2.429,1.388 -0.879,0 -1.042,-1.61 -1.042,-10.325 0,-8.48 -0.193,-10.486 -1.076,-11.219 -0.883,-0.733 -1.257,-0.712 -2.083,0.114 -1.661,1.662 -3.781,8.66 -3.781,12.482 0,3.205 -0.259,3.824 -2.479,5.917 -4.056,3.825 -7.238,2.727 -7.238,-2.498 0,-3.392 -1.632,-6.451 -5.052,-9.461 -1.738,-1.531 -3.865,-4.015 -4.724,-5.522 -2.55,-4.47 -4.115,-5.861 -6.596,-5.861 -3.448,0 -4.373,0.615 -5.124,3.406 -0.956,3.548 -9.198,18.157 -13.307,23.584 -2.105,2.781 -3.551,5.486 -3.815,7.14 -0.341,2.128 -1.34,3.517 -4.985,6.927 -9.469,8.857 -15.323,12.675 -39.076,25.48 -19.76,10.653 -22.768,11.989 -27.934,12.404 -4.134,0.332 -4.479,0.238 -6.89,-1.878 -3.375,-2.964 -7.692,-9.63 -12.937,-19.977 -2.369,-4.675 -5.957,-10.609 -7.971,-13.187 -4.509,-5.769 -7.162,-10.463 -10.493,-18.566 -1.412,-3.435 -3.231,-7.059 -4.042,-8.052 -0.811,-0.994 -3.244,-3.99 -5.407,-6.658 -4.014,-4.951 -9.019,-8.745 -13.176,-9.986 -1.278,-0.381 -5.915,-1.151 -10.304,-1.709 -4.389,-0.559 -9.073,-1.363 -10.41,-1.788 -1.606,-0.51 -5.369,-2.369 -9.342,-4.444 z m 169.203,-57.088 c 0.42,-0.133 1.592,1.603 2.604,3.858 1.792,3.994 2.273,7.192 1.417,9.421 -0.696,1.814 -1.919,1.268 -4.759,-2.13 l -2.7,-3.23 1.338,-3.838 c 0.736,-2.11 1.681,-3.947 2.1,-4.081 z"
       id="path4"
       style="fill:#ffccaa;stroke:#0e0333;stroke-width:18;stroke-opacity:1"
       transform="matrix(4.8283887,0,0,4.8283887,1169.841,1170.9712)" />
    <path
       d="m 233.939,148.263 c -6.896,2.394 -15.096,4.523 -22.61,5.616 -9.974,1.452 -14.066,3.538 -21.365,10.895 -6.042,6.091 -6.465,6.849 -13.093,23.449 -3.258,8.157 -3.551,8.677 -8.266,14.566 -6.525,8.15 -7.052,9.032 -12.55,21.002 -5.06,11.016 -7.396,14.402 -9.938,14.402 -1.377,0 -27.421,-14.759 -41.061,-23.269 -13.9821,-8.723 -19.8765,-13.249 -29.7868,-22.874 -5.1533,-5.004 -12.6656,-11.811 -16.6943,-15.125 -4.3958,-3.616 -8.7792,-7.973 -10.9602,-10.897 -3.6258,-4.862 -3.6411,-4.872 -6.9901,-4.872 -3.9027,0 -4.5749,0.618 -5.2734,4.858 14.1167,16.787 24.5268,33.288 -3.2822,9.024 -2.0433,4.354 -2.884,7.17 -3.2084,10.756 -0.4147,4.585 -0.5408,4.871 -2.2462,5.069 -2.684,0.312 -7.2616,-3.53 -11.866,-9.956 -2.1765,-3.037 -4.3629,-5.523 -4.85823,-5.523 -0.63141,0 -0.89689,1.149 -0.89004,3.84 0.00991,3.424 0.39333,4.441 3.54787,9.37 4.6906,7.33 5.004,8.416 2.7316,9.451 -2.1951,1 -2.2749,2.672 -0.2181,4.545 2.9756,2.71 4.5165,3.077 12.1809,2.892 6.2923,-0.152 7.7281,0.021 9.4034,1.122 1.6884,1.112 3.8694,1.361 14.9301,1.708 12.4904,0.392 13.0668,0.474 16.1755,2.296 1.7731,1.039 9.7338,8.225 17.6899,15.967 21.5737,20.996 47.6117,44.908 53.3367,48.982 4.704,3.347 13.813,2.636 20.174,-1.574 1.938,-1.283 5.218,-3.18 7.287,-4.216 8.128,-4.069 10.119,-6.086 28.619,-29.005 4.319,-5.351 7.67,-11.385 10.191,-18.347 1.974,-5.448 2.985,-6.392 4.945,-4.619 0.214,0.195 0.395,0.554 0.631,0.822 z M 44.3606,176.517 c 0.7127,-0.038 1.6648,0.492 2.934,1.585 1.769,1.523 1.9485,2.092 1.9349,6.234 -0.0135,5.239 -1.0759,6.979 -3.5514,5.825 -2.9573,-1.378 -4.2029,-6.609 -2.8161,-11.827 0.3124,-1.175 0.7857,-1.78 1.4986,-1.817 z"
       id="path6"
       style="fill:#ffccaa;stroke:#0e0333;stroke-width:18;stroke-opacity:1"
       transform="matrix(4.8283887,0,0,4.8283887,1169.841,1170.9712)" />
    <path
       d="m 221.807,341.725 c -0.127,0.932 -0.219,1.976 -0.396,2.738 -0.533,2.291 -1.951,10.056 -3.152,17.258 -2.24,13.432 -4.146,20.087 -6.06,21.158 -0.597,0.334 -2.222,0.352 -3.609,0.041 -4.282,-0.962 -16.771,-5.494 -20.937,-7.597 -2.176,-1.099 -7.68,-2.936 -12.229,-4.085 -4.549,-1.148 -11.142,-3.028 -14.654,-4.175 -16.549,-5.408 -25.867,-4.098 -33.265,4.675 -5.38,6.38 -6.032,8.004 -6.318,15.743 -0.143,3.847 0.088,8.247 0.517,9.839 1.311,4.872 6.163,11.274 15.985,21.101 14.153,14.158 21.077,18.977 42.676,29.709 16.314,8.105 21.209,10.891 21.699,12.299 2.259,0.697 17.223,5.326 36.221,10.919 10.188,3 20.852,6.071 29.921,8.535 4.535,1.232 8.671,2.312 12.149,3.155 3.1,0.752 5.437,1.232 7.309,1.548 5.026,0.651 3.069,4.319 14.357,8.267 6.593,2.305 26.359,3.882 29.462,4.674 3.104,0.792 7.182,2.22 9.063,3.173 6.378,3.232 14.217,2.855 19.172,-0.92 3.497,-2.663 4.264,-5.247 4.264,-14.355 0,-7.467 -0.104,-8.075 -1.734,-10.012 -1.023,-1.215 -1.735,-2.932 -1.735,-4.183 0,-1.596 -1.039,-4.044 -4.448,-8.117 -5.721,-6.836 -15.246,-2.805 -9.556,-3.512 4.671,-0.581 19.686,-8.106 29.39,-15.054 15.89,-11.378 32.694,-29.197 43.48,-46.108 2.724,-4.27 2.974,-5.026 2.726,-8.269 -0.373,-4.888 -5.081,-14.513 -9.331,-19.079 -4.4,-4.728 -10.232,-7.54 -15.635,-7.541 -5.564,-0.001 -22.598,5.379 -30.687,9.692 -3.457,1.843 -7.067,3.57 -8.021,3.836 -0.954,0.267 -4.389,1.686 -7.634,3.152 -4.793,2.166 -6.841,2.703 -10.918,2.86 -3.129,0.121 -5.322,-0.108 -5.824,-0.61 -0.442,-0.442 -2.13,-5.742 -3.75,-11.776 -1.62,-6.035 -3.825,-13.783 -4.899,-17.219 -1.15,-3.677 -1.556,-6.495 -1.757,-10.925 z"
       id="path8"
       style="fill:#ffccaa;stroke:#0e0333;stroke-width:18;stroke-opacity:1"
       transform="matrix(4.8283887,0,0,4.8283887,1169.841,1170.9712)" />
    <path
       d="m 274.96,376.69 -0.44,0.215 -119.733,-64.291 120.437,144.529 z"
       id="path10"
       style="fill:#0e0333;fill-opacity:1;stroke:#0e0333;stroke-width:18;stroke-linejoin:round;stroke-opacity:1"
       transform="matrix(4.8283887,0,0,4.8283887,1169.841,1170.9712)" />
    <path
       d="m 274.959,376.691 0.264,80.452 121.886,-140.189 z"
       id="path12"
       style="fill:#ffccaa;stroke:#0e0333;stroke-width:18;stroke-linejoin:round;stroke-opacity:1"
       transform="matrix(4.8283887,0,0,4.8283887,1169.841,1170.9712)" />
    <path
       d="m 274.434,217.166 -1.193,-0.971 -118.454,96.42 119.733,64.291 0.44,-0.215 z"
       id="path14"
       style="fill:#ffccaa;stroke:#0e0333;stroke-width:18;stroke-linejoin:round;stroke-opacity:1"
       transform="matrix(4.8283887,0,0,4.8283887,1169.841,1170.9712)" />
    <path
       d="M 274.434,217.165 274.96,376.69 397.11,316.953 Z"
       id="path16"
       style="fill:#0e0333;fill-opacity:1;stroke:#0e0333;stroke-width:18;stroke-linejoin:round;stroke-opacity:1"
       transform="matrix(4.8283887,0,0,4.8283887,1169.841,1170.9712)" />
    <path
       d="m 273.784,19.2263 -118.997,293.3877 118.454,-96.419 1.193,0.971 z"
       id="path18"
       style="fill:#ffccaa;stroke:#0e0333;stroke-width:18;stroke-linejoin:round;stroke-opacity:1"
       transform="matrix(4.8283887,0,0,4.8283887,1169.841,1170.9712)" />
    <path
       d="m 273.784,19.2264 0.65,197.9396 122.676,99.787 z"
       id="path20"
       style="fill:#ffccaa;stroke:#0e0333;stroke-width:18;stroke-linejoin:round;stroke-opacity:1"
       transform="matrix(4.8283887,0,0,4.8283887,1169.841,1170.9712)" />
    <path
       d="m 248.973,429.1 45.105,25.043 -18.963,8.336 -27.086,-8.944 z"
       id="path22"
       style="fill:#ffccaa;stroke:#ff8080;stroke-width:18"
       transform="matrix(4.8283887,0,0,4.8283887,1169.841,1170.9712)" />
    <path
       d="m 175.555,393.051 c 0,0 119.59,54.844 127.969,68.555 11.414,-3.107 23.831,-7.257 31.793,-4.615 11.084,3.678 20.749,6.121 20.749,6.121"
       id="path24"
       style="fill:#ffccaa"
       transform="matrix(4.8283887,0,0,4.8283887,1169.841,1170.9712)" />
    <path
       d="m 175.555,393.051 c 0,0 119.59,54.844 127.969,68.555 11.414,-3.107 23.831,-7.257 31.793,-4.615 11.084,3.678 20.749,6.121 20.749,6.121"
       id="path26"
       style="fill:#0e0333;fill-opacity:1;stroke:#0e0333;stroke-width:18;stroke-opacity:1"
       transform="matrix(4.8283887,0,0,4.8283887,1169.841,1170.9712)" />
    <path
       d="m 367.231,393.051 -51.036,35.039 -28.183,13.711"
       id="path28"
       style="fill:#ffccaa"
       transform="matrix(4.8283887,0,0,4.8283887,1169.841,1170.9712)" />
    <path
       d="m 367.231,393.051 -51.036,35.039 -28.183,13.711"
       id="path30"
       style="stroke:#ff8080;stroke-width:18"
       transform="matrix(4.8283887,0,0,4.8283887,1169.841,1170.9712)" />
    <path
       d="m 265.148,479.187 c 0,0 -26.136,14.266 -34.77,12.957 -8.633,-1.309 -23.61,3.582 -23.61,3.582 0,0 -8.794,4.526 -12.706,-1.275 -3.913,-5.802 -3.689,-18.788 -3.689,-18.788 l 1.823,-11.358 8.068,-12.883 10.501,-10.427 45.533,1.695 22.791,11.918 z"
       id="path32"
       style="fill:#02e2ac;fill-opacity:1;stroke:#000000;stroke-width:4.02561998"
       transform="matrix(4.8283887,0,0,4.8283887,1169.841,1170.9712)" />
    <path
       d="m 329.836,228.852 c 0.312,-0.606 0.447,-0.918 0.791,-1.585 5.657,-10.966 8.273,-13.099 9.423,-7.685 1.202,5.657 12.355,20.825 22.965,31.234 21.963,21.545 33.841,27.31 42.885,20.815 1.62,-1.163 4.746,-2.91 6.947,-3.883 6.894,-3.049 20.389,-13.447 45.523,-35.076 20.648,-17.768 28.456,-23.951 33.391,-26.443 2.331,-1.176 11.528,-4.58 20.437,-7.565 15.15,-5.075 16.605,-5.712 22.462,-9.841 3.445,-2.429 6.414,-4.799 6.598,-5.265 0.453,-1.143 -1.468,-2.969 -3.124,-2.969 -0.736,0 -1.963,0.624 -2.726,1.388 -0.764,0.763 -1.857,1.388 -2.429,1.388 -0.879,0 -1.042,-1.61 -1.042,-10.325 0,-8.48 -0.193,-10.486 -1.076,-11.219 -0.883,-0.733 -1.257,-0.712 -2.083,0.114 -1.661,1.662 -3.781,8.66 -3.781,12.482 0,3.205 -0.259,3.824 -2.479,5.917 -4.056,3.825 -7.238,2.727 -7.238,-2.498 0,-3.392 -1.632,-6.451 -5.052,-9.461 -1.738,-1.531 -3.865,-4.015 -4.724,-5.522 -2.55,-4.47 -4.115,-5.861 -6.596,-5.861 -3.448,0 -4.373,0.615 -5.124,3.406 -0.956,3.548 -9.198,18.157 -13.307,23.584 -2.105,2.781 -3.551,5.486 -3.815,7.14 -0.341,2.128 -1.34,3.517 -4.985,6.927 -9.469,8.857 -15.323,12.675 -39.076,25.48 -19.76,10.653 -22.768,11.989 -27.934,12.404 -4.134,0.332 -4.479,0.238 -6.89,-1.878 -3.375,-2.964 -7.692,-9.63 -12.937,-19.977 -2.369,-4.675 -5.957,-10.609 -7.971,-13.187 -4.509,-5.769 -7.162,-10.463 -10.493,-18.566 -1.412,-3.435 -3.231,-7.059 -4.042,-8.052 -0.811,-0.994 -3.244,-3.99 -5.407,-6.658 -4.014,-4.951 -9.019,-8.745 -13.176,-9.986 -1.278,-0.381 -5.915,-1.151 -10.304,-1.709 -4.389,-0.559 -9.073,-1.363 -10.41,-1.788 -1.606,-0.51 -5.369,-2.369 -9.342,-4.444 z m 169.203,-57.088 c 0.42,-0.133 1.592,1.603 2.604,3.858 1.792,3.994 2.273,7.192 1.417,9.421 -0.696,1.814 -1.919,1.268 -4.759,-2.13 l -2.7,-3.23 1.338,-3.838 c 0.736,-2.11 1.681,-3.947 2.1,-4.081 z"
       id="path34"
       style="fill:#02e2ac;fill-opacity:1;stroke:#000000;stroke-width:3.60236001"
       transform="matrix(4.8283887,0,0,4.8283887,1169.841,1170.9712)" />
    <path
       d="m 233.939,148.263 c -6.896,2.394 -15.096,4.523 -22.61,5.616 -9.974,1.452 -14.066,3.538 -21.365,10.895 -6.042,6.091 -6.465,6.849 -13.093,23.449 -3.258,8.157 -3.551,8.677 -8.266,14.566 -6.525,8.15 -7.052,9.032 -12.55,21.002 -5.06,11.016 -7.396,14.402 -9.938,14.402 -1.377,0 -27.421,-14.759 -41.061,-23.269 -13.9821,-8.723 -19.8765,-13.249 -29.7868,-22.874 -5.1533,-5.004 -12.6656,-11.811 -16.6943,-15.125 -4.3958,-3.616 -8.7792,-7.973 -10.9602,-10.897 -3.6258,-4.862 -3.6411,-4.872 -6.9901,-4.872 -3.9027,0 -4.5749,0.618 -5.2734,4.858 -0.2828,1.718 -1.7598,5.779 -3.2822,9.024 -2.0433,4.354 -2.884,7.17 -3.2084,10.756 -0.4147,4.585 -0.5408,4.871 -2.2462,5.069 -2.684,0.312 -7.2616,-3.53 -11.866,-9.956 -2.1765,-3.037 -4.3629,-5.523 -4.85823,-5.523 -0.63141,0 -0.89689,1.149 -0.89004,3.84 0.00991,3.424 0.39333,4.441 3.54787,9.37 4.6906,7.33 5.004,8.416 2.7316,9.451 -2.1951,1 -2.2749,2.672 -0.2181,4.545 2.9756,2.71 4.5165,3.077 12.1809,2.892 6.2923,-0.152 7.7281,0.021 9.4034,1.122 1.6884,1.112 3.8694,1.361 14.9301,1.708 12.4904,0.392 13.0668,0.474 16.1755,2.296 1.7731,1.039 9.7338,8.225 17.6899,15.967 21.5737,20.996 47.6117,44.908 53.3367,48.982 4.704,3.347 13.813,2.636 20.174,-1.574 1.938,-1.283 5.218,-3.18 7.287,-4.216 8.128,-4.069 10.119,-6.086 28.619,-29.005 4.319,-5.351 7.67,-11.385 10.191,-18.347 1.974,-5.448 2.985,-6.392 4.945,-4.619 0.214,0.195 0.395,0.554 0.631,0.822 z M 44.3606,176.517 c 0.7127,-0.038 1.6648,0.492 2.934,1.585 1.769,1.523 1.9485,2.092 1.9349,6.234 -0.0135,5.239 -1.0759,6.979 -3.5514,5.825 -2.9573,-1.378 -4.2029,-6.609 -2.8161,-11.827 0.3124,-1.175 0.7857,-1.78 1.4986,-1.817 z"
       id="path36"
       style="fill:#02e2ac;fill-opacity:1;stroke:#000000;stroke-width:3.60236001"
       transform="matrix(4.8283887,0,0,4.8283887,1169.841,1170.9712)" />
    <path
       d="m 221.807,341.725 c -0.127,0.932 -0.219,1.976 -0.396,2.738 -0.533,2.291 -1.951,10.056 -3.152,17.258 -2.24,13.432 -4.146,20.087 -6.06,21.158 -0.597,0.334 -2.222,0.352 -3.609,0.041 -4.282,-0.962 -16.771,-5.494 -20.937,-7.597 -2.176,-1.099 -7.68,-2.936 -12.229,-4.085 -4.549,-1.148 -11.142,-3.028 -14.654,-4.175 -16.549,-5.408 -25.867,-4.098 -33.265,4.675 -5.38,6.38 -6.032,8.004 -6.318,15.743 -0.143,3.847 0.088,8.247 0.517,9.839 1.311,4.872 6.163,11.274 15.985,21.101 14.153,14.158 21.077,18.977 42.676,29.709 16.314,8.105 21.209,10.891 21.699,12.299 2.259,0.697 17.223,5.326 36.221,10.919 10.188,3 20.852,6.071 29.921,8.535 4.535,1.232 8.671,2.312 12.149,3.155 3.1,0.752 5.437,1.232 7.309,1.548 5.026,0.651 3.069,4.319 14.357,8.267 6.593,2.305 26.359,3.882 29.462,4.674 3.104,0.792 7.182,2.22 9.063,3.173 6.378,3.232 14.217,2.855 19.172,-0.92 3.497,-2.663 4.264,-5.247 4.264,-14.355 0,-7.467 -0.104,-8.075 -1.734,-10.012 -1.023,-1.215 -1.735,-2.932 -1.735,-4.183 0,-1.596 -1.039,-4.044 -4.448,-8.117 -5.721,-6.836 -15.246,-2.805 -9.556,-3.512 4.671,-0.581 19.686,-8.106 29.39,-15.054 15.89,-11.378 32.694,-29.197 43.48,-46.108 2.724,-4.27 2.974,-5.026 2.726,-8.269 -0.373,-4.888 -5.081,-14.513 -9.331,-19.079 -4.4,-4.728 -10.232,-7.54 -15.635,-7.541 -5.564,-0.001 -22.598,5.379 -30.687,9.692 -3.457,1.843 -7.067,3.57 -8.021,3.836 -0.954,0.267 -4.389,1.686 -7.634,3.152 -4.793,2.166 -6.841,2.703 -10.918,2.86 -3.129,0.121 -5.322,-0.108 -5.824,-0.61 -0.442,-0.442 -2.13,-5.742 -3.75,-11.776 -1.62,-6.035 -3.825,-13.783 -4.899,-17.219 -1.15,-3.677 -1.556,-6.495 -1.757,-10.925 z"
       id="path38"
       style="fill:#02e2ac;fill-opacity:1;stroke:#000000;stroke-width:3.60236001"
       transform="matrix(4.8283887,0,0,4.8283887,1169.841,1170.9712)" />
    <path
       d="m 274.96,376.69 -0.44,0.215 -119.733,-64.291 120.437,144.529 z"
       id="path40"
       style="fill:#00aaf9;fill-opacity:1;stroke:#02e2ac;stroke-width:3.60236001;stroke-linejoin:round;stroke-opacity:1"
       transform="matrix(4.8283887,0,0,4.8283887,1169.841,1170.9712)" />
    <path
       d="m 274.959,376.691 0.264,80.452 121.886,-140.189 z"
       id="path42"
       style="fill:#005fe4;fill-opacity:1;stroke:#02e2ac;stroke-width:3.60236001;stroke-linejoin:round;stroke-opacity:1"
       transform="matrix(4.8283887,0,0,4.8283887,1169.841,1170.9712)" />
    <path
       d="m 274.434,217.166 -1.193,-0.971 -118.454,96.42 119.733,64.291 0.44,-0.215 z"
       id="path44"
       style="fill:#005dda;fill-opacity:1;stroke:#02e2ac;stroke-width:3.60236001;stroke-linejoin:round;stroke-opacity:1"
       transform="matrix(4.8283887,0,0,4.8283887,1169.841,1170.9712)" />
    <path
       d="M 274.434,217.165 274.96,376.69 397.11,316.953 Z"
       id="path46"
       style="fill:#003bb5;fill-opacity:1;stroke:#02e2ac;stroke-width:3.60236001;stroke-linejoin:round;stroke-opacity:1"
       transform="matrix(4.8283887,0,0,4.8283887,1169.841,1170.9712)" />
    <path
       d="m 273.784,19.2263 -118.997,293.3877 118.454,-96.419 1.193,0.971 z"
       id="path48"
       style="fill:#00abf9;fill-opacity:1;stroke:#02e2ac;stroke-width:3.60236001;stroke-linejoin:round;stroke-opacity:1"
       transform="matrix(4.8283887,0,0,4.8283887,1169.841,1170.9712)" />
    <path
       d="m 273.784,19.2264 0.65,197.9396 122.676,99.787 z"
       id="path50"
       style="fill:#005fe4;fill-opacity:1;stroke:#02e2ac;stroke-width:3.60236001;stroke-linejoin:round;stroke-opacity:1"
       transform="matrix(4.8283887,0,0,4.8283887,1169.841,1170.9712)" />
    <path
       d="m 248.973,429.1 45.105,25.043 -18.963,8.336 -27.086,-8.944 z"
       id="path52"
       style="fill:#02e2ac;fill-opacity:1"
       transform="matrix(4.8283887,0,0,4.8283887,1169.841,1170.9712)" />
    <path
       d="m 175.555,393.051 c 0,0 119.59,54.844 127.969,68.555 11.414,-3.107 23.831,-7.257 31.793,-4.615 11.084,3.678 20.749,6.121 20.749,6.121"
       id="path54"
       style="stroke:#000000;stroke-width:3.602;stroke-linecap:round;stroke-linejoin:round;stroke-miterlimit:4;stroke-dasharray:none"
       transform="matrix(4.8283887,0,0,4.8283887,1169.841,1170.9712)" />
    <path
       d="m 367.231,393.051 -51.036,35.039 -32.07209,18.13042"
       id="path56"
       style="stroke:#000000;stroke-width:3.60236001;stroke-linejoin:round"
       transform="matrix(4.8283887,0,0,4.8283887,1169.841,1170.9712)" />
    <g
       style="display:inline;opacity:1"
       id="g580"
       transform="matrix(-0.06070998,0,0,-0.06070998,385.09464,13.566391)">
      <path
         id="path528"
         d="M 64,128 C 99.3131,128 128,99.3759 128,64.0404 127.919,28.6241 99.3131,0 64,0 28.6061,0 0,28.6241 0,63.9596 0,99.295 28.6061,128 64,128 Z"
         style="display:inline;opacity:1;fill:#0e0333;fill-opacity:1"
         transform="matrix(-125.92709,0,0,-125.92709,-45537.868,-14063.387)" />
      <g
         transform="matrix(-22.912811,0,0,-22.912811,-47968.942,-16478.068)"
         id="g4819"
         style="display:inline;opacity:1;fill:none">
        <path
           style="fill:#02e2ac"
           d="m 355.382,115.859 c -1.877,-7.34 6.996,-12.461 12.456,-7.169 l 81.391,81.421 c 2.901,2.902 2.901,7.511 0,10.413 L 342.755,307.208 c -2.901,2.902 -7.508,2.902 -10.408,0 l -6.996,-6.998 c -10.068,-10.071 -11.945,-25.775 -3.242,-38.919 3.754,-5.633 9.726,-9.559 16.38,-11.266 l 14.504,-3.926 c 2.73,-0.682 5.46,-1.707 7.849,-3.413 15.357,-10.413 21.329,-27.653 17.063,-43.528 z M 169.565,83.4271 c -4.096,4.0967 -2.219,10.9245 3.242,12.4608 l 95.894,25.7751 c 10.067,2.731 18.428,9.217 23.718,18.264 5.119,8.876 6.484,19.801 3.754,30.042 l -4.266,15.875 c -0.512,2.219 -0.683,4.438 -0.171,6.657 4.607,19.972 22.012,29.53 38.392,25.092 l 11.433,-3.072 c 2.9,-0.854 4.607,-3.755 3.924,-6.657 0,0 -36.003,-135.3613 -41.975,-160.4535 -0.683,-2.5604 -2.048,-5.1208 -3.925,-6.9985 L 261.364,2.17636 c -2.901,-2.901813 -7.508,-2.901813 -10.408,0 z M 27.2583,286.213 c 2.9007,2.902 7.5078,2.902 10.4085,0 22.5233,-22.361 109.5452,-109.245 109.5452,-109.245 11.773,-11.778 29.519,-15.021 46.241,-6.999 2.559,1.195 4.948,3.073 6.996,5.292 l 13.821,13.826 c 1.536,1.537 3.583,2.902 5.631,3.585 19.622,5.974 36.515,-4.267 40.951,-20.654 l 3.072,-11.266 c 0.341,-1.536 0.341,-3.073 -0.342,-4.267 -0.682,-1.366 -1.877,-2.39 -3.412,-2.732 L 137.315,120.809 c -2.559,-0.682 -5.289,0 -7.166,1.878 L 2.17555,250.708 c -2.900732,2.902 -2.900732,7.511 0,10.413 z"
           id="path4802" />
        <path
           style="fill:#6f3ff5"
           d="m 344.461,428.573 c 4.095,-4.096 2.218,-10.924 -3.242,-12.461 l -95.894,-25.774 c -10.068,-2.732 -18.429,-9.218 -23.718,-18.265 -5.119,-8.876 -6.484,-19.8 -3.754,-30.042 l 4.266,-15.875 c 0.512,-2.219 0.682,-4.438 0.17,-6.657 -4.607,-19.971 -22.011,-29.53 -38.392,-25.092 l -11.432,3.072 c -2.901,0.854 -4.607,3.756 -3.924,6.658 0,0 36.003,135.361 41.975,160.453 0.682,2.56 2.047,5.121 3.924,6.998 l 38.222,38.236 c 2.9,2.902 7.507,2.902 10.408,0 z M 509.803,250.88 483.355,224.422 c -2.901,-2.902 -7.508,-2.902 -10.409,0 L 363.231,334.179 c -2.048,2.048 -4.437,3.926 -7.167,5.291 -16.722,8.023 -34.467,4.609 -46.07,-6.998 l -8.361,-8.364 c -5.802,-5.804 -13.309,-8.876 -21.158,-8.876 -6.143,0 -12.286,1.877 -18.087,5.803 -5.461,3.756 -9.214,9.73 -10.921,16.046 l -3.071,11.607 c -0.341,1.536 -0.341,3.072 0.341,4.267 0.683,1.366 1.877,2.39 3.413,2.731 l 124.902,33.457 c 2.559,0.682 5.289,0 7.166,-1.878 L 509.973,261.463 c 2.73,-3.073 2.73,-7.852 -0.17,-10.583 z m -375.389,59.402 c -4.265,-16.046 1.707,-33.286 17.234,-43.698 2.389,-1.537 5.119,-2.561 7.849,-3.414 l 14.504,-3.926 c 6.654,-1.707 12.627,-5.633 16.38,-11.266 8.703,-13.144 6.826,-28.677 -3.242,-38.919 l -8.361,-8.364 c -2.047,-2.048 -5.63,-2.048 -7.678,0 0,0 -86.8511,86.884 -109.3744,109.416 -2.9007,2.902 -2.9007,7.51 0,10.412 l 83.6094,83.982 c 5.289,5.292 14.333,0.171 12.456,-7.169 z"
           id="path4804" />
        <path
           style="fill:#f35890"
           d="m 256.074,293.04 c 20.45,0 37.027,-16.584 37.027,-37.041 0,-20.457 -16.577,-37.041 -37.027,-37.041 -20.449,0 -37.027,16.584 -37.027,37.041 0,20.457 16.578,37.041 37.027,37.041 z"
           id="path4806" />
      </g>
    </g>
    <g
       transform="matrix(1.9556953,0,0,1.9556953,2229.469,780.15754)"
       id="g108"
       style="display:inline;opacity:1;fill:none">
      <g
         transform="translate(-395.37142,-95.162537)"
         clip-path="url(#clip0)"
         id="g106">
        <path
           style="fill:#02e2ac"
           d="M 64,128 C 99.3131,128 128,99.3759 128,64.0404 127.919,28.6241 99.3131,0 64,0 28.6061,0 0,28.6241 0,63.9596 0,99.295 28.6061,128 64,128 Z"
           id="path102" />
        <path
           transform="matrix(1.0274055,0,0,1.0274055,-2.905199,-1.802054)"
           style="clip-rule:evenodd;fill:#0e0333;fill-rule:evenodd"
           d="m 89.3096,85.2494 -4.4354,-3.3971 c 3.2883,-4.7098 5.1237,-10.346 5.1237,-15.9822 0.0764,-6.0995 -1.9118,-12.1218 -5.659,-16.9859 l 4.9707,-4.7097 c 0.6118,-0.5405 0.6118,-1.467 0.0765,-2.0847 L 88.1625,40.8545 C 81.9682,34.5234 73.5563,30.8174 64.7619,30.5085 v -5.1729 c 0.0765,-3.0112 -4.5884,-3.0112 -4.5884,0 v 5.3274 c -2.0647,0.1544 -4.1295,0.6176 -6.1178,1.1581 v -6.5627 c 0.0765,-3.0112 -4.5883,-3.0112 -4.5883,0 v 8.2613 h -0.0765 c -7.0355,3.3199 -13.0004,8.9562 -16.5181,16.1366 -3.5942,7.026 -4.7413,15.2101 -3.2119,23.0081 1.606,7.7981 5.7355,14.8241 11.7768,19.9971 6.0414,5.0957 13.6886,7.9525 21.5653,8.1845 L 88.4684,101 c 0.7647,0 1.3765,-0.618 1.3765,-1.3898 v -12.971 c 0,-0.6949 -0.1529,-1.1581 -0.5353,-1.3898 z m -17.0534,-25.17 7.2649,-6.6399 c 4.9707,7.026 5.1237,17.1403 0.0765,24.3207 l -7.7238,-5.9451 c 1.3001,-1.6985 1.9883,-3.6288 2.0648,-5.7906 -0.0765,-2.0846 -0.5353,-4.0921 -1.6824,-5.9451 z m 11.318,33.8174 c 0,0.386 -0.3059,0.6949 -0.6883,0.6949 L 63.5383,94.5145 C 57.2676,94.4373 51.1498,92.3526 46.179,88.5694 41.2083,84.709 37.6141,79.2272 36.0846,73.1277 32.7198,60.8515 38.4553,46.954 49.4674,40.7773 l 0.2294,-0.0772 V 50.66 c -0.0765,3.0111 4.5883,3.0111 4.5883,0 V 38.461 c 8.7944,-3.0883 19.1947,-1.5442 26.5361,4.2465 0.3823,0.2316 0.3823,0.7721 0.0764,1.0809 L 67.4384,56.1418 c -2.6,-1.0809 -5.5825,-1.0809 -8.1061,0.1544 -4.053,1.853 -6.6531,6.4083 -5.8884,10.8864 0.153,1.467 0.6883,2.8567 1.453,4.0921 0.7647,1.3125 1.8354,2.3162 3.0589,3.1655 2.4471,1.6214 5.5825,2.0847 8.412,1.2354 l 16.9769,13.0482 c 0.153,0.1544 0.2295,0.3861 0.2295,0.6177 z M 67.6679,65.7157 c 0,0.772 -0.2295,1.6213 -0.6883,2.239 -0.4588,0.6949 -1.0706,1.1581 -1.8353,1.5442 -0.7648,0.3088 -1.606,0.386 -2.2942,0.1544 -0.7647,-0.1544 -1.453,-0.5405 -2.0648,-1.0809 -0.5353,-0.5405 -0.9177,-1.3126 -1.0706,-2.0847 -0.1529,-0.772 -0.0765,-1.6213 0.2294,-2.3162 0.3059,-0.7721 0.8412,-1.3126 1.453,-1.853 1.6059,-1.0809 3.7472,-0.8493 5.1237,0.5404 0.6882,0.6949 1.1471,1.7758 1.1471,2.8568 z"
           id="path104" />
      </g>
    </g>
    <g
       style="display:inline;opacity:1;fill:none"
       id="g116"
       transform="matrix(2.7940182,0,0,2.7940182,1980.4072,718.14422)">
      <g
         id="g114"
         clip-path="url(#clip0)"
         transform="translate(-395.37142,-95.162537)">
        <path
           id="path110"
           d="M 64,128 C 99.3131,128 128,99.3759 128,64.0404 127.919,28.6241 99.3131,0 64,0 28.6061,0 0,28.6241 0,63.9596 0,99.295 28.6061,128 64,128 Z"
           style="fill:#02e2ac" />
        <path
           id="path112"
           d="m 89.3096,85.2494 -4.4354,-3.3971 c 3.2883,-4.7098 5.1237,-10.346 5.1237,-15.9822 0.0764,-6.0995 -1.9118,-12.1218 -5.659,-16.9859 l 4.9707,-4.7097 c 0.6118,-0.5405 0.6118,-1.467 0.0765,-2.0847 L 88.1625,40.8545 C 81.9682,34.5234 73.5563,30.8174 64.7619,30.5085 v -5.1729 c 0.0765,-3.0112 -4.5884,-3.0112 -4.5884,0 v 5.3274 c -2.0647,0.1544 -4.1295,0.6176 -6.1178,1.1581 v -6.5627 c 0.0765,-3.0112 -4.5883,-3.0112 -4.5883,0 v 8.2613 h -0.0765 c -7.0355,3.3199 -13.0004,8.9562 -16.5181,16.1366 -3.5942,7.026 -4.7413,15.2101 -3.2119,23.0081 1.606,7.7981 5.7355,14.8241 11.7768,19.9971 6.0414,5.0957 13.6886,7.9525 21.5653,8.1845 L 88.4684,101 c 0.7647,0 1.3765,-0.618 1.3765,-1.3898 v -12.971 c 0,-0.6949 -0.1529,-1.1581 -0.5353,-1.3898 z m -17.0534,-25.17 7.2649,-6.6399 c 4.9707,7.026 5.1237,17.1403 0.0765,24.3207 l -7.7238,-5.9451 c 1.3001,-1.6985 1.9883,-3.6288 2.0648,-5.7906 -0.0765,-2.0846 -0.5353,-4.0921 -1.6824,-5.9451 z m 11.318,33.8174 c 0,0.386 -0.3059,0.6949 -0.6883,0.6949 L 63.5383,94.5145 C 57.2676,94.4373 51.1498,92.3526 46.179,88.5694 41.2083,84.709 37.6141,79.2272 36.0846,73.1277 32.7198,60.8515 38.4553,46.954 49.4674,40.7773 l 0.2294,-0.0772 V 50.66 c -0.0765,3.0111 4.5883,3.0111 4.5883,0 V 38.461 c 8.7944,-3.0883 19.1947,-1.5442 26.5361,4.2465 0.3823,0.2316 0.3823,0.7721 0.0764,1.0809 L 67.4384,56.1418 c -2.6,-1.0809 -5.5825,-1.0809 -8.1061,0.1544 -4.053,1.853 -6.6531,6.4083 -5.8884,10.8864 0.153,1.467 0.6883,2.8567 1.453,4.0921 0.7647,1.3125 1.8354,2.3162 3.0589,3.1655 2.4471,1.6214 5.5825,2.0847 8.412,1.2354 l 16.9769,13.0482 c 0.153,0.1544 0.2295,0.3861 0.2295,0.6177 z M 67.6679,65.7157 c 0,0.772 -0.2295,1.6213 -0.6883,2.239 -0.4588,0.6949 -1.0706,1.1581 -1.8353,1.5442 -0.7648,0.3088 -1.606,0.386 -2.2942,0.1544 -0.7647,-0.1544 -1.453,-0.5405 -2.0648,-1.0809 -0.5353,-0.5405 -0.9177,-1.3126 -1.0706,-2.0847 -0.1529,-0.772 -0.0765,-1.6213 0.2294,-2.3162 0.3059,-0.7721 0.8412,-1.3126 1.453,-1.853 1.6059,-1.0809 3.7472,-0.8493 5.1237,0.5404 0.6882,0.6949 1.1471,1.7758 1.1471,2.8568 z"
           style="clip-rule:evenodd;fill:#0e0333;fill-rule:evenodd"
           transform="matrix(1.0274055,0,0,1.0274055,-2.905199,-1.802054)" />
      </g>
    </g>
    <g
       transform="matrix(1.3243776,0,0,1.277703,1885.6143,516.8134)"
       id="g124"
       style="display:inline;opacity:1;fill:none">
      <g
         transform="translate(-395.37142,-95.162537)"
         clip-path="url(#clip0)"
         id="g122">
        <path
           style="fill:#02e2ac"
           d="M 64,128 C 99.3131,128 128,99.3759 128,64.0404 127.919,28.6241 99.3131,0 64,0 28.6061,0 0,28.6241 0,63.9596 0,99.295 28.6061,128 64,128 Z"
           id="path118" />
        <path
           transform="matrix(1.0274055,0,0,1.0274055,-2.905199,-1.802054)"
           style="clip-rule:evenodd;fill:#0e0333;fill-rule:evenodd"
           d="m 89.3096,85.2494 -4.4354,-3.3971 c 3.2883,-4.7098 5.1237,-10.346 5.1237,-15.9822 0.0764,-6.0995 -1.9118,-12.1218 -5.659,-16.9859 l 4.9707,-4.7097 c 0.6118,-0.5405 0.6118,-1.467 0.0765,-2.0847 L 88.1625,40.8545 C 81.9682,34.5234 73.5563,30.8174 64.7619,30.5085 v -5.1729 c 0.0765,-3.0112 -4.5884,-3.0112 -4.5884,0 v 5.3274 c -2.0647,0.1544 -4.1295,0.6176 -6.1178,1.1581 v -6.5627 c 0.0765,-3.0112 -4.5883,-3.0112 -4.5883,0 v 8.2613 h -0.0765 c -7.0355,3.3199 -13.0004,8.9562 -16.5181,16.1366 -3.5942,7.026 -4.7413,15.2101 -3.2119,23.0081 1.606,7.7981 5.7355,14.8241 11.7768,19.9971 6.0414,5.0957 13.6886,7.9525 21.5653,8.1845 L 88.4684,101 c 0.7647,0 1.3765,-0.618 1.3765,-1.3898 v -12.971 c 0,-0.6949 -0.1529,-1.1581 -0.5353,-1.3898 z m -17.0534,-25.17 7.2649,-6.6399 c 4.9707,7.026 5.1237,17.1403 0.0765,24.3207 l -7.7238,-5.9451 c 1.3001,-1.6985 1.9883,-3.6288 2.0648,-5.7906 -0.0765,-2.0846 -0.5353,-4.0921 -1.6824,-5.9451 z m 11.318,33.8174 c 0,0.386 -0.3059,0.6949 -0.6883,0.6949 L 63.5383,94.5145 C 57.2676,94.4373 51.1498,92.3526 46.179,88.5694 41.2083,84.709 37.6141,79.2272 36.0846,73.1277 32.7198,60.8515 38.4553,46.954 49.4674,40.7773 l 0.2294,-0.0772 V 50.66 c -0.0765,3.0111 4.5883,3.0111 4.5883,0 V 38.461 c 8.7944,-3.0883 19.1947,-1.5442 26.5361,4.2465 0.3823,0.2316 0.3823,0.7721 0.0764,1.0809 L 67.4384,56.1418 c -2.6,-1.0809 -5.5825,-1.0809 -8.1061,0.1544 -4.053,1.853 -6.6531,6.4083 -5.8884,10.8864 0.153,1.467 0.6883,2.8567 1.453,4.0921 0.7647,1.3125 1.8354,2.3162 3.0589,3.1655 2.4471,1.6214 5.5825,2.0847 8.412,1.2354 l 16.9769,13.0482 c 0.153,0.1544 0.2295,0.3861 0.2295,0.6177 z M 67.6679,65.7157 c 0,0.772 -0.2295,1.6213 -0.6883,2.239 -0.4588,0.6949 -1.0706,1.1581 -1.8353,1.5442 -0.7648,0.3088 -1.606,0.386 -2.2942,0.1544 -0.7647,-0.1544 -1.453,-0.5405 -2.0648,-1.0809 -0.5353,-0.5405 -0.9177,-1.3126 -1.0706,-2.0847 -0.1529,-0.772 -0.0765,-1.6213 0.2294,-2.3162 0.3059,-0.7721 0.8412,-1.3126 1.453,-1.853 1.6059,-1.0809 3.7472,-0.8493 5.1237,0.5404 0.6882,0.6949 1.1471,1.7758 1.1471,2.8568 z"
           id="path120" />
      </g>
    </g>
    <g
       transform="matrix(-0.01891947,0,0,-0.01891947,2619.0775,253.17769)"
       id="g136"
       style="display:inline;opacity:1">
      <path
         transform="matrix(-125.92709,0,0,-125.92709,-45537.868,-14063.387)"
         style="display:inline;opacity:1;fill:#0e0333;fill-opacity:1"
         d="M 64,128 C 99.3131,128 128,99.3759 128,64.0404 127.919,28.6241 99.3131,0 64,0 28.6061,0 0,28.6241 0,63.9596 0,99.295 28.6061,128 64,128 Z"
         id="path126" />
      <g
         style="display:inline;opacity:1;fill:none"
         id="g134"
         transform="matrix(-22.912811,0,0,-22.912811,-47968.942,-16478.068)">
        <path
           id="path128"
           d="m 355.382,115.859 c -1.877,-7.34 6.996,-12.461 12.456,-7.169 l 81.391,81.421 c 2.901,2.902 2.901,7.511 0,10.413 L 342.755,307.208 c -2.901,2.902 -7.508,2.902 -10.408,0 l -6.996,-6.998 c -10.068,-10.071 -11.945,-25.775 -3.242,-38.919 3.754,-5.633 9.726,-9.559 16.38,-11.266 l 14.504,-3.926 c 2.73,-0.682 5.46,-1.707 7.849,-3.413 15.357,-10.413 21.329,-27.653 17.063,-43.528 z M 169.565,83.4271 c -4.096,4.0967 -2.219,10.9245 3.242,12.4608 l 95.894,25.7751 c 10.067,2.731 18.428,9.217 23.718,18.264 5.119,8.876 6.484,19.801 3.754,30.042 l -4.266,15.875 c -0.512,2.219 -0.683,4.438 -0.171,6.657 4.607,19.972 22.012,29.53 38.392,25.092 l 11.433,-3.072 c 2.9,-0.854 4.607,-3.755 3.924,-6.657 0,0 -36.003,-135.3613 -41.975,-160.4535 -0.683,-2.5604 -2.048,-5.1208 -3.925,-6.9985 L 261.364,2.17636 c -2.901,-2.901813 -7.508,-2.901813 -10.408,0 z M 27.2583,286.213 c 2.9007,2.902 7.5078,2.902 10.4085,0 22.5233,-22.361 109.5452,-109.245 109.5452,-109.245 11.773,-11.778 29.519,-15.021 46.241,-6.999 2.559,1.195 4.948,3.073 6.996,5.292 l 13.821,13.826 c 1.536,1.537 3.583,2.902 5.631,3.585 19.622,5.974 36.515,-4.267 40.951,-20.654 l 3.072,-11.266 c 0.341,-1.536 0.341,-3.073 -0.342,-4.267 -0.682,-1.366 -1.877,-2.39 -3.412,-2.732 L 137.315,120.809 c -2.559,-0.682 -5.289,0 -7.166,1.878 L 2.17555,250.708 c -2.900732,2.902 -2.900732,7.511 0,10.413 z"
           style="fill:#02e2ac" />
        <path
           id="path130"
           d="m 344.461,428.573 c 4.095,-4.096 2.218,-10.924 -3.242,-12.461 l -95.894,-25.774 c -10.068,-2.732 -18.429,-9.218 -23.718,-18.265 -5.119,-8.876 -6.484,-19.8 -3.754,-30.042 l 4.266,-15.875 c 0.512,-2.219 0.682,-4.438 0.17,-6.657 -4.607,-19.971 -22.011,-29.53 -38.392,-25.092 l -11.432,3.072 c -2.901,0.854 -4.607,3.756 -3.924,6.658 0,0 36.003,135.361 41.975,160.453 0.682,2.56 2.047,5.121 3.924,6.998 l 38.222,38.236 c 2.9,2.902 7.507,2.902 10.408,0 z M 509.803,250.88 483.355,224.422 c -2.901,-2.902 -7.508,-2.902 -10.409,0 L 363.231,334.179 c -2.048,2.048 -4.437,3.926 -7.167,5.291 -16.722,8.023 -34.467,4.609 -46.07,-6.998 l -8.361,-8.364 c -5.802,-5.804 -13.309,-8.876 -21.158,-8.876 -6.143,0 -12.286,1.877 -18.087,5.803 -5.461,3.756 -9.214,9.73 -10.921,16.046 l -3.071,11.607 c -0.341,1.536 -0.341,3.072 0.341,4.267 0.683,1.366 1.877,2.39 3.413,2.731 l 124.902,33.457 c 2.559,0.682 5.289,0 7.166,-1.878 L 509.973,261.463 c 2.73,-3.073 2.73,-7.852 -0.17,-10.583 z m -375.389,59.402 c -4.265,-16.046 1.707,-33.286 17.234,-43.698 2.389,-1.537 5.119,-2.561 7.849,-3.414 l 14.504,-3.926 c 6.654,-1.707 12.627,-5.633 16.38,-11.266 8.703,-13.144 6.826,-28.677 -3.242,-38.919 l -8.361,-8.364 c -2.047,-2.048 -5.63,-2.048 -7.678,0 0,0 -86.8511,86.884 -109.3744,109.416 -2.9007,2.902 -2.9007,7.51 0,10.412 l 83.6094,83.982 c 5.289,5.292 14.333,0.171 12.456,-7.169 z"
           style="fill:#6f3ff5" />
        <path
           id="path132"
           d="m 256.074,293.04 c 20.45,0 37.027,-16.584 37.027,-37.041 0,-20.457 -16.577,-37.041 -37.027,-37.041 -20.449,0 -37.027,16.584 -37.027,37.041 0,20.457 16.578,37.041 37.027,37.041 z"
           style="fill:#f35890" />
      </g>
    </g>
    <g
       style="display:inline;opacity:1"
       id="g148"
       transform="matrix(-0.01129408,0,0,-0.01129408,2711.8125,480.01282)">
      <path
         id="path138"
         d="M 64,128 C 99.3131,128 128,99.3759 128,64.0404 127.919,28.6241 99.3131,0 64,0 28.6061,0 0,28.6241 0,63.9596 0,99.295 28.6061,128 64,128 Z"
         style="display:inline;opacity:1;fill:#0e0333;fill-opacity:1"
         transform="matrix(-125.92709,0,0,-125.92709,-45537.868,-14063.387)" />
      <g
         transform="matrix(-22.912811,0,0,-22.912811,-47968.942,-16478.068)"
         id="g146"
         style="display:inline;opacity:1;fill:none">
        <path
           style="fill:#02e2ac"
           d="m 355.382,115.859 c -1.877,-7.34 6.996,-12.461 12.456,-7.169 l 81.391,81.421 c 2.901,2.902 2.901,7.511 0,10.413 L 342.755,307.208 c -2.901,2.902 -7.508,2.902 -10.408,0 l -6.996,-6.998 c -10.068,-10.071 -11.945,-25.775 -3.242,-38.919 3.754,-5.633 9.726,-9.559 16.38,-11.266 l 14.504,-3.926 c 2.73,-0.682 5.46,-1.707 7.849,-3.413 15.357,-10.413 21.329,-27.653 17.063,-43.528 z M 169.565,83.4271 c -4.096,4.0967 -2.219,10.9245 3.242,12.4608 l 95.894,25.7751 c 10.067,2.731 18.428,9.217 23.718,18.264 5.119,8.876 6.484,19.801 3.754,30.042 l -4.266,15.875 c -0.512,2.219 -0.683,4.438 -0.171,6.657 4.607,19.972 22.012,29.53 38.392,25.092 l 11.433,-3.072 c 2.9,-0.854 4.607,-3.755 3.924,-6.657 0,0 -36.003,-135.3613 -41.975,-160.4535 -0.683,-2.5604 -2.048,-5.1208 -3.925,-6.9985 L 261.364,2.17636 c -2.901,-2.901813 -7.508,-2.901813 -10.408,0 z M 27.2583,286.213 c 2.9007,2.902 7.5078,2.902 10.4085,0 22.5233,-22.361 109.5452,-109.245 109.5452,-109.245 11.773,-11.778 29.519,-15.021 46.241,-6.999 2.559,1.195 4.948,3.073 6.996,5.292 l 13.821,13.826 c 1.536,1.537 3.583,2.902 5.631,3.585 19.622,5.974 36.515,-4.267 40.951,-20.654 l 3.072,-11.266 c 0.341,-1.536 0.341,-3.073 -0.342,-4.267 -0.682,-1.366 -1.877,-2.39 -3.412,-2.732 L 137.315,120.809 c -2.559,-0.682 -5.289,0 -7.166,1.878 L 2.17555,250.708 c -2.900732,2.902 -2.900732,7.511 0,10.413 z"
           id="path140" />
        <path
           style="fill:#6f3ff5"
           d="m 344.461,428.573 c 4.095,-4.096 2.218,-10.924 -3.242,-12.461 l -95.894,-25.774 c -10.068,-2.732 -18.429,-9.218 -23.718,-18.265 -5.119,-8.876 -6.484,-19.8 -3.754,-30.042 l 4.266,-15.875 c 0.512,-2.219 0.682,-4.438 0.17,-6.657 -4.607,-19.971 -22.011,-29.53 -38.392,-25.092 l -11.432,3.072 c -2.901,0.854 -4.607,3.756 -3.924,6.658 0,0 36.003,135.361 41.975,160.453 0.682,2.56 2.047,5.121 3.924,6.998 l 38.222,38.236 c 2.9,2.902 7.507,2.902 10.408,0 z M 509.803,250.88 483.355,224.422 c -2.901,-2.902 -7.508,-2.902 -10.409,0 L 363.231,334.179 c -2.048,2.048 -4.437,3.926 -7.167,5.291 -16.722,8.023 -34.467,4.609 -46.07,-6.998 l -8.361,-8.364 c -5.802,-5.804 -13.309,-8.876 -21.158,-8.876 -6.143,0 -12.286,1.877 -18.087,5.803 -5.461,3.756 -9.214,9.73 -10.921,16.046 l -3.071,11.607 c -0.341,1.536 -0.341,3.072 0.341,4.267 0.683,1.366 1.877,2.39 3.413,2.731 l 124.902,33.457 c 2.559,0.682 5.289,0 7.166,-1.878 L 509.973,261.463 c 2.73,-3.073 2.73,-7.852 -0.17,-10.583 z m -375.389,59.402 c -4.265,-16.046 1.707,-33.286 17.234,-43.698 2.389,-1.537 5.119,-2.561 7.849,-3.414 l 14.504,-3.926 c 6.654,-1.707 12.627,-5.633 16.38,-11.266 8.703,-13.144 6.826,-28.677 -3.242,-38.919 l -8.361,-8.364 c -2.047,-2.048 -5.63,-2.048 -7.678,0 0,0 -86.8511,86.884 -109.3744,109.416 -2.9007,2.902 -2.9007,7.51 0,10.412 l 83.6094,83.982 c 5.289,5.292 14.333,0.171 12.456,-7.169 z"
           id="path142" />
        <path
           style="fill:#f35890"
           d="m 256.074,293.04 c 20.45,0 37.027,-16.584 37.027,-37.041 0,-20.457 -16.577,-37.041 -37.027,-37.041 -20.449,0 -37.027,16.584 -37.027,37.041 0,20.457 16.578,37.041 37.027,37.041 z"
           id="path144" />
      </g>
    </g>
    <g
       transform="matrix(-0.00829856,0,0,-0.00829856,2995.2752,279.97573)"
       id="g160"
       style="display:inline;opacity:1">
      <path
         transform="matrix(-125.92709,0,0,-125.92709,-45537.868,-14063.387)"
         style="display:inline;opacity:1;fill:#0e0333;fill-opacity:1"
         d="M 64,128 C 99.3131,128 128,99.3759 128,64.0404 127.919,28.6241 99.3131,0 64,0 28.6061,0 0,28.6241 0,63.9596 0,99.295 28.6061,128 64,128 Z"
         id="path150" />
      <g
         style="display:inline;opacity:1;fill:none"
         id="g158"
         transform="matrix(-22.912811,0,0,-22.912811,-47968.942,-16478.068)">
        <path
           id="path152"
           d="m 355.382,115.859 c -1.877,-7.34 6.996,-12.461 12.456,-7.169 l 81.391,81.421 c 2.901,2.902 2.901,7.511 0,10.413 L 342.755,307.208 c -2.901,2.902 -7.508,2.902 -10.408,0 l -6.996,-6.998 c -10.068,-10.071 -11.945,-25.775 -3.242,-38.919 3.754,-5.633 9.726,-9.559 16.38,-11.266 l 14.504,-3.926 c 2.73,-0.682 5.46,-1.707 7.849,-3.413 15.357,-10.413 21.329,-27.653 17.063,-43.528 z M 169.565,83.4271 c -4.096,4.0967 -2.219,10.9245 3.242,12.4608 l 95.894,25.7751 c 10.067,2.731 18.428,9.217 23.718,18.264 5.119,8.876 6.484,19.801 3.754,30.042 l -4.266,15.875 c -0.512,2.219 -0.683,4.438 -0.171,6.657 4.607,19.972 22.012,29.53 38.392,25.092 l 11.433,-3.072 c 2.9,-0.854 4.607,-3.755 3.924,-6.657 0,0 -36.003,-135.3613 -41.975,-160.4535 -0.683,-2.5604 -2.048,-5.1208 -3.925,-6.9985 L 261.364,2.17636 c -2.901,-2.901813 -7.508,-2.901813 -10.408,0 z M 27.2583,286.213 c 2.9007,2.902 7.5078,2.902 10.4085,0 22.5233,-22.361 109.5452,-109.245 109.5452,-109.245 11.773,-11.778 29.519,-15.021 46.241,-6.999 2.559,1.195 4.948,3.073 6.996,5.292 l 13.821,13.826 c 1.536,1.537 3.583,2.902 5.631,3.585 19.622,5.974 36.515,-4.267 40.951,-20.654 l 3.072,-11.266 c 0.341,-1.536 0.341,-3.073 -0.342,-4.267 -0.682,-1.366 -1.877,-2.39 -3.412,-2.732 L 137.315,120.809 c -2.559,-0.682 -5.289,0 -7.166,1.878 L 2.17555,250.708 c -2.900732,2.902 -2.900732,7.511 0,10.413 z"
           style="fill:#02e2ac" />
        <path
           id="path154"
           d="m 344.461,428.573 c 4.095,-4.096 2.218,-10.924 -3.242,-12.461 l -95.894,-25.774 c -10.068,-2.732 -18.429,-9.218 -23.718,-18.265 -5.119,-8.876 -6.484,-19.8 -3.754,-30.042 l 4.266,-15.875 c 0.512,-2.219 0.682,-4.438 0.17,-6.657 -4.607,-19.971 -22.011,-29.53 -38.392,-25.092 l -11.432,3.072 c -2.901,0.854 -4.607,3.756 -3.924,6.658 0,0 36.003,135.361 41.975,160.453 0.682,2.56 2.047,5.121 3.924,6.998 l 38.222,38.236 c 2.9,2.902 7.507,2.902 10.408,0 z M 509.803,250.88 483.355,224.422 c -2.901,-2.902 -7.508,-2.902 -10.409,0 L 363.231,334.179 c -2.048,2.048 -4.437,3.926 -7.167,5.291 -16.722,8.023 -34.467,4.609 -46.07,-6.998 l -8.361,-8.364 c -5.802,-5.804 -13.309,-8.876 -21.158,-8.876 -6.143,0 -12.286,1.877 -18.087,5.803 -5.461,3.756 -9.214,9.73 -10.921,16.046 l -3.071,11.607 c -0.341,1.536 -0.341,3.072 0.341,4.267 0.683,1.366 1.877,2.39 3.413,2.731 l 124.902,33.457 c 2.559,0.682 5.289,0 7.166,-1.878 L 509.973,261.463 c 2.73,-3.073 2.73,-7.852 -0.17,-10.583 z m -375.389,59.402 c -4.265,-16.046 1.707,-33.286 17.234,-43.698 2.389,-1.537 5.119,-2.561 7.849,-3.414 l 14.504,-3.926 c 6.654,-1.707 12.627,-5.633 16.38,-11.266 8.703,-13.144 6.826,-28.677 -3.242,-38.919 l -8.361,-8.364 c -2.047,-2.048 -5.63,-2.048 -7.678,0 0,0 -86.8511,86.884 -109.3744,109.416 -2.9007,2.902 -2.9007,7.51 0,10.412 l 83.6094,83.982 c 5.289,5.292 14.333,0.171 12.456,-7.169 z"
           style="fill:#6f3ff5" />
        <path
           id="path156"
           d="m 256.074,293.04 c 20.45,0 37.027,-16.584 37.027,-37.041 0,-20.457 -16.577,-37.041 -37.027,-37.041 -20.449,0 -37.027,16.584 -37.027,37.041 0,20.457 16.578,37.041 37.027,37.041 z"
           style="fill:#f35890" />
      </g>
    </g>
    <g
       style="display:inline;opacity:1"
       id="g172"
       transform="matrix(-0.01129408,0,0,-0.01129408,3332.0229,557.46805)">
      <path
         id="path162"
         d="M 64,128 C 99.3131,128 128,99.3759 128,64.0404 127.919,28.6241 99.3131,0 64,0 28.6061,0 0,28.6241 0,63.9596 0,99.295 28.6061,128 64,128 Z"
         style="display:inline;opacity:1;fill:#0e0333;fill-opacity:1"
         transform="matrix(-125.92709,0,0,-125.92709,-45537.868,-14063.387)" />
      <g
         transform="matrix(-22.912811,0,0,-22.912811,-47968.942,-16478.068)"
         id="g170"
         style="display:inline;opacity:1;fill:none">
        <path
           style="fill:#02e2ac"
           d="m 355.382,115.859 c -1.877,-7.34 6.996,-12.461 12.456,-7.169 l 81.391,81.421 c 2.901,2.902 2.901,7.511 0,10.413 L 342.755,307.208 c -2.901,2.902 -7.508,2.902 -10.408,0 l -6.996,-6.998 c -10.068,-10.071 -11.945,-25.775 -3.242,-38.919 3.754,-5.633 9.726,-9.559 16.38,-11.266 l 14.504,-3.926 c 2.73,-0.682 5.46,-1.707 7.849,-3.413 15.357,-10.413 21.329,-27.653 17.063,-43.528 z M 169.565,83.4271 c -4.096,4.0967 -2.219,10.9245 3.242,12.4608 l 95.894,25.7751 c 10.067,2.731 18.428,9.217 23.718,18.264 5.119,8.876 6.484,19.801 3.754,30.042 l -4.266,15.875 c -0.512,2.219 -0.683,4.438 -0.171,6.657 4.607,19.972 22.012,29.53 38.392,25.092 l 11.433,-3.072 c 2.9,-0.854 4.607,-3.755 3.924,-6.657 0,0 -36.003,-135.3613 -41.975,-160.4535 -0.683,-2.5604 -2.048,-5.1208 -3.925,-6.9985 L 261.364,2.17636 c -2.901,-2.901813 -7.508,-2.901813 -10.408,0 z M 27.2583,286.213 c 2.9007,2.902 7.5078,2.902 10.4085,0 22.5233,-22.361 109.5452,-109.245 109.5452,-109.245 11.773,-11.778 29.519,-15.021 46.241,-6.999 2.559,1.195 4.948,3.073 6.996,5.292 l 13.821,13.826 c 1.536,1.537 3.583,2.902 5.631,3.585 19.622,5.974 36.515,-4.267 40.951,-20.654 l 3.072,-11.266 c 0.341,-1.536 0.341,-3.073 -0.342,-4.267 -0.682,-1.366 -1.877,-2.39 -3.412,-2.732 L 137.315,120.809 c -2.559,-0.682 -5.289,0 -7.166,1.878 L 2.17555,250.708 c -2.900732,2.902 -2.900732,7.511 0,10.413 z"
           id="path164" />
        <path
           style="fill:#6f3ff5"
           d="m 344.461,428.573 c 4.095,-4.096 2.218,-10.924 -3.242,-12.461 l -95.894,-25.774 c -10.068,-2.732 -18.429,-9.218 -23.718,-18.265 -5.119,-8.876 -6.484,-19.8 -3.754,-30.042 l 4.266,-15.875 c 0.512,-2.219 0.682,-4.438 0.17,-6.657 -4.607,-19.971 -22.011,-29.53 -38.392,-25.092 l -11.432,3.072 c -2.901,0.854 -4.607,3.756 -3.924,6.658 0,0 36.003,135.361 41.975,160.453 0.682,2.56 2.047,5.121 3.924,6.998 l 38.222,38.236 c 2.9,2.902 7.507,2.902 10.408,0 z M 509.803,250.88 483.355,224.422 c -2.901,-2.902 -7.508,-2.902 -10.409,0 L 363.231,334.179 c -2.048,2.048 -4.437,3.926 -7.167,5.291 -16.722,8.023 -34.467,4.609 -46.07,-6.998 l -8.361,-8.364 c -5.802,-5.804 -13.309,-8.876 -21.158,-8.876 -6.143,0 -12.286,1.877 -18.087,5.803 -5.461,3.756 -9.214,9.73 -10.921,16.046 l -3.071,11.607 c -0.341,1.536 -0.341,3.072 0.341,4.267 0.683,1.366 1.877,2.39 3.413,2.731 l 124.902,33.457 c 2.559,0.682 5.289,0 7.166,-1.878 L 509.973,261.463 c 2.73,-3.073 2.73,-7.852 -0.17,-10.583 z m -375.389,59.402 c -4.265,-16.046 1.707,-33.286 17.234,-43.698 2.389,-1.537 5.119,-2.561 7.849,-3.414 l 14.504,-3.926 c 6.654,-1.707 12.627,-5.633 16.38,-11.266 8.703,-13.144 6.826,-28.677 -3.242,-38.919 l -8.361,-8.364 c -2.047,-2.048 -5.63,-2.048 -7.678,0 0,0 -86.8511,86.884 -109.3744,109.416 -2.9007,2.902 -2.9007,7.51 0,10.412 l 83.6094,83.982 c 5.289,5.292 14.333,0.171 12.456,-7.169 z"
           id="path166" />
        <path
           style="fill:#f35890"
           d="m 256.074,293.04 c 20.45,0 37.027,-16.584 37.027,-37.041 0,-20.457 -16.577,-37.041 -37.027,-37.041 -20.449,0 -37.027,16.584 -37.027,37.041 0,20.457 16.578,37.041 37.027,37.041 z"
           id="path168" />
      </g>
    </g>
    <g
       style="display:inline;opacity:1"
       id="g184"
       transform="matrix(-0.00590212,0,0,-0.00590212,3553.4433,212.28115)">
      <path
         id="path174"
         d="M 64,128 C 99.3131,128 128,99.3759 128,64.0404 127.919,28.6241 99.3131,0 64,0 28.6061,0 0,28.6241 0,63.9596 0,99.295 28.6061,128 64,128 Z"
         style="display:inline;opacity:1;fill:#0e0333;fill-opacity:1"
         transform="matrix(-125.92709,0,0,-125.92709,-52900.554,-60693.731)" />
      <path
         transform="matrix(-107.84999,0,0,-107.84999,-26448.449,-5964.8457)"
         style="display:inline;opacity:1;fill:#0e0333;fill-opacity:1"
         d="M 64,128 C 99.3131,128 128,99.3759 128,64.0404 127.919,28.6241 99.3131,0 64,0 28.6061,0 0,28.6241 0,63.9596 0,99.295 28.6061,128 64,128 Z"
         id="path712" />
      <path
         id="path714"
         d="M 64,128 C 99.3131,128 128,99.3759 128,64.0404 127.919,28.6241 99.3131,0 64,0 28.6061,0 0,28.6241 0,63.9596 0,99.295 28.6061,128 64,128 Z"
         style="display:inline;opacity:1;fill:#0e0333;fill-opacity:1"
         transform="matrix(-62.657237,0,0,-62.657237,-47273.269,7918.3678)" />
      <path
         transform="matrix(-116.88854,0,0,-116.88854,46293.806,-47903.72)"
         style="display:inline;opacity:1;fill:#0e0333;fill-opacity:1"
         d="M 64,128 C 99.3131,128 128,99.3759 128,64.0404 127.919,28.6241 99.3131,0 64,0 28.6061,0 0,28.6241 0,63.9596 0,99.295 28.6061,128 64,128 Z"
         id="path716" />
      <path
         transform="matrix(-62.657237,0,0,-62.657237,21853.566,-10303.35)"
         style="display:inline;opacity:1;fill:#0e0333;fill-opacity:1"
         d="M 64,128 C 99.3131,128 128,99.3759 128,64.0404 127.919,28.6241 99.3131,0 64,0 28.6061,0 0,28.6241 0,63.9596 0,99.295 28.6061,128 64,128 Z"
         id="path718" />
    </g>
    <g
       style="display:inline;opacity:1"
       id="g730"
       transform="matrix(-0.00829856,0,0,-0.00829856,3417.7592,219.62079)">
      <path
         id="path720"
         d="M 64,128 C 99.3131,128 128,99.3759 128,64.0404 127.919,28.6241 99.3131,0 64,0 28.6061,0 0,28.6241 0,63.9596 0,99.295 28.6061,128 64,128 Z"
         style="display:inline;opacity:1;fill:#0e0333;fill-opacity:1"
         transform="matrix(-125.92709,0,0,-125.92709,-45537.868,-14063.387)" />
      <g
         transform="matrix(-22.912811,0,0,-22.912811,-47968.942,-16478.068)"
         id="g728"
         style="display:inline;opacity:1;fill:none">
        <path
           style="fill:#02e2ac"
           d="m 355.382,115.859 c -1.877,-7.34 6.996,-12.461 12.456,-7.169 l 81.391,81.421 c 2.901,2.902 2.901,7.511 0,10.413 L 342.755,307.208 c -2.901,2.902 -7.508,2.902 -10.408,0 l -6.996,-6.998 c -10.068,-10.071 -11.945,-25.775 -3.242,-38.919 3.754,-5.633 9.726,-9.559 16.38,-11.266 l 14.504,-3.926 c 2.73,-0.682 5.46,-1.707 7.849,-3.413 15.357,-10.413 21.329,-27.653 17.063,-43.528 z M 169.565,83.4271 c -4.096,4.0967 -2.219,10.9245 3.242,12.4608 l 95.894,25.7751 c 10.067,2.731 18.428,9.217 23.718,18.264 5.119,8.876 6.484,19.801 3.754,30.042 l -4.266,15.875 c -0.512,2.219 -0.683,4.438 -0.171,6.657 4.607,19.972 22.012,29.53 38.392,25.092 l 11.433,-3.072 c 2.9,-0.854 4.607,-3.755 3.924,-6.657 0,0 -36.003,-135.3613 -41.975,-160.4535 -0.683,-2.5604 -2.048,-5.1208 -3.925,-6.9985 L 261.364,2.17636 c -2.901,-2.901813 -7.508,-2.901813 -10.408,0 z M 27.2583,286.213 c 2.9007,2.902 7.5078,2.902 10.4085,0 22.5233,-22.361 109.5452,-109.245 109.5452,-109.245 11.773,-11.778 29.519,-15.021 46.241,-6.999 2.559,1.195 4.948,3.073 6.996,5.292 l 13.821,13.826 c 1.536,1.537 3.583,2.902 5.631,3.585 19.622,5.974 36.515,-4.267 40.951,-20.654 l 3.072,-11.266 c 0.341,-1.536 0.341,-3.073 -0.342,-4.267 -0.682,-1.366 -1.877,-2.39 -3.412,-2.732 L 137.315,120.809 c -2.559,-0.682 -5.289,0 -7.166,1.878 L 2.17555,250.708 c -2.900732,2.902 -2.900732,7.511 0,10.413 z"
           id="path722" />
        <path
           style="fill:#6f3ff5"
           d="m 344.461,428.573 c 4.095,-4.096 2.218,-10.924 -3.242,-12.461 l -95.894,-25.774 c -10.068,-2.732 -18.429,-9.218 -23.718,-18.265 -5.119,-8.876 -6.484,-19.8 -3.754,-30.042 l 4.266,-15.875 c 0.512,-2.219 0.682,-4.438 0.17,-6.657 -4.607,-19.971 -22.011,-29.53 -38.392,-25.092 l -11.432,3.072 c -2.901,0.854 -4.607,3.756 -3.924,6.658 0,0 36.003,135.361 41.975,160.453 0.682,2.56 2.047,5.121 3.924,6.998 l 38.222,38.236 c 2.9,2.902 7.507,2.902 10.408,0 z M 509.803,250.88 483.355,224.422 c -2.901,-2.902 -7.508,-2.902 -10.409,0 L 363.231,334.179 c -2.048,2.048 -4.437,3.926 -7.167,5.291 -16.722,8.023 -34.467,4.609 -46.07,-6.998 l -8.361,-8.364 c -5.802,-5.804 -13.309,-8.876 -21.158,-8.876 -6.143,0 -12.286,1.877 -18.087,5.803 -5.461,3.756 -9.214,9.73 -10.921,16.046 l -3.071,11.607 c -0.341,1.536 -0.341,3.072 0.341,4.267 0.683,1.366 1.877,2.39 3.413,2.731 l 124.902,33.457 c 2.559,0.682 5.289,0 7.166,-1.878 L 509.973,261.463 c 2.73,-3.073 2.73,-7.852 -0.17,-10.583 z m -375.389,59.402 c -4.265,-16.046 1.707,-33.286 17.234,-43.698 2.389,-1.537 5.119,-2.561 7.849,-3.414 l 14.504,-3.926 c 6.654,-1.707 12.627,-5.633 16.38,-11.266 8.703,-13.144 6.826,-28.677 -3.242,-38.919 l -8.361,-8.364 c -2.047,-2.048 -5.63,-2.048 -7.678,0 0,0 -86.8511,86.884 -109.3744,109.416 -2.9007,2.902 -2.9007,7.51 0,10.412 l 83.6094,83.982 c 5.289,5.292 14.333,0.171 12.456,-7.169 z"
           id="path724" />
        <path
           style="fill:#f35890"
           d="m 256.074,293.04 c 20.45,0 37.027,-16.584 37.027,-37.041 0,-20.457 -16.577,-37.041 -37.027,-37.041 -20.449,0 -37.027,16.584 -37.027,37.041 0,20.457 16.578,37.041 37.027,37.041 z"
           id="path726" />
      </g>
    </g>
    <g
       style="display:inline;opacity:1;fill:none"
       id="g738"
       transform="matrix(1.3243776,0,0,1.277703,2059.1052,558.15606)">
      <g
         id="g736"
         clip-path="url(#clip0)"
         transform="translate(-395.37142,-95.162537)">
        <path
           id="path732"
           d="M 64,128 C 99.3131,128 128,99.3759 128,64.0404 127.919,28.6241 99.3131,0 64,0 28.6061,0 0,28.6241 0,63.9596 0,99.295 28.6061,128 64,128 Z"
           style="fill:#02e2ac"
           transform="matrix(0.61548419,0,0,0.61548419,24.609012,24.609012)" />
      </g>
    </g>
    <g
       transform="matrix(0.72846673,0,0,0.70279366,1606.111,370.47459)"
       id="g748"
       style="display:inline;opacity:1;fill:none">
      <g
         transform="translate(-395.37142,-95.162537)"
         clip-path="url(#clip0)"
         id="g746">
        <path
           transform="matrix(0.61548419,0,0,0.61548419,24.609012,24.609012)"
           style="fill:#02e2ac"
           d="M 64,128 C 99.3131,128 128,99.3759 128,64.0404 127.919,28.6241 99.3131,0 64,0 28.6061,0 0,28.6241 0,63.9596 0,99.295 28.6061,128 64,128 Z"
           id="path744" />
      </g>
    </g>
    <g
       style="display:inline;opacity:1;fill:none"
       id="g754"
       transform="matrix(0.4305102,0,0,0.4153379,1706.1987,298.26118)">
      <g
         id="g752"
         clip-path="url(#clip0)"
         transform="translate(-395.37142,-95.162537)">
        <path
           id="path750"
           d="M 64,128 C 99.3131,128 128,99.3759 128,64.0404 127.919,28.6241 99.3131,0 64,0 28.6061,0 0,28.6241 0,63.9596 0,99.295 28.6061,128 64,128 Z"
           style="fill:#02e2ac"
           transform="matrix(0.61548419,0,0,0.61548419,24.609012,24.609012)" />
      </g>
    </g>
    <g
       style="display:inline;opacity:1;fill:none"
       id="g762"
       transform="matrix(0.61442458,0,0,0.59277061,1467.8295,435.36141)">
      <g
         id="g760"
         clip-path="url(#clip0)"
         transform="translate(-395.37142,-95.162537)">
        <path
           id="path756"
           d="M 64,128 C 99.3131,128 128,99.3759 128,64.0404 127.919,28.6241 99.3131,0 64,0 28.6061,0 0,28.6241 0,63.9596 0,99.295 28.6061,128 64,128 Z"
           style="fill:#02e2ac" />
        <path
           id="path758"
           d="m 89.3096,85.2494 -4.4354,-3.3971 c 3.2883,-4.7098 5.1237,-10.346 5.1237,-15.9822 0.0764,-6.0995 -1.9118,-12.1218 -5.659,-16.9859 l 4.9707,-4.7097 c 0.6118,-0.5405 0.6118,-1.467 0.0765,-2.0847 L 88.1625,40.8545 C 81.9682,34.5234 73.5563,30.8174 64.7619,30.5085 v -5.1729 c 0.0765,-3.0112 -4.5884,-3.0112 -4.5884,0 v 5.3274 c -2.0647,0.1544 -4.1295,0.6176 -6.1178,1.1581 v -6.5627 c 0.0765,-3.0112 -4.5883,-3.0112 -4.5883,0 v 8.2613 h -0.0765 c -7.0355,3.3199 -13.0004,8.9562 -16.5181,16.1366 -3.5942,7.026 -4.7413,15.2101 -3.2119,23.0081 1.606,7.7981 5.7355,14.8241 11.7768,19.9971 6.0414,5.0957 13.6886,7.9525 21.5653,8.1845 L 88.4684,101 c 0.7647,0 1.3765,-0.618 1.3765,-1.3898 v -12.971 c 0,-0.6949 -0.1529,-1.1581 -0.5353,-1.3898 z m -17.0534,-25.17 7.2649,-6.6399 c 4.9707,7.026 5.1237,17.1403 0.0765,24.3207 l -7.7238,-5.9451 c 1.3001,-1.6985 1.9883,-3.6288 2.0648,-5.7906 -0.0765,-2.0846 -0.5353,-4.0921 -1.6824,-5.9451 z m 11.318,33.8174 c 0,0.386 -0.3059,0.6949 -0.6883,0.6949 L 63.5383,94.5145 C 57.2676,94.4373 51.1498,92.3526 46.179,88.5694 41.2083,84.709 37.6141,79.2272 36.0846,73.1277 32.7198,60.8515 38.4553,46.954 49.4674,40.7773 l 0.2294,-0.0772 V 50.66 c -0.0765,3.0111 4.5883,3.0111 4.5883,0 V 38.461 c 8.7944,-3.0883 19.1947,-1.5442 26.5361,4.2465 0.3823,0.2316 0.3823,0.7721 0.0764,1.0809 L 67.4384,56.1418 c -2.6,-1.0809 -5.5825,-1.0809 -8.1061,0.1544 -4.053,1.853 -6.6531,6.4083 -5.8884,10.8864 0.153,1.467 0.6883,2.8567 1.453,4.0921 0.7647,1.3125 1.8354,2.3162 3.0589,3.1655 2.4471,1.6214 5.5825,2.0847 8.412,1.2354 l 16.9769,13.0482 c 0.153,0.1544 0.2295,0.3861 0.2295,0.6177 z M 67.6679,65.7157 c 0,0.772 -0.2295,1.6213 -0.6883,2.239 -0.4588,0.6949 -1.0706,1.1581 -1.8353,1.5442 -0.7648,0.3088 -1.606,0.386 -2.2942,0.1544 -0.7647,-0.1544 -1.453,-0.5405 -2.0648,-1.0809 -0.5353,-0.5405 -0.9177,-1.3126 -1.0706,-2.0847 -0.1529,-0.772 -0.0765,-1.6213 0.2294,-2.3162 0.3059,-0.7721 0.8412,-1.3126 1.453,-1.853 1.6059,-1.0809 3.7472,-0.8493 5.1237,0.5404 0.6882,0.6949 1.1471,1.7758 1.1471,2.8568 z"
           style="clip-rule:evenodd;fill:#0e0333;fill-rule:evenodd"
           transform="matrix(1.0274055,0,0,1.0274055,-2.905199,-1.802054)" />
      </g>
    </g>
  </g>
  <g
     id="text1001"
     style="font-style:normal;font-variant:normal;font-weight:bold;font-stretch:normal;font-size:26.55472755px;line-height:1.25;font-family:'League Spartan';-inkscape-font-specification:'League Spartan, Bold';font-variant-ligatures:normal;font-variant-caps:normal;font-variant-numeric:normal;font-feature-settings:normal;text-align:start;letter-spacing:0px;word-spacing:0px;writing-mode:lr-tb;text-anchor:start;fill:#003bb5;fill-opacity:1;stroke:none"
     transform="matrix(12.570974,0,0,12.570974,-2024.1824,-10525.135)"
     aria-label="eth got superpowers">
    <path
       id="path153"
       d="m 230.33565,1164.3692 c 0.0266,-0.1593 0.0266,-0.4514 0.0266,-0.6373 0,-4.7799 -3.16002,-7.2229 -7.30255,-7.2229 -4.11599,0 -7.48844,3.2397 -7.48844,7.2229 0,3.9567 3.37245,7.1963 7.48844,7.1963 3.02724,0 5.52338,-0.9825 7.06355,-3.5583 l -3.399,-1.6995 c -1.14185,1.2215 -1.80572,1.5136 -3.31934,1.5136 -1.19496,0 -2.94758,-0.717 -2.94758,-2.8148 z m -9.74558,-2.6024 c 0.0797,-1.248 0.98252,-2.204 2.60236,-2.204 1.38085,0 2.36337,0.7701 2.57581,2.204 z" />
    <path
       id="path155"
       d="m 233.23006,1156.9073 h -1.96505 v 3.5849 h 1.96505 v 5.2313 c 0,2.4165 0.90286,5.2047 4.64707,5.2047 1.9385,0 3.45212,-0.8497 3.45212,-0.8497 l -1.16841,-3.7973 c 0,0 -0.55765,0.4248 -1.16841,0.4248 -0.74353,0 -1.06219,-0.6107 -1.06219,-1.8854 v -4.3284 h 2.86791 v -3.5849 h -2.86791 v -5.0719 h -4.70018 z" />
    <path
       id="path157"
       d="m 242.92249,1170.5299 h 4.70019 v -7.7009 c 0,-1.3543 1.38084,-2.6554 2.78825,-2.6554 1.51361,0 2.44303,1.3011 2.44303,2.6554 v 7.7009 h 4.70019 v -8.9755 c 0,-3.7973 -3.47867,-5.0454 -5.97482,-5.0454 -1.48706,0 -2.84135,0.7701 -3.90354,1.8323 h -0.0531 v -10.6485 h -4.70019 z" />
    <path
       id="path159"
       d="m 267.1138,1173.8758 c 1.43396,3.3193 4.70019,3.9567 7.54154,3.9567 4.64708,0 8.01953,-2.3634 8.01953,-6.9308 v -13.9944 h -4.70019 v 1.2215 h -0.0797 c -1.1153,-1.0356 -2.57581,-1.6198 -4.38153,-1.6198 -3.98321,0 -6.77146,3.2397 -6.77146,7.2229 0,3.9832 2.78825,7.1963 6.77146,7.1963 1.85883,0 3.45211,-0.2655 4.46119,-1.3808 v 1.0091 c 0,2.4164 -2.01816,3.1865 -3.31934,3.1865 -2.04471,0 -3.18656,-0.9294 -3.6911,-1.7526 z m 4.62052,-10.1439 c 0,-1.8854 1.4074,-3.2131 3.18657,-3.2131 1.75261,0 3.16001,1.3277 3.16001,3.2131 0,1.8588 -1.32773,3.1866 -3.16001,3.1866 -1.91194,0 -3.18657,-1.3278 -3.18657,-3.1866 z" />
    <path
       id="path161"
       d="m 284.74607,1163.7319 c 0,4.1956 3.29279,7.1963 8.20541,7.1963 4.70019,0 8.12575,-3.0007 8.12575,-7.1963 0,-4.2488 -3.61144,-7.2229 -8.12575,-7.2229 -4.59396,0 -8.20541,2.9741 -8.20541,7.2229 z m 4.99229,0 c 0,-1.8854 1.4074,-3.2131 3.18657,-3.2131 1.75261,0 3.16001,1.3277 3.16001,3.2131 0,1.8588 -1.32773,3.1866 -3.16001,3.1866 -1.91194,0 -3.18657,-1.3278 -3.18657,-3.1866 z" />
    <path
       id="path163"
       d="m 303.94509,1156.9073 h -1.96505 v 3.5849 h 1.96505 v 5.2313 c 0,2.4165 0.90286,5.2047 4.64708,5.2047 1.9385,0 3.45212,-0.8497 3.45212,-0.8497 l -1.16841,-3.7973 c 0,0 -0.55765,0.4248 -1.16841,0.4248 -0.74353,0 -1.06219,-0.6107 -1.06219,-1.8854 v -4.3284 h 2.86791 v -3.5849 h -2.86791 v -5.0719 h -4.70019 z" />
    <path
       id="path165"
       d="m 326.80864,1156.509 c -3.58488,0 -5.94826,1.5933 -5.94826,4.3815 0,2.0448 1.38085,3.0007 2.7617,3.7177 1.54017,0.7966 3.02723,0.8763 3.02723,1.8588 0,0.9029 -0.79664,0.9826 -1.46051,0.9826 -1.51361,0 -3.37245,-1.5668 -3.37245,-1.5668 l -1.91194,3.2132 c 0,0 1.96505,1.8322 5.25784,1.8322 2.78825,0 6.4528,-0.6373 6.4528,-4.647 0,-2.7883 -2.33682,-3.7974 -4.14254,-4.355 -1.16841,-0.3718 -2.12438,-0.5842 -2.12438,-1.3012 0,-0.6373 0.42488,-0.8232 1.46051,-0.8232 1.43396,0 3.02724,0.8497 3.02724,0.8497 l 1.54018,-3.0803 c 0,0 -1.9385,-1.0622 -4.56742,-1.0622 z" />
    <path
       id="path167"
       d="m 338.38647,1156.9073 h -4.70018 v 7.6212 c 0,4.5675 2.2837,6.3997 7.38221,6.3997 5.09851,0 7.38222,-1.8322 7.38222,-6.3997 v -7.6212 h -4.70019 v 6.4794 c 0,2.682 -0.71698,3.7176 -2.68203,3.7176 -1.96505,0 -2.68203,-1.0356 -2.68203,-3.7176 z" />
    <path
       id="path169"
       d="m 367.30452,1163.7053 c 0,-3.9832 -2.78825,-7.1963 -6.77146,-7.1963 -1.85883,0 -3.45211,0.8232 -4.46119,1.9385 h -0.0531 v -1.5402 h -4.64708 v 20.5268 h 4.70019 v -8.2054 c 1.1153,1.0888 2.62892,1.6995 4.46119,1.6995 3.98321,0 6.77146,-3.2396 6.77146,-7.2229 z m -4.99229,0 c 0,1.8854 -1.4074,3.2132 -3.18657,3.2132 -1.75261,0 -3.16001,-1.3278 -3.16001,-3.2132 0,-1.8588 1.32773,-3.1865 3.16001,-3.1865 1.91194,0 3.18657,1.3277 3.18657,3.1865 z" />
    <path
       id="path171"
       d="m 383.29044,1164.3692 c 0.0265,-0.1593 0.0265,-0.4514 0.0265,-0.6373 0,-4.7799 -3.16001,-7.2229 -7.30255,-7.2229 -4.11598,0 -7.48843,3.2397 -7.48843,7.2229 0,3.9567 3.37245,7.1963 7.48843,7.1963 3.02724,0 5.52339,-0.9825 7.06356,-3.5583 l -3.399,-1.6995 c -1.14186,1.2215 -1.80572,1.5136 -3.31934,1.5136 -1.19497,0 -2.94758,-0.717 -2.94758,-2.8148 z m -9.74559,-2.6024 c 0.0797,-1.248 0.98253,-2.204 2.60237,-2.204 1.38084,0 2.36337,0.7701 2.57581,2.204 z" />
    <path
       id="path173"
       d="m 385.46787,1170.5299 h 4.70019 v -7.1698 c 0,-0.3452 0.34521,-2.7617 2.78824,-2.7617 1.56673,0 2.44304,0.7436 2.44304,0.7436 l 1.96505,-3.9832 c 0,0 -1.22152,-0.8498 -2.97413,-0.8498 -2.68203,0 -4.16909,2.3634 -4.16909,2.3634 h -0.0531 v -1.9651 h -4.70019 z" />
    <path
       id="path175"
       d="m 414.62494,1163.7053 c 0,-3.9832 -2.78825,-7.1963 -6.77146,-7.1963 -1.85883,0 -3.45211,0.8232 -4.46119,1.9385 h -0.0531 v -1.5402 h -4.64708 v 20.5268 h 4.70019 v -8.2054 c 1.11529,1.0888 2.62891,1.6995 4.46119,1.6995 3.98321,0 6.77146,-3.2396 6.77146,-7.2229 z m -4.99229,0 c 0,1.8854 -1.4074,3.2132 -3.18657,3.2132 -1.75261,0 -3.16001,-1.3278 -3.16001,-3.2132 0,-1.8588 1.32773,-3.1865 3.16001,-3.1865 1.91194,0 3.18657,1.3277 3.18657,3.1865 z" />
    <path
       id="path177"
       d="m 415.84642,1163.7319 c 0,4.1956 3.29278,7.1963 8.20541,7.1963 4.70018,0 8.12574,-3.0007 8.12574,-7.1963 0,-4.2488 -3.61144,-7.2229 -8.12574,-7.2229 -4.59397,0 -8.20541,2.9741 -8.20541,7.2229 z m 4.99228,0 c 0,-1.8854 1.4074,-3.2131 3.18657,-3.2131 1.75261,0 3.16001,1.3277 3.16001,3.2131 0,1.8588 -1.32773,3.1866 -3.16001,3.1866 -1.91194,0 -3.18657,-1.3278 -3.18657,-3.1866 z" />
    <path
       id="path179"
       d="m 442.61354,1170.5299 3.13346,-7.037 3.13346,7.037 h 3.18656 l 7.30255,-13.6226 h -5.41716 l -3.31934,7.3557 -3.26623,-7.3557 h -3.23968 l -3.26623,7.3557 -3.31934,-7.3557 h -5.41717 l 7.30255,13.6226 z" />
    <path
       id="path181"
       d="m 474.13395,1164.3692 c 0.0265,-0.1593 0.0265,-0.4514 0.0265,-0.6373 0,-4.7799 -3.16001,-7.2229 -7.30255,-7.2229 -4.11598,0 -7.48843,3.2397 -7.48843,7.2229 0,3.9567 3.37245,7.1963 7.48843,7.1963 3.02724,0 5.52338,-0.9825 7.06356,-3.5583 l -3.39901,-1.6995 c -1.14185,1.2215 -1.80572,1.5136 -3.31934,1.5136 -1.19496,0 -2.94757,-0.717 -2.94757,-2.8148 z m -9.74559,-2.6024 c 0.0797,-1.248 0.98253,-2.204 2.60236,-2.204 1.38085,0 2.36337,0.7701 2.57581,2.204 z" />
    <path
       id="path183"
       d="m 476.31138,1170.5299 h 4.70018 v -7.1698 c 0,-0.3452 0.34522,-2.7617 2.78825,-2.7617 1.56673,0 2.44304,0.7436 2.44304,0.7436 l 1.96505,-3.9832 c 0,0 -1.22152,-0.8498 -2.97413,-0.8498 -2.68203,0 -4.1691,2.3634 -4.1691,2.3634 h -0.0531 v -1.9651 h -4.70018 z" />
    <path
       id="path185"
       d="m 495.24483,1156.509 c -3.58489,0 -5.94826,1.5933 -5.94826,4.3815 0,2.0448 1.38085,3.0007 2.76169,3.7177 1.54018,0.7966 3.02724,0.8763 3.02724,1.8588 0,0.9029 -0.79664,0.9826 -1.46051,0.9826 -1.51362,0 -3.37245,-1.5668 -3.37245,-1.5668 l -1.91194,3.2132 c 0,0 1.96505,1.8322 5.25784,1.8322 2.78824,0 6.4528,-0.6373 6.4528,-4.647 0,-2.7883 -2.33682,-3.7974 -4.14254,-4.355 -1.16841,-0.3718 -2.12438,-0.5842 -2.12438,-1.3012 0,-0.6373 0.42488,-0.8232 1.46051,-0.8232 1.43396,0 3.02724,0.8497 3.02724,0.8497 l 1.54017,-3.0803 c 0,0 -1.93849,-1.0622 -4.56741,-1.0622 z" />
  </g>
  <g
     id="text16277"
     style="font-style:normal;font-variant:normal;font-weight:bold;font-stretch:normal;font-size:26.55472755px;line-height:1.25;font-family:'League Spartan';-inkscape-font-specification:'League Spartan, Bold';font-variant-ligatures:normal;font-variant-caps:normal;font-variant-numeric:normal;font-feature-settings:normal;text-align:start;letter-spacing:0px;word-spacing:0px;writing-mode:lr-tb;text-anchor:start;fill:#02e2ac;fill-opacity:1;stroke:none"
     transform="matrix(18.344454,0,0,18.344454,-3369.4645,-16645.713)"
     aria-label="#GTC">
    <path
       id="path143"
       d="m 222.76755,1164.7144 h 2.86791 l -1.51361,5.8155 h 3.29278 l 1.51362,-5.8155 h 2.84136 l 0.84975,-3.2131 H 229.778 l 1.00908,-3.877 h 2.70858 l 0.84976,-3.2131 h -2.70859 l 1.51362,-5.7889 h -3.29278 l -1.51362,5.7889 h -2.86791 l 1.51362,-5.7889 h -3.29279 l -1.51362,5.7889 h -2.84136 l -0.84975,3.2131 h 2.84136 l -1.00908,3.877 h -2.70858 l -0.84975,3.2131 h 2.70858 l -1.51362,5.8155 h 3.29278 z m 3.71767,-3.2131 h -2.86791 l 1.00908,-3.877 h 2.86791 z" />
    <path
       id="path145"
       d="m 258.48362,1158.2616 h -10.11735 v 3.8505 h 5.04539 c 0,2.682 -2.36337,4.2222 -4.75329,4.2222 -3.08035,0 -5.57649,-3.0273 -5.57649,-6.7449 0,-3.7974 2.49614,-6.8512 5.57649,-6.8512 1.93849,0 3.61144,0.7701 4.88607,2.8148 l 3.26623,-3.5848 c -1.91194,-2.3103 -4.59397,-3.7443 -8.4444,-3.7443 -6.1607,0 -10.675,5.072 -10.675,11.3655 0,6.2669 4.77985,11.3388 10.675,11.3388 4.30186,0 8.92238,-2.3633 10.11735,-7.9133 z" />
    <path
       id="path147"
       d="m 258.03214,1153.0038 h 5.20473 v 17.5261 h 4.99229 v -17.5261 h 5.20472 v -4.3815 h -15.40174 z" />
    <path
       id="path149"
       d="m 286.04731,1166.0156 c -5.01885,0 -7.22289,-3.5052 -7.22289,-6.4528 0,-2.921 2.20404,-6.4262 7.22289,-6.4262 2.54925,0 4.30186,1.3543 4.30186,1.3543 l 2.12438,-4.2488 c 0,0 -2.44303,-2.0182 -7.19633,-2.0182 -6.21381,0 -11.86996,5.0985 -11.86996,11.392 0,6.2669 5.68271,11.3123 11.86996,11.3123 4.7533,0 7.19633,-2.0181 7.19633,-2.0181 l -2.12438,-4.2488 c 0,0 -1.75261,1.3543 -4.30186,1.3543 z" />
  </g>
  <g
     id="text16281"
     style="font-style:normal;font-variant:normal;font-weight:bold;font-stretch:normal;font-size:26.55472755px;line-height:1.25;font-family:'League Spartan';-inkscape-font-specification:'League Spartan, Bold';font-variant-ligatures:normal;font-variant-caps:normal;font-variant-numeric:normal;font-feature-settings:normal;text-align:start;letter-spacing:0px;word-spacing:0px;writing-mode:lr-tb;text-anchor:start;fill:#f35890;fill-opacity:1;stroke:none"
     transform="matrix(18.344454,0,0,18.344454,-1762.7929,-16642.939)"
     aria-label="#SACKS">
    <path
       id="path129"
       d="m 222.76755,1164.7144 h 2.86791 l -1.51361,5.8155 h 3.29278 l 1.51362,-5.8155 h 2.84136 l 0.84975,-3.2131 H 229.778 l 1.00908,-3.877 h 2.70858 l 0.84976,-3.2131 h -2.70859 l 1.51362,-5.7889 h -3.29278 l -1.51362,5.7889 h -2.86791 l 1.51362,-5.7889 h -3.29279 l -1.51362,5.7889 h -2.84136 l -0.84975,3.2131 h 2.84136 l -1.00908,3.877 h -2.70858 l -0.84975,3.2131 h 2.70858 l -1.51362,5.8155 h 3.29278 z m 3.71767,-3.2131 h -2.86791 l 1.00908,-3.877 h 2.86791 z" />
    <path
       id="path131"
       d="m 246.21532,1148.2239 c -3.53178,0 -7.14322,2.6024 -7.14322,6.6918 0,2.2837 1.54017,4.3284 4.16909,5.6296 2.60236,1.3012 4.93918,2.0182 4.93918,3.6115 0,2.0447 -2.07127,2.1509 -3.16001,2.1509 -2.44304,0 -5.36406,-2.4696 -5.36406,-2.4696 l -2.49614,4.1957 c 0,0 3.1069,2.8944 8.23196,2.8944 4.27532,0 8.25852,-1.8322 8.25852,-7.0635 0,-2.8679 -2.68202,-4.9392 -5.12506,-5.9748 -2.49614,-1.0622 -4.56741,-1.9385 -4.56741,-3.1601 0,-1.1949 0.90286,-1.965 2.60236,-1.965 2.25715,0 4.43464,1.5136 4.43464,1.5136 l 2.01816,-3.9832 c 0,0 -2.8148,-2.0713 -6.79801,-2.0713 z" />
    <path
       id="path133"
       d="m 267.11386,1148.6223 h -4.62052 l -8.84272,21.9076 h 5.36405 l 1.61984,-4.3815 h 8.33819 l 1.61983,4.3815 h 5.36406 z m 0.15933,13.1445 h -4.93918 l 2.44304,-6.3731 h 0.0531 z" />
    <path
       id="path135"
       d="m 287.61404,1166.0156 c -5.01885,0 -7.22289,-3.5052 -7.22289,-6.4528 0,-2.921 2.20404,-6.4262 7.22289,-6.4262 2.54925,0 4.30186,1.3543 4.30186,1.3543 l 2.12438,-4.2488 c 0,0 -2.44303,-2.0182 -7.19633,-2.0182 -6.21381,0 -11.86996,5.0985 -11.86996,11.392 0,6.2669 5.68271,11.3123 11.86996,11.3123 4.7533,0 7.19633,-2.0181 7.19633,-2.0181 l -2.12438,-4.2488 c 0,0 -1.75261,1.3543 -4.30186,1.3543 z" />
    <path
       id="path137"
       d="m 315.89478,1170.5299 -10.19702,-11.5247 8.81617,-10.3829 h -6.05448 l -7.51498,8.9489 v -8.9489 h -4.99229 v 21.9076 h 4.99229 v -9.2941 l 8.07263,9.2941 z" />
    <path
       id="path139"
       d="m 324.39224,1148.2239 c -3.53178,0 -7.14322,2.6024 -7.14322,6.6918 0,2.2837 1.54017,4.3284 4.16909,5.6296 2.60236,1.3012 4.93918,2.0182 4.93918,3.6115 0,2.0447 -2.07127,2.1509 -3.16001,2.1509 -2.44304,0 -5.36406,-2.4696 -5.36406,-2.4696 l -2.49614,4.1957 c 0,0 3.1069,2.8944 8.23196,2.8944 4.27531,0 8.25852,-1.8322 8.25852,-7.0635 0,-2.8679 -2.68202,-4.9392 -5.12506,-5.9748 -2.49614,-1.0622 -4.56741,-1.9385 -4.56741,-3.1601 0,-1.1949 0.90286,-1.965 2.60236,-1.965 2.25715,0 4.43464,1.5136 4.43464,1.5136 l 2.01816,-3.9832 c 0,0 -2.8148,-2.0713 -6.79801,-2.0713 z" />
  </g>
</svg>
