<?xml version="1.0" encoding="UTF-8" standalone="no"?>
<svg
   xmlns:dc="http://purl.org/dc/elements/1.1/"
   xmlns:cc="http://creativecommons.org/ns#"
   xmlns:rdf="http://www.w3.org/1999/02/22-rdf-syntax-ns#"
   xmlns:svg="http://www.w3.org/2000/svg"
   xmlns="http://www.w3.org/2000/svg"
   xmlns:xlink="http://www.w3.org/1999/xlink"
   id="svg1059"
   version="1.1"
   viewBox="0 0 1322.9166 1322.9167"
   height="5000"
   width="5000">
  <defs
     id="defs1053">
    <linearGradient
       id="linearGradient1972">
      <stop
         id="stop1968"
         offset="0"
         style="stop-color:#f35890;stop-opacity:1" />
      <stop
         style="stop-color:#003bb5;stop-opacity:1"
         offset="0.49467808"
         id="stop1976" />
      <stop
         id="stop1970"
         offset="1"
         style="stop-color:#02e2ac;stop-opacity:1" />
    </linearGradient>
    <linearGradient
       gradientUnits="userSpaceOnUse"
       y2="70480.579"
       x2="-95061.081"
       y1="70480.579"
       x1="-95337.588"
       id="linearGradient1974"
       xlink:href="#linearGradient1972" />
    <linearGradient
       y2="70480.579"
       x2="-95061.081"
       y1="70480.579"
       x1="-95337.588"
       gradientUnits="userSpaceOnUse"
       id="linearGradient1990"
       xlink:href="#linearGradient1972" />
  </defs>
  <metadata
     id="metadata1056">
    <rdf:RDF>
      <cc:Work
         rdf:about="">
        <dc:format>image/svg+xml</dc:format>
        <dc:type
           rdf:resource="http://purl.org/dc/dcmitype/StillImage" />
        <dc:title></dc:title>
      </cc:Work>
    </rdf:RDF>
  </metadata>
  <g
     transform="translate(0,1025.9167)"
     id="layer1">
    <text
       transform="matrix(6.05003,0,0,6.05003,-1284.9516,-7060.5557)"
       id="text1001"
       y="1170.5299"
       x="214.96046"
       style="font-style:normal;font-variant:normal;font-weight:bold;font-stretch:normal;font-size:26.55472755px;line-height:1.25;font-family:'League Spartan';-inkscape-font-specification:'League Spartan, Bold';font-variant-ligatures:normal;font-variant-caps:normal;font-variant-numeric:normal;font-feature-settings:normal;text-align:start;letter-spacing:0px;word-spacing:0px;writing-mode:lr-tb;text-anchor:start;fill:#003bb5;fill-opacity:1;stroke:none"
       xml:space="preserve"><tspan
         id="tspan1699"
         y="1193.7653"
         x="214.96046" /></text>
    <flowRoot
       transform="matrix(4.8253243,0,0,4.8253243,-2085.6597,-13920.49)"
       style="font-style:normal;font-weight:normal;font-size:40px;line-height:1.25;font-family:sans-serif;letter-spacing:0px;word-spacing:0px;fill:#000000;fill-opacity:1;stroke:none"
       id="flowRoot1710"
       xml:space="preserve"><flowRegion
         id="flowRegion1712"><rect
           y="2754.3877"
           x="-17.681986"
           height="2280.9763"
           width="5057.0483"
           id="rect1714" /></flowRegion><flowPara
         style="text-align:justify;text-anchor:start"
         id="flowPara1722" /></flowRoot>    <flowRoot
       style="font-style:normal;font-weight:normal;font-size:40px;line-height:1.25;font-family:sans-serif;letter-spacing:0px;word-spacing:0px;fill:#000000;fill-opacity:1;stroke:none"
       id="flowRoot1733"
       xml:space="preserve"><flowRegion
         id="flowRegion1735"><rect
           y="5353.6396"
           x="-14923.597"
           height="4738.7725"
           width="7426.4341"
           id="rect1737" /></flowRegion><flowPara
         id="flowPara1739" /></flowRoot>    <flowRoot
       style="font-style:normal;font-weight:normal;font-size:40px;line-height:1.25;font-family:sans-serif;letter-spacing:0px;word-spacing:0px;fill:#000000;fill-opacity:1;stroke:none"
       id="flowRoot1747"
       xml:space="preserve"><flowRegion
         id="flowRegion1749"><rect
           y="19100"
           x="-26700"
           height="1100"
           width="1500"
           id="rect1751" /></flowRegion><flowPara
         id="flowPara1753" /></flowRoot>    <g
       transform="matrix(0.96998189,0,0,0.96998189,19.855729,-390.76927)"
       id="g1988">
      <g
         transform="matrix(1.1725309,0,0,1.1725309,-133.0219,-189.11672)"
         id="g2076">
        <g
           transform="translate(-2.3045243e-5,-6.1100057)"
           id="g2144">
          <g
             transform="matrix(0.61874839,0,0,0.61874839,258.38067,239.54975)"
             id="g1842">
            <g
               id="text989"
               style="font-style:normal;font-variant:normal;font-weight:bold;font-stretch:normal;font-size:40px;line-height:1.25;font-family:'League Spartan';-inkscape-font-specification:'League Spartan, Bold';font-variant-ligatures:normal;font-variant-caps:normal;font-variant-numeric:normal;font-feature-settings:normal;text-align:start;letter-spacing:0px;word-spacing:0px;writing-mode:lr-tb;text-anchor:start;fill:#02e2ac;fill-opacity:1;stroke:none"
               transform="matrix(7.0448587,0,0,7.0448587,-855.8916,-8611.2571)"
               aria-label="GTC">
              <path
                 id="path83"
                 d="m 247.20046,1152.0499 h -15.24 v 5.8 h 7.6 c 0,4.04 -3.56,6.36 -7.16,6.36 -4.64,0 -8.4,-4.56 -8.4,-10.16 0,-5.72 3.76,-10.32 8.4,-10.32 2.92,0 5.44,1.16 7.36,4.24 l 4.92,-5.4 c -2.88,-3.48 -6.92,-5.64 -12.72,-5.64 -9.28,0 -16.08,7.64 -16.08,17.12 0,9.44 7.2,17.08 16.08,17.08 6.48,0 13.44,-3.56 15.24,-11.92 z" />
              <path
                 id="path85"
                 d="m 246.52039,1144.1299 h 7.84 v 26.4 h 7.52 v -26.4 h 7.84 v -6.6 h -23.2 z" />
              <path
                 id="path87"
                 d="m 288.72028,1163.7299 c -7.56,0 -10.88,-5.28 -10.88,-9.72 0,-4.4 3.32,-9.68 10.88,-9.68 3.84,0 6.48,2.04 6.48,2.04 l 3.2,-6.4 c 0,0 -3.68,-3.04 -10.84,-3.04 -9.36,0 -17.88,7.68 -17.88,17.16 0,9.44 8.56,17.04 17.88,17.04 7.16,0 10.84,-3.04 10.84,-3.04 l -3.2,-6.4 c 0,0 -2.64,2.04 -6.48,2.04 z" />
            </g>
            <g
               id="text1041"
               style="font-style:normal;font-variant:normal;font-weight:bold;font-stretch:normal;font-size:26.55472755px;line-height:1.25;font-family:'League Spartan';-inkscape-font-specification:'League Spartan, Bold';font-variant-ligatures:normal;font-variant-caps:normal;font-variant-numeric:normal;font-feature-settings:normal;text-align:start;letter-spacing:0px;word-spacing:0px;writing-mode:lr-tb;text-anchor:start;fill:#003bb5;fill-opacity:1;stroke:none"
               transform="matrix(10.611866,0,0,10.611866,-2187.6115,-12790.356)"
               aria-label="ETH">
              <path
                 id="path90"
                 d="m 229.08758,1148.6223 h -12.53383 v 21.9076 h 12.53383 v -4.3815 h -7.54154 v -4.4081 h 7.22288 v -4.3815 h -7.22288 v -4.355 h 7.54154 z" />
              <path
                 id="path92"
                 d="m 230.57464,1153.0038 h 5.20473 v 17.5261 h 4.99229 v -17.5261 h 5.20472 v -4.3815 h -15.40174 z" />
              <path
                 id="path94"
                 d="m 252.77436,1161.7403 h 7.06356 v 8.7896 h 4.99229 v -21.9076 h -4.99229 v 8.7365 h -7.06356 v -8.7365 h -4.99229 v 21.9076 h 4.99229 z" />
            </g>
            <g
               style="fill:none"
               id="g1051"
               transform="matrix(3.1377062,0,0,3.1377062,-1499.3802,-3609.6683)">
              <g
                 id="text1045"
                 style="font-style:normal;font-variant:normal;font-weight:bold;font-stretch:normal;font-size:40px;line-height:1.25;font-family:'League Spartan';-inkscape-font-specification:'League Spartan, Bold';font-variant-ligatures:normal;font-variant-caps:normal;font-variant-numeric:normal;font-feature-settings:normal;text-align:start;letter-spacing:0px;word-spacing:0px;writing-mode:lr-tb;text-anchor:start;fill:#f35890;fill-opacity:1;stroke:none"
                 transform="matrix(2.5022047,0,0,2.5022047,-26.50553,-1994.8855)"
                 aria-label="SACKS">
                <path
                   id="path97"
                   d="m 229.52046,1136.9299 c -5.32,0 -10.76,3.92 -10.76,10.08 0,3.44 2.32,6.52 6.28,8.48 3.92,1.96 7.44,3.04 7.44,5.44 0,3.08 -3.12,3.24 -4.76,3.24 -3.68,0 -8.08,-3.72 -8.08,-3.72 l -3.76,6.32 c 0,0 4.68,4.36 12.4,4.36 6.44,0 12.44,-2.76 12.44,-10.64 0,-4.32 -4.04,-7.44 -7.72,-9 -3.76,-1.6 -6.88,-2.92 -6.88,-4.76 0,-1.8 1.36,-2.96 3.92,-2.96 3.4,0 6.68,2.28 6.68,2.28 l 3.04,-6 c 0,0 -4.24,-3.12 -10.24,-3.12 z" />
                <path
                   id="path99"
                   d="m 261.00042,1137.5299 h -6.96 l -13.32,33 h 8.08 l 2.44,-6.6 h 12.56 l 2.44,6.6 h 8.08 z m 0.24,19.8 h -7.44 l 3.68,-9.6 h 0.08 z" />
                <path
                   id="path101"
                   d="m 291.8803,1163.7299 c -7.56,0 -10.88,-5.28 -10.88,-9.72 0,-4.4 3.32,-9.68 10.88,-9.68 3.84,0 6.48,2.04 6.48,2.04 l 3.2,-6.4 c 0,0 -3.68,-3.04 -10.84,-3.04 -9.36,0 -17.88,7.68 -17.88,17.16 0,9.44 8.56,17.04 17.88,17.04 7.16,0 10.84,-3.04 10.84,-3.04 l -3.2,-6.4 c 0,0 -2.64,2.04 -6.48,2.04 z" />
                <path
                   id="path103"
                   d="m 334.48024,1170.5299 -15.36,-17.36 13.28,-15.64 h -9.12 l -11.32,13.48 v -13.48 h -7.52 v 33 h 7.52 v -14 l 12.16,14 z" />
                <path
                   id="path105"
                   d="m 347.28017,1136.9299 c -5.32,0 -10.76,3.92 -10.76,10.08 0,3.44 2.32,6.52 6.28,8.48 3.92,1.96 7.44,3.04 7.44,5.44 0,3.08 -3.12,3.24 -4.76,3.24 -3.68,0 -8.08,-3.72 -8.08,-3.72 l -3.76,6.32 c 0,0 4.68,4.36 12.4,4.36 6.44,0 12.44,-2.76 12.44,-10.64 0,-4.32 -4.04,-7.44 -7.72,-9 -3.76,-1.6 -6.88,-2.92 -6.88,-4.76 0,-1.8 1.36,-2.96 3.92,-2.96 3.4,0 6.68,2.28 6.68,2.28 l 3.04,-6 c 0,0 -4.24,-3.12 -10.24,-3.12 z" />
              </g>
              <path
                 id="path1047"
                 d="m 547.5,836.98108 c -0.49999,37.33232 -1,74.66667 -1.5,112"
                 style="opacity:1;vector-effect:none;fill:#f35890;fill-opacity:1;stroke:#f35890;stroke-width:1.93799996;stroke-linecap:round;stroke-linejoin:round;stroke-miterlimit:4;stroke-dasharray:none;stroke-dashoffset:0;stroke-opacity:1"
                 transform="matrix(8.8992596,0,0,0.23014197,-4330.9958,730.58071)" />
              <path
                 id="path1049"
                 d="m 547.5,836.98108 c -0.49999,37.33232 -1,74.66667 -1.5,112"
                 style="opacity:1;vector-effect:none;fill:#f35890;fill-opacity:1;stroke:#f35890;stroke-width:1.93799996;stroke-linecap:round;stroke-linejoin:round;stroke-miterlimit:4;stroke-dasharray:none;stroke-dashoffset:0;stroke-opacity:1"
                 transform="matrix(8.8992596,0,0,0.23014197,-4016.9958,644.58071)" />
            </g>
            <g
               id="text1661"
               style="font-style:normal;font-variant:normal;font-weight:bold;font-stretch:normal;font-size:40px;line-height:1.25;font-family:'League Spartan';-inkscape-font-specification:'League Spartan, Bold';font-variant-ligatures:normal;font-variant-caps:normal;font-variant-numeric:normal;font-feature-settings:normal;text-align:start;letter-spacing:0px;word-spacing:0px;writing-mode:lr-tb;text-anchor:start;fill:#02e2ac;fill-opacity:1;stroke:none"
               transform="matrix(7.0448587,0,0,7.0448587,-855.8916,-8611.2571)"
               aria-label="GTC">
              <path
                 id="path110"
                 d="m 247.20046,1152.0499 h -15.24 v 5.8 h 7.6 c 0,4.04 -3.56,6.36 -7.16,6.36 -4.64,0 -8.4,-4.56 -8.4,-10.16 0,-5.72 3.76,-10.32 8.4,-10.32 2.92,0 5.44,1.16 7.36,4.24 l 4.92,-5.4 c -2.88,-3.48 -6.92,-5.64 -12.72,-5.64 -9.28,0 -16.08,7.64 -16.08,17.12 0,9.44 7.2,17.08 16.08,17.08 6.48,0 13.44,-3.56 15.24,-11.92 z" />
              <path
                 id="path112"
                 d="m 246.52039,1144.1299 h 7.84 v 26.4 h 7.52 v -26.4 h 7.84 v -6.6 h -23.2 z" />
              <path
                 id="path114"
                 d="m 288.72028,1163.7299 c -7.56,0 -10.88,-5.28 -10.88,-9.72 0,-4.4 3.32,-9.68 10.88,-9.68 3.84,0 6.48,2.04 6.48,2.04 l 3.2,-6.4 c 0,0 -3.68,-3.04 -10.84,-3.04 -9.36,0 -17.88,7.68 -17.88,17.16 0,9.44 8.56,17.04 17.88,17.04 7.16,0 10.84,-3.04 10.84,-3.04 l -3.2,-6.4 c 0,0 -2.64,2.04 -6.48,2.04 z" />
            </g>
            <g
               id="text1665"
               style="font-style:normal;font-variant:normal;font-weight:bold;font-stretch:normal;font-size:26.55472755px;line-height:1.25;font-family:'League Spartan';-inkscape-font-specification:'League Spartan, Bold';font-variant-ligatures:normal;font-variant-caps:normal;font-variant-numeric:normal;font-feature-settings:normal;text-align:start;letter-spacing:0px;word-spacing:0px;writing-mode:lr-tb;text-anchor:start;fill:#003bb5;fill-opacity:1;stroke:none"
               transform="matrix(10.611866,0,0,10.611866,-2187.6115,-12790.356)"
               aria-label="ETH">
              <path
                 id="path117"
                 d="m 229.08758,1148.6223 h -12.53383 v 21.9076 h 12.53383 v -4.3815 h -7.54154 v -4.4081 h 7.22288 v -4.3815 h -7.22288 v -4.355 h 7.54154 z" />
              <path
                 id="path119"
                 d="m 230.57464,1153.0038 h 5.20473 v 17.5261 h 4.99229 v -17.5261 h 5.20472 v -4.3815 h -15.40174 z" />
              <path
                 id="path121"
                 d="m 252.77436,1161.7403 h 7.06356 v 8.7896 h 4.99229 v -21.9076 h -4.99229 v 8.7365 h -7.06356 v -8.7365 h -4.99229 v 21.9076 h 4.99229 z" />
            </g>
            <g
               transform="matrix(3.1377062,0,0,3.1377062,-1499.3802,-3609.6683)"
               id="g1675"
               style="fill:none">
              <g
                 id="text1669"
                 style="font-style:normal;font-variant:normal;font-weight:bold;font-stretch:normal;font-size:40px;line-height:1.25;font-family:'League Spartan';-inkscape-font-specification:'League Spartan, Bold';font-variant-ligatures:normal;font-variant-caps:normal;font-variant-numeric:normal;font-feature-settings:normal;text-align:start;letter-spacing:0px;word-spacing:0px;writing-mode:lr-tb;text-anchor:start;fill:#f35890;fill-opacity:1;stroke:none"
                 transform="matrix(2.5022047,0,0,2.5022047,-26.50553,-1994.8855)"
                 aria-label="SACKS">
                <path
                   id="path124"
                   d="m 229.52046,1136.9299 c -5.32,0 -10.76,3.92 -10.76,10.08 0,3.44 2.32,6.52 6.28,8.48 3.92,1.96 7.44,3.04 7.44,5.44 0,3.08 -3.12,3.24 -4.76,3.24 -3.68,0 -8.08,-3.72 -8.08,-3.72 l -3.76,6.32 c 0,0 4.68,4.36 12.4,4.36 6.44,0 12.44,-2.76 12.44,-10.64 0,-4.32 -4.04,-7.44 -7.72,-9 -3.76,-1.6 -6.88,-2.92 -6.88,-4.76 0,-1.8 1.36,-2.96 3.92,-2.96 3.4,0 6.68,2.28 6.68,2.28 l 3.04,-6 c 0,0 -4.24,-3.12 -10.24,-3.12 z" />
                <path
                   id="path126"
                   d="m 261.00042,1137.5299 h -6.96 l -13.32,33 h 8.08 l 2.44,-6.6 h 12.56 l 2.44,6.6 h 8.08 z m 0.24,19.8 h -7.44 l 3.68,-9.6 h 0.08 z" />
                <path
                   id="path128"
                   d="m 291.8803,1163.7299 c -7.56,0 -10.88,-5.28 -10.88,-9.72 0,-4.4 3.32,-9.68 10.88,-9.68 3.84,0 6.48,2.04 6.48,2.04 l 3.2,-6.4 c 0,0 -3.68,-3.04 -10.84,-3.04 -9.36,0 -17.88,7.68 -17.88,17.16 0,9.44 8.56,17.04 17.88,17.04 7.16,0 10.84,-3.04 10.84,-3.04 l -3.2,-6.4 c 0,0 -2.64,2.04 -6.48,2.04 z" />
                <path
                   id="path130"
                   d="m 334.48024,1170.5299 -15.36,-17.36 13.28,-15.64 h -9.12 l -11.32,13.48 v -13.48 h -7.52 v 33 h 7.52 v -14 l 12.16,14 z" />
                <path
                   id="path132"
                   d="m 347.28017,1136.9299 c -5.32,0 -10.76,3.92 -10.76,10.08 0,3.44 2.32,6.52 6.28,8.48 3.92,1.96 7.44,3.04 7.44,5.44 0,3.08 -3.12,3.24 -4.76,3.24 -3.68,0 -8.08,-3.72 -8.08,-3.72 l -3.76,6.32 c 0,0 4.68,4.36 12.4,4.36 6.44,0 12.44,-2.76 12.44,-10.64 0,-4.32 -4.04,-7.44 -7.72,-9 -3.76,-1.6 -6.88,-2.92 -6.88,-4.76 0,-1.8 1.36,-2.96 3.92,-2.96 3.4,0 6.68,2.28 6.68,2.28 l 3.04,-6 c 0,0 -4.24,-3.12 -10.24,-3.12 z" />
              </g>
              <path
                 id="path1671"
                 d="m 547.5,836.98108 c -0.49999,37.33232 -1,74.66667 -1.5,112"
                 style="opacity:1;vector-effect:none;fill:#f35890;fill-opacity:1;stroke:#f35890;stroke-width:1.93799996;stroke-linecap:round;stroke-linejoin:round;stroke-miterlimit:4;stroke-dasharray:none;stroke-dashoffset:0;stroke-opacity:1"
                 transform="matrix(8.8992596,0,0,0.23014197,-4330.9958,730.58071)" />
              <path
                 id="path1673"
                 d="m 547.5,836.98108 c -0.49999,37.33232 -1,74.66667 -1.5,112"
                 style="opacity:1;vector-effect:none;fill:#f35890;fill-opacity:1;stroke:#f35890;stroke-width:1.93799996;stroke-linecap:round;stroke-linejoin:round;stroke-miterlimit:4;stroke-dasharray:none;stroke-dashoffset:0;stroke-opacity:1"
                 transform="matrix(8.8992596,0,0,0.23014197,-4016.9958,644.58071)" />
            </g>
          </g>
          <g
             transform="matrix(0.68263627,0,0,0.68263627,215.04157,326.92262)"
             id="g1919">
            <g
               style="display:inline;opacity:1;fill:none"
               id="g580"
               transform="matrix(-0.02128034,0,0,-0.02128034,-864.59751,-748.94723)">
              <g
                 transform="matrix(-22.912811,0,0,-22.912811,-47968.942,-15006.257)"
                 id="g4819"
                 style="display:inline;opacity:1;fill:none">
                <path
                   style="fill:#02e2ac"
                   d="m 355.382,115.859 c -1.877,-7.34 6.996,-12.461 12.456,-7.169 l 81.391,81.421 c 2.901,2.902 2.901,7.511 0,10.413 L 342.755,307.208 c -2.901,2.902 -7.508,2.902 -10.408,0 l -6.996,-6.998 c -10.068,-10.071 -11.945,-25.775 -3.242,-38.919 3.754,-5.633 9.726,-9.559 16.38,-11.266 l 14.504,-3.926 c 2.73,-0.682 5.46,-1.707 7.849,-3.413 15.357,-10.413 21.329,-27.653 17.063,-43.528 z M 169.565,83.4271 c -4.096,4.0967 -2.219,10.9245 3.242,12.4608 l 95.894,25.7751 c 10.067,2.731 18.428,9.217 23.718,18.264 5.119,8.876 6.484,19.801 3.754,30.042 l -4.266,15.875 c -0.512,2.219 -0.683,4.438 -0.171,6.657 4.607,19.972 22.012,29.53 38.392,25.092 l 11.433,-3.072 c 2.9,-0.854 4.607,-3.755 3.924,-6.657 0,0 -36.003,-135.3613 -41.975,-160.4535 -0.683,-2.5604 -2.048,-5.1208 -3.925,-6.9985 L 261.364,2.17636 c -2.901,-2.901813 -7.508,-2.901813 -10.408,0 z M 27.2583,286.213 c 2.9007,2.902 7.5078,2.902 10.4085,0 22.5233,-22.361 109.5452,-109.245 109.5452,-109.245 11.773,-11.778 29.519,-15.021 46.241,-6.999 2.559,1.195 4.948,3.073 6.996,5.292 l 13.821,13.826 c 1.536,1.537 3.583,2.902 5.631,3.585 19.622,5.974 36.515,-4.267 40.951,-20.654 l 3.072,-11.266 c 0.341,-1.536 0.341,-3.073 -0.342,-4.267 -0.682,-1.366 -1.877,-2.39 -3.412,-2.732 L 137.315,120.809 c -2.559,-0.682 -5.289,0 -7.166,1.878 L 2.17555,250.708 c -2.900732,2.902 -2.900732,7.511 0,10.413 z"
                   id="path4802" />
                <path
                   style="fill:#6f3ff5"
                   d="m 344.461,428.573 c 4.095,-4.096 2.218,-10.924 -3.242,-12.461 l -95.894,-25.774 c -10.068,-2.732 -18.429,-9.218 -23.718,-18.265 -5.119,-8.876 -6.484,-19.8 -3.754,-30.042 l 4.266,-15.875 c 0.512,-2.219 0.682,-4.438 0.17,-6.657 -4.607,-19.971 -22.011,-29.53 -38.392,-25.092 l -11.432,3.072 c -2.901,0.854 -4.607,3.756 -3.924,6.658 0,0 36.003,135.361 41.975,160.453 0.682,2.56 2.047,5.121 3.924,6.998 l 38.222,38.236 c 2.9,2.902 7.507,2.902 10.408,0 z M 509.803,250.88 483.355,224.422 c -2.901,-2.902 -7.508,-2.902 -10.409,0 L 363.231,334.179 c -2.048,2.048 -4.437,3.926 -7.167,5.291 -16.722,8.023 -34.467,4.609 -46.07,-6.998 l -8.361,-8.364 c -5.802,-5.804 -13.309,-8.876 -21.158,-8.876 -6.143,0 -12.286,1.877 -18.087,5.803 -5.461,3.756 -9.214,9.73 -10.921,16.046 l -3.071,11.607 c -0.341,1.536 -0.341,3.072 0.341,4.267 0.683,1.366 1.877,2.39 3.413,2.731 l 124.902,33.457 c 2.559,0.682 5.289,0 7.166,-1.878 L 509.973,261.463 c 2.73,-3.073 2.73,-7.852 -0.17,-10.583 z m -375.389,59.402 c -4.265,-16.046 1.707,-33.286 17.234,-43.698 2.389,-1.537 5.119,-2.561 7.849,-3.414 l 14.504,-3.926 c 6.654,-1.707 12.627,-5.633 16.38,-11.266 8.703,-13.144 6.826,-28.677 -3.242,-38.919 l -8.361,-8.364 c -2.047,-2.048 -5.63,-2.048 -7.678,0 0,0 -86.8511,86.884 -109.3744,109.416 -2.9007,2.902 -2.9007,7.51 0,10.412 l 83.6094,83.982 c 5.289,5.292 14.333,0.171 12.456,-7.169 z"
                   id="path4804" />
                <path
                   style="fill:#f35890"
                   d="m 256.074,293.04 c 20.45,0 37.027,-16.584 37.027,-37.041 0,-20.457 -16.577,-37.041 -37.027,-37.041 -20.449,0 -37.027,16.584 -37.027,37.041 0,20.457 16.578,37.041 37.027,37.041 z"
                   id="path4806" />
              </g>
              <g
                 style="display:inline;opacity:1;fill:none"
                 id="g1882"
                 transform="matrix(-22.912811,0,0,-22.912811,-60236.417,-15006.257)">
                <path
                   id="path1876"
                   d="m 355.382,115.859 c -1.877,-7.34 6.996,-12.461 12.456,-7.169 l 81.391,81.421 c 2.901,2.902 2.901,7.511 0,10.413 L 342.755,307.208 c -2.901,2.902 -7.508,2.902 -10.408,0 l -6.996,-6.998 c -10.068,-10.071 -11.945,-25.775 -3.242,-38.919 3.754,-5.633 9.726,-9.559 16.38,-11.266 l 14.504,-3.926 c 2.73,-0.682 5.46,-1.707 7.849,-3.413 15.357,-10.413 21.329,-27.653 17.063,-43.528 z M 169.565,83.4271 c -4.096,4.0967 -2.219,10.9245 3.242,12.4608 l 95.894,25.7751 c 10.067,2.731 18.428,9.217 23.718,18.264 5.119,8.876 6.484,19.801 3.754,30.042 l -4.266,15.875 c -0.512,2.219 -0.683,4.438 -0.171,6.657 4.607,19.972 22.012,29.53 38.392,25.092 l 11.433,-3.072 c 2.9,-0.854 4.607,-3.755 3.924,-6.657 0,0 -36.003,-135.3613 -41.975,-160.4535 -0.683,-2.5604 -2.048,-5.1208 -3.925,-6.9985 L 261.364,2.17636 c -2.901,-2.901813 -7.508,-2.901813 -10.408,0 z M 27.2583,286.213 c 2.9007,2.902 7.5078,2.902 10.4085,0 22.5233,-22.361 109.5452,-109.245 109.5452,-109.245 11.773,-11.778 29.519,-15.021 46.241,-6.999 2.559,1.195 4.948,3.073 6.996,5.292 l 13.821,13.826 c 1.536,1.537 3.583,2.902 5.631,3.585 19.622,5.974 36.515,-4.267 40.951,-20.654 l 3.072,-11.266 c 0.341,-1.536 0.341,-3.073 -0.342,-4.267 -0.682,-1.366 -1.877,-2.39 -3.412,-2.732 L 137.315,120.809 c -2.559,-0.682 -5.289,0 -7.166,1.878 L 2.17555,250.708 c -2.900732,2.902 -2.900732,7.511 0,10.413 z"
                   style="fill:#02e2ac" />
                <path
                   id="path1878"
                   d="m 344.461,428.573 c 4.095,-4.096 2.218,-10.924 -3.242,-12.461 l -95.894,-25.774 c -10.068,-2.732 -18.429,-9.218 -23.718,-18.265 -5.119,-8.876 -6.484,-19.8 -3.754,-30.042 l 4.266,-15.875 c 0.512,-2.219 0.682,-4.438 0.17,-6.657 -4.607,-19.971 -22.011,-29.53 -38.392,-25.092 l -11.432,3.072 c -2.901,0.854 -4.607,3.756 -3.924,6.658 0,0 36.003,135.361 41.975,160.453 0.682,2.56 2.047,5.121 3.924,6.998 l 38.222,38.236 c 2.9,2.902 7.507,2.902 10.408,0 z M 509.803,250.88 483.355,224.422 c -2.901,-2.902 -7.508,-2.902 -10.409,0 L 363.231,334.179 c -2.048,2.048 -4.437,3.926 -7.167,5.291 -16.722,8.023 -34.467,4.609 -46.07,-6.998 l -8.361,-8.364 c -5.802,-5.804 -13.309,-8.876 -21.158,-8.876 -6.143,0 -12.286,1.877 -18.087,5.803 -5.461,3.756 -9.214,9.73 -10.921,16.046 l -3.071,11.607 c -0.341,1.536 -0.341,3.072 0.341,4.267 0.683,1.366 1.877,2.39 3.413,2.731 l 124.902,33.457 c 2.559,0.682 5.289,0 7.166,-1.878 L 509.973,261.463 c 2.73,-3.073 2.73,-7.852 -0.17,-10.583 z m -375.389,59.402 c -4.265,-16.046 1.707,-33.286 17.234,-43.698 2.389,-1.537 5.119,-2.561 7.849,-3.414 l 14.504,-3.926 c 6.654,-1.707 12.627,-5.633 16.38,-11.266 8.703,-13.144 6.826,-28.677 -3.242,-38.919 l -8.361,-8.364 c -2.047,-2.048 -5.63,-2.048 -7.678,0 0,0 -86.8511,86.884 -109.3744,109.416 -2.9007,2.902 -2.9007,7.51 0,10.412 l 83.6094,83.982 c 5.289,5.292 14.333,0.171 12.456,-7.169 z"
                   style="fill:#6f3ff5" />
                <path
                   id="path1880"
                   d="m 256.074,293.04 c 20.45,0 37.027,-16.584 37.027,-37.041 0,-20.457 -16.577,-37.041 -37.027,-37.041 -20.449,0 -37.027,16.584 -37.027,37.041 0,20.457 16.578,37.041 37.027,37.041 z"
                   style="fill:#f35890" />
              </g>
              <g
                 transform="matrix(-22.912811,0,0,-22.912811,-72503.891,-15006.257)"
                 id="g1890"
                 style="display:inline;opacity:1;fill:none">
                <path
                   style="fill:#02e2ac"
                   d="m 355.382,115.859 c -1.877,-7.34 6.996,-12.461 12.456,-7.169 l 81.391,81.421 c 2.901,2.902 2.901,7.511 0,10.413 L 342.755,307.208 c -2.901,2.902 -7.508,2.902 -10.408,0 l -6.996,-6.998 c -10.068,-10.071 -11.945,-25.775 -3.242,-38.919 3.754,-5.633 9.726,-9.559 16.38,-11.266 l 14.504,-3.926 c 2.73,-0.682 5.46,-1.707 7.849,-3.413 15.357,-10.413 21.329,-27.653 17.063,-43.528 z M 169.565,83.4271 c -4.096,4.0967 -2.219,10.9245 3.242,12.4608 l 95.894,25.7751 c 10.067,2.731 18.428,9.217 23.718,18.264 5.119,8.876 6.484,19.801 3.754,30.042 l -4.266,15.875 c -0.512,2.219 -0.683,4.438 -0.171,6.657 4.607,19.972 22.012,29.53 38.392,25.092 l 11.433,-3.072 c 2.9,-0.854 4.607,-3.755 3.924,-6.657 0,0 -36.003,-135.3613 -41.975,-160.4535 -0.683,-2.5604 -2.048,-5.1208 -3.925,-6.9985 L 261.364,2.17636 c -2.901,-2.901813 -7.508,-2.901813 -10.408,0 z M 27.2583,286.213 c 2.9007,2.902 7.5078,2.902 10.4085,0 22.5233,-22.361 109.5452,-109.245 109.5452,-109.245 11.773,-11.778 29.519,-15.021 46.241,-6.999 2.559,1.195 4.948,3.073 6.996,5.292 l 13.821,13.826 c 1.536,1.537 3.583,2.902 5.631,3.585 19.622,5.974 36.515,-4.267 40.951,-20.654 l 3.072,-11.266 c 0.341,-1.536 0.341,-3.073 -0.342,-4.267 -0.682,-1.366 -1.877,-2.39 -3.412,-2.732 L 137.315,120.809 c -2.559,-0.682 -5.289,0 -7.166,1.878 L 2.17555,250.708 c -2.900732,2.902 -2.900732,7.511 0,10.413 z"
                   id="path1884" />
                <path
                   style="fill:#6f3ff5"
                   d="m 344.461,428.573 c 4.095,-4.096 2.218,-10.924 -3.242,-12.461 l -95.894,-25.774 c -10.068,-2.732 -18.429,-9.218 -23.718,-18.265 -5.119,-8.876 -6.484,-19.8 -3.754,-30.042 l 4.266,-15.875 c 0.512,-2.219 0.682,-4.438 0.17,-6.657 -4.607,-19.971 -22.011,-29.53 -38.392,-25.092 l -11.432,3.072 c -2.901,0.854 -4.607,3.756 -3.924,6.658 0,0 36.003,135.361 41.975,160.453 0.682,2.56 2.047,5.121 3.924,6.998 l 38.222,38.236 c 2.9,2.902 7.507,2.902 10.408,0 z M 509.803,250.88 483.355,224.422 c -2.901,-2.902 -7.508,-2.902 -10.409,0 L 363.231,334.179 c -2.048,2.048 -4.437,3.926 -7.167,5.291 -16.722,8.023 -34.467,4.609 -46.07,-6.998 l -8.361,-8.364 c -5.802,-5.804 -13.309,-8.876 -21.158,-8.876 -6.143,0 -12.286,1.877 -18.087,5.803 -5.461,3.756 -9.214,9.73 -10.921,16.046 l -3.071,11.607 c -0.341,1.536 -0.341,3.072 0.341,4.267 0.683,1.366 1.877,2.39 3.413,2.731 l 124.902,33.457 c 2.559,0.682 5.289,0 7.166,-1.878 L 509.973,261.463 c 2.73,-3.073 2.73,-7.852 -0.17,-10.583 z m -375.389,59.402 c -4.265,-16.046 1.707,-33.286 17.234,-43.698 2.389,-1.537 5.119,-2.561 7.849,-3.414 l 14.504,-3.926 c 6.654,-1.707 12.627,-5.633 16.38,-11.266 8.703,-13.144 6.826,-28.677 -3.242,-38.919 l -8.361,-8.364 c -2.047,-2.048 -5.63,-2.048 -7.678,0 0,0 -86.8511,86.884 -109.3744,109.416 -2.9007,2.902 -2.9007,7.51 0,10.412 l 83.6094,83.982 c 5.289,5.292 14.333,0.171 12.456,-7.169 z"
                   id="path1886" />
                <path
                   style="fill:#f35890"
                   d="m 256.074,293.04 c 20.45,0 37.027,-16.584 37.027,-37.041 0,-20.457 -16.577,-37.041 -37.027,-37.041 -20.449,0 -37.027,16.584 -37.027,37.041 0,20.457 16.578,37.041 37.027,37.041 z"
                   id="path1888" />
              </g>
              <g
                 style="display:inline;opacity:1;fill:none"
                 id="g1898"
                 transform="matrix(-22.912811,0,0,-22.912811,-84771.362,-15006.257)">
                <path
                   id="path1892"
                   d="m 355.382,115.859 c -1.877,-7.34 6.996,-12.461 12.456,-7.169 l 81.391,81.421 c 2.901,2.902 2.901,7.511 0,10.413 L 342.755,307.208 c -2.901,2.902 -7.508,2.902 -10.408,0 l -6.996,-6.998 c -10.068,-10.071 -11.945,-25.775 -3.242,-38.919 3.754,-5.633 9.726,-9.559 16.38,-11.266 l 14.504,-3.926 c 2.73,-0.682 5.46,-1.707 7.849,-3.413 15.357,-10.413 21.329,-27.653 17.063,-43.528 z M 169.565,83.4271 c -4.096,4.0967 -2.219,10.9245 3.242,12.4608 l 95.894,25.7751 c 10.067,2.731 18.428,9.217 23.718,18.264 5.119,8.876 6.484,19.801 3.754,30.042 l -4.266,15.875 c -0.512,2.219 -0.683,4.438 -0.171,6.657 4.607,19.972 22.012,29.53 38.392,25.092 l 11.433,-3.072 c 2.9,-0.854 4.607,-3.755 3.924,-6.657 0,0 -36.003,-135.3613 -41.975,-160.4535 -0.683,-2.5604 -2.048,-5.1208 -3.925,-6.9985 L 261.364,2.17636 c -2.901,-2.901813 -7.508,-2.901813 -10.408,0 z M 27.2583,286.213 c 2.9007,2.902 7.5078,2.902 10.4085,0 22.5233,-22.361 109.5452,-109.245 109.5452,-109.245 11.773,-11.778 29.519,-15.021 46.241,-6.999 2.559,1.195 4.948,3.073 6.996,5.292 l 13.821,13.826 c 1.536,1.537 3.583,2.902 5.631,3.585 19.622,5.974 36.515,-4.267 40.951,-20.654 l 3.072,-11.266 c 0.341,-1.536 0.341,-3.073 -0.342,-4.267 -0.682,-1.366 -1.877,-2.39 -3.412,-2.732 L 137.315,120.809 c -2.559,-0.682 -5.289,0 -7.166,1.878 L 2.17555,250.708 c -2.900732,2.902 -2.900732,7.511 0,10.413 z"
                   style="fill:#02e2ac" />
                <path
                   id="path1894"
                   d="m 344.461,428.573 c 4.095,-4.096 2.218,-10.924 -3.242,-12.461 l -95.894,-25.774 c -10.068,-2.732 -18.429,-9.218 -23.718,-18.265 -5.119,-8.876 -6.484,-19.8 -3.754,-30.042 l 4.266,-15.875 c 0.512,-2.219 0.682,-4.438 0.17,-6.657 -4.607,-19.971 -22.011,-29.53 -38.392,-25.092 l -11.432,3.072 c -2.901,0.854 -4.607,3.756 -3.924,6.658 0,0 36.003,135.361 41.975,160.453 0.682,2.56 2.047,5.121 3.924,6.998 l 38.222,38.236 c 2.9,2.902 7.507,2.902 10.408,0 z M 509.803,250.88 483.355,224.422 c -2.901,-2.902 -7.508,-2.902 -10.409,0 L 363.231,334.179 c -2.048,2.048 -4.437,3.926 -7.167,5.291 -16.722,8.023 -34.467,4.609 -46.07,-6.998 l -8.361,-8.364 c -5.802,-5.804 -13.309,-8.876 -21.158,-8.876 -6.143,0 -12.286,1.877 -18.087,5.803 -5.461,3.756 -9.214,9.73 -10.921,16.046 l -3.071,11.607 c -0.341,1.536 -0.341,3.072 0.341,4.267 0.683,1.366 1.877,2.39 3.413,2.731 l 124.902,33.457 c 2.559,0.682 5.289,0 7.166,-1.878 L 509.973,261.463 c 2.73,-3.073 2.73,-7.852 -0.17,-10.583 z m -375.389,59.402 c -4.265,-16.046 1.707,-33.286 17.234,-43.698 2.389,-1.537 5.119,-2.561 7.849,-3.414 l 14.504,-3.926 c 6.654,-1.707 12.627,-5.633 16.38,-11.266 8.703,-13.144 6.826,-28.677 -3.242,-38.919 l -8.361,-8.364 c -2.047,-2.048 -5.63,-2.048 -7.678,0 0,0 -86.8511,86.884 -109.3744,109.416 -2.9007,2.902 -2.9007,7.51 0,10.412 l 83.6094,83.982 c 5.289,5.292 14.333,0.171 12.456,-7.169 z"
                   style="fill:#6f3ff5" />
                <path
                   id="path1896"
                   d="m 256.074,293.04 c 20.45,0 37.027,-16.584 37.027,-37.041 0,-20.457 -16.577,-37.041 -37.027,-37.041 -20.449,0 -37.027,16.584 -37.027,37.041 0,20.457 16.578,37.041 37.027,37.041 z"
                   style="fill:#f35890" />
              </g>
            </g>
          </g>
          <g
             id="text1946"
             style="font-style:normal;font-variant:normal;font-weight:bold;font-stretch:normal;font-size:41.63633728px;line-height:1.25;font-family:'League Spartan';-inkscape-font-specification:'League Spartan, Bold';font-variant-ligatures:normal;font-variant-caps:normal;font-variant-numeric:normal;font-feature-settings:normal;text-align:start;letter-spacing:0px;word-spacing:0px;writing-mode:lr-tb;text-anchor:start;fill:url(#linearGradient1990);fill-opacity:1;stroke:none"
             transform="matrix(2.5467131,0,0,2.5467131,243126,-178803.95)"
             aria-label="public-goods">
            <path
               id="path137"
               style="font-style:normal;font-variant:normal;font-weight:bold;font-stretch:normal;font-size:41.63633728px;font-family:'League Spartan';-inkscape-font-specification:'League Spartan, Bold';font-variant-ligatures:normal;font-variant-caps:normal;font-variant-numeric:normal;font-feature-settings:normal;text-align:start;writing-mode:lr-tb;text-anchor:start;fill:url(#linearGradient1990);fill-opacity:1"
               d="m -95312.606,70482.057 c 0,-6.245 -4.372,-11.283 -10.617,-11.283 -2.915,0 -5.413,1.291 -6.995,3.039 h -0.08 v -2.415 h -7.287 v 32.185 h 7.37 v -12.865 c 1.749,1.707 4.122,2.664 6.995,2.664 6.245,0 10.617,-5.079 10.617,-11.325 z m -7.828,0 c 0,2.956 -2.206,5.038 -4.996,5.038 -2.748,0 -4.955,-2.082 -4.955,-5.038 0,-2.914 2.082,-4.996 4.955,-4.996 2.998,0 4.996,2.082 4.996,4.996 z" />
            <path
               id="path139"
               style="font-style:normal;font-variant:normal;font-weight:bold;font-stretch:normal;font-size:41.63633728px;font-family:'League Spartan';-inkscape-font-specification:'League Spartan, Bold';font-variant-ligatures:normal;font-variant-caps:normal;font-variant-numeric:normal;font-feature-settings:normal;text-align:start;writing-mode:lr-tb;text-anchor:start;fill:url(#linearGradient1990);fill-opacity:1"
               d="m -95302.197,70471.398 h -7.37 v 11.95 c 0,7.161 3.581,10.034 11.575,10.034 7.995,0 11.575,-2.873 11.575,-10.034 v -11.95 h -7.369 v 10.16 c 0,4.205 -1.125,5.829 -4.206,5.829 -3.081,0 -4.205,-1.624 -4.205,-5.829 z" />
            <path
               id="path141"
               style="font-style:normal;font-variant:normal;font-weight:bold;font-stretch:normal;font-size:41.63633728px;font-family:'League Spartan';-inkscape-font-specification:'League Spartan, Bold';font-variant-ligatures:normal;font-variant-caps:normal;font-variant-numeric:normal;font-feature-settings:normal;text-align:start;writing-mode:lr-tb;text-anchor:start;fill:url(#linearGradient1990);fill-opacity:1"
               d="m -95256.855,70482.099 c 0,-6.246 -4.372,-11.325 -10.617,-11.325 -2.873,0 -5.246,0.957 -6.995,2.665 v -16.488 h -7.37 v 35.807 h 7.287 v -2.415 h 0.08 c 1.582,1.749 4.08,3.039 6.995,3.039 6.245,0 10.617,-5.038 10.617,-11.283 z m -7.828,0 c 0,2.914 -1.998,4.996 -4.996,4.996 -2.873,0 -4.955,-2.082 -4.955,-4.996 0,-2.956 2.207,-5.038 4.955,-5.038 2.79,0 4.996,2.082 4.996,5.038 z" />
            <path
               id="path143"
               style="font-style:normal;font-variant:normal;font-weight:bold;font-stretch:normal;font-size:41.63633728px;font-family:'League Spartan';-inkscape-font-specification:'League Spartan, Bold';font-variant-ligatures:normal;font-variant-caps:normal;font-variant-numeric:normal;font-feature-settings:normal;text-align:start;writing-mode:lr-tb;text-anchor:start;fill:url(#linearGradient1990);fill-opacity:1"
               d="m -95253.399,70492.758 h 7.369 v -35.807 h -7.369 z" />
            <path
               id="path145"
               style="font-style:normal;font-variant:normal;font-weight:bold;font-stretch:normal;font-size:41.63633728px;font-family:'League Spartan';-inkscape-font-specification:'League Spartan, Bold';font-variant-ligatures:normal;font-variant-caps:normal;font-variant-numeric:normal;font-feature-settings:normal;text-align:start;writing-mode:lr-tb;text-anchor:start;fill:url(#linearGradient1990);fill-opacity:1"
               d="m -95237.244,70458.2 c -2.415,0 -4.372,1.957 -4.372,4.371 0,2.415 1.957,4.372 4.372,4.372 2.415,0 4.371,-1.957 4.371,-4.372 0,-2.414 -1.956,-4.371 -4.371,-4.371 z m -3.789,13.198 h 7.369 v 21.36 h -7.369 z" />
            <path
               id="path147"
               style="font-style:normal;font-variant:normal;font-weight:bold;font-stretch:normal;font-size:41.63633728px;font-family:'League Spartan';-inkscape-font-specification:'League Spartan, Bold';font-variant-ligatures:normal;font-variant-caps:normal;font-variant-numeric:normal;font-feature-settings:normal;text-align:start;writing-mode:lr-tb;text-anchor:start;fill:url(#linearGradient1990);fill-opacity:1"
               d="m -95217.092,70476.811 c 2.206,0 3.58,0.999 3.58,0.999 l 2.498,-5.038 c 0,0 -2.414,-1.998 -7.161,-1.998 -6.204,0 -11.825,5.079 -11.825,11.367 0,6.245 5.663,11.241 11.825,11.241 4.747,0 7.161,-1.915 7.161,-1.915 l -2.498,-5.121 c 0,0 -1.374,0.999 -3.58,0.999 -2.79,0 -5.08,-2.332 -5.08,-5.288 0,-2.914 2.29,-5.246 5.08,-5.246 z" />
            <path
               id="path149"
               style="font-style:normal;font-variant:normal;font-weight:bold;font-stretch:normal;font-size:41.63633728px;font-family:'League Spartan';-inkscape-font-specification:'League Spartan, Bold';font-variant-ligatures:normal;font-variant-caps:normal;font-variant-numeric:normal;font-feature-settings:normal;text-align:start;writing-mode:lr-tb;text-anchor:start;fill:url(#linearGradient1990);fill-opacity:1"
               d="m -95208.016,70477.519 v 6.37 h 13.407 v -6.37 z" />
            <path
               id="path151"
               style="font-style:normal;font-variant:normal;font-weight:bold;font-stretch:normal;font-size:41.63633728px;font-family:'League Spartan';-inkscape-font-specification:'League Spartan, Bold';font-variant-ligatures:normal;font-variant-caps:normal;font-variant-numeric:normal;font-feature-settings:normal;text-align:start;writing-mode:lr-tb;text-anchor:start;fill:url(#linearGradient1990);fill-opacity:1"
               d="m -95190.57,70498.004 c 2.248,5.205 7.369,6.204 11.825,6.204 7.286,0 12.574,-3.706 12.574,-10.867 v -21.943 h -7.37 v 1.916 h -0.125 c -1.749,-1.624 -4.039,-2.54 -6.87,-2.54 -6.245,0 -10.617,5.079 -10.617,11.325 0,6.245 4.372,11.283 10.617,11.283 2.915,0 5.413,-0.416 6.995,-2.165 v 1.582 c 0,3.789 -3.164,4.997 -5.204,4.997 -3.206,0 -4.997,-1.457 -5.788,-2.748 z m 7.245,-15.905 c 0,-2.956 2.206,-5.038 4.996,-5.038 2.748,0 4.955,2.082 4.955,5.038 0,2.914 -2.082,4.996 -4.955,4.996 -2.998,0 -4.996,-2.082 -4.996,-4.996 z" />
            <path
               id="path153"
               style="font-style:normal;font-variant:normal;font-weight:bold;font-stretch:normal;font-size:41.63633728px;font-family:'League Spartan';-inkscape-font-specification:'League Spartan, Bold';font-variant-ligatures:normal;font-variant-caps:normal;font-variant-numeric:normal;font-feature-settings:normal;text-align:start;writing-mode:lr-tb;text-anchor:start;fill:url(#linearGradient1990);fill-opacity:1"
               d="m -95162.924,70482.099 c 0,6.578 5.163,11.283 12.866,11.283 7.369,0 12.741,-4.705 12.741,-11.283 0,-6.662 -5.663,-11.325 -12.741,-11.325 -7.203,0 -12.866,4.663 -12.866,11.325 z m 7.828,0 c 0,-2.956 2.207,-5.038 4.996,-5.038 2.748,0 4.955,2.082 4.955,5.038 0,2.914 -2.082,4.996 -4.955,4.996 -2.998,0 -4.996,-2.082 -4.996,-4.996 z" />
            <path
               id="path155"
               style="font-style:normal;font-variant:normal;font-weight:bold;font-stretch:normal;font-size:41.63633728px;font-family:'League Spartan';-inkscape-font-specification:'League Spartan, Bold';font-variant-ligatures:normal;font-variant-caps:normal;font-variant-numeric:normal;font-feature-settings:normal;text-align:start;writing-mode:lr-tb;text-anchor:start;fill:url(#linearGradient1990);fill-opacity:1"
               d="m -95135.402,70482.099 c 0,6.578 5.163,11.283 12.865,11.283 7.37,0 12.741,-4.705 12.741,-11.283 0,-6.662 -5.662,-11.325 -12.741,-11.325 -7.203,0 -12.865,4.663 -12.865,11.325 z m 7.827,0 c 0,-2.956 2.207,-5.038 4.997,-5.038 2.748,0 4.955,2.082 4.955,5.038 0,2.914 -2.082,4.996 -4.955,4.996 -2.998,0 -4.997,-2.082 -4.997,-4.996 z" />
            <path
               id="path157"
               style="font-style:normal;font-variant:normal;font-weight:bold;font-stretch:normal;font-size:41.63633728px;font-family:'League Spartan';-inkscape-font-specification:'League Spartan, Bold';font-variant-ligatures:normal;font-variant-caps:normal;font-variant-numeric:normal;font-feature-settings:normal;text-align:start;writing-mode:lr-tb;text-anchor:start;fill:url(#linearGradient1990);fill-opacity:1"
               d="m -95107.881,70482.099 c 0,6.245 4.372,11.283 10.618,11.283 2.914,0 5.412,-1.29 6.995,-3.039 h 0.08 v 2.415 h 7.286 v -35.807 h -7.369 v 16.488 c -1.749,-1.708 -4.122,-2.665 -6.995,-2.665 -6.246,0 -10.618,5.079 -10.618,11.325 z m 7.828,0 c 0,-2.956 2.207,-5.038 4.996,-5.038 2.748,0 4.955,2.082 4.955,5.038 0,2.914 -2.082,4.996 -4.955,4.996 -2.997,0 -4.996,-2.082 -4.996,-4.996 z" />
            <path
               id="path159"
               style="font-style:normal;font-variant:normal;font-weight:bold;font-stretch:normal;font-size:41.63633728px;font-family:'League Spartan';-inkscape-font-specification:'League Spartan, Bold';font-variant-ligatures:normal;font-variant-caps:normal;font-variant-numeric:normal;font-feature-settings:normal;text-align:start;writing-mode:lr-tb;text-anchor:start;fill:url(#linearGradient1990);fill-opacity:1"
               d="m -95068.618,70470.774 c -5.62,0 -9.326,2.498 -9.326,6.87 0,3.206 2.165,4.705 4.33,5.829 2.415,1.249 4.747,1.374 4.747,2.914 0,1.416 -1.249,1.541 -2.29,1.541 -2.374,0 -5.288,-2.457 -5.288,-2.457 l -2.998,5.038 c 0,0 3.081,2.873 8.244,2.873 4.372,0 10.118,-0.999 10.118,-7.286 0,-4.372 -3.664,-5.954 -6.496,-6.828 -1.832,-0.583 -3.331,-0.916 -3.331,-2.041 0,-0.999 0.667,-1.29 2.29,-1.29 2.249,0 4.747,1.332 4.747,1.332 l 2.415,-4.83 c 0,0 -3.04,-1.665 -7.162,-1.665 z" />
          </g>
          <g
             id="text1952"
             style="font-style:normal;font-variant:normal;font-weight:bold;font-stretch:normal;font-size:38.77658844px;line-height:1.25;font-family:'League Spartan';-inkscape-font-specification:'League Spartan, Bold';font-variant-ligatures:normal;font-variant-caps:normal;font-variant-numeric:normal;font-feature-settings:normal;text-align:start;letter-spacing:0px;word-spacing:0px;writing-mode:lr-tb;text-anchor:start;fill:#003bb5;fill-opacity:1;stroke:none"
             transform="matrix(2.5789803,0,0,2.5789803,246205.2,-181470.95)"
             aria-label="the best thing">
            <path
               id="path162"
               d="m -95336.596,70472.865 h -2.87 v 5.235 h 2.87 v 7.639 c 0,3.529 1.318,7.6 6.786,7.6 2.831,0 5.041,-1.24 5.041,-1.24 l -1.706,-5.545 c 0,0 -0.815,0.62 -1.707,0.62 -1.085,0 -1.551,-0.892 -1.551,-2.753 v -6.321 h 4.188 v -5.235 h -4.188 v -7.406 h -6.863 z" />
            <path
               id="path164"
               d="m -95322.443,70492.758 h 6.864 v -11.245 c 0,-1.978 2.016,-3.878 4.071,-3.878 2.211,0 3.568,1.9 3.568,3.878 v 11.245 h 6.863 v -13.107 c 0,-5.545 -5.079,-7.367 -8.724,-7.367 -2.172,0 -4.15,1.124 -5.701,2.675 h -0.08 v -15.549 h -6.864 z" />
            <path
               id="path166"
               d="m -95276.686,70483.762 c 0.04,-0.233 0.04,-0.66 0.04,-0.931 0,-6.98 -4.614,-10.547 -10.663,-10.547 -6.01,0 -10.935,4.731 -10.935,10.547 0,5.778 4.925,10.508 10.935,10.508 4.42,0 8.065,-1.434 10.314,-5.196 l -4.963,-2.481 c -1.667,1.783 -2.637,2.21 -4.847,2.21 -1.745,0 -4.304,-1.047 -4.304,-4.11 z m -14.231,-3.8 c 0.116,-1.823 1.434,-3.219 3.8,-3.219 2.016,0 3.451,1.125 3.761,3.219 z" />
            <path
               id="path168"
               d="m -95239.577,70482.831 c 0,-5.816 -4.072,-10.547 -9.888,-10.547 -2.676,0 -4.886,0.892 -6.515,2.481 v -15.355 h -6.863 v 33.348 h 6.786 v -2.249 h 0.08 c 1.474,1.628 3.8,2.83 6.515,2.83 5.816,0 9.888,-4.692 9.888,-10.508 z m -7.29,0 c 0,2.714 -1.861,4.653 -4.653,4.653 -2.676,0 -4.615,-1.939 -4.615,-4.653 0,-2.753 2.055,-4.692 4.615,-4.692 2.598,0 4.653,1.939 4.653,4.692 z" />
            <path
               id="path170"
               d="m -95216.234,70483.762 c 0.04,-0.233 0.04,-0.66 0.04,-0.931 0,-6.98 -4.614,-10.547 -10.664,-10.547 -6.01,0 -10.935,4.731 -10.935,10.547 0,5.778 4.925,10.508 10.935,10.508 4.421,0 8.066,-1.434 10.315,-5.196 l -4.963,-2.481 c -1.668,1.783 -2.637,2.21 -4.847,2.21 -1.745,0 -4.305,-1.047 -4.305,-4.11 z m -14.231,-3.8 c 0.117,-1.823 1.435,-3.219 3.8,-3.219 2.017,0 3.451,1.125 3.762,3.219 z" />
            <path
               id="path172"
               d="m -95204.485,70472.284 c -5.234,0 -8.686,2.326 -8.686,6.398 0,2.986 2.017,4.382 4.033,5.429 2.249,1.163 4.421,1.279 4.421,2.714 0,1.318 -1.164,1.435 -2.133,1.435 -2.21,0 -4.925,-2.288 -4.925,-2.288 l -2.791,4.692 c 0,0 2.869,2.675 7.677,2.675 4.072,0 9.423,-0.93 9.423,-6.785 0,-4.072 -3.412,-5.545 -6.049,-6.36 -1.706,-0.543 -3.102,-0.853 -3.102,-1.9 0,-0.93 0.62,-1.202 2.132,-1.202 2.094,0 4.421,1.241 4.421,1.241 l 2.249,-4.498 c 0,0 -2.831,-1.551 -6.67,-1.551 z" />
            <path
               id="path174"
               d="m -95193.239,70472.865 h -2.87 v 5.235 h 2.87 v 7.639 c 0,3.529 1.318,7.6 6.785,7.6 2.831,0 5.041,-1.24 5.041,-1.24 l -1.706,-5.545 c 0,0 -0.814,0.62 -1.706,0.62 -1.086,0 -1.551,-0.892 -1.551,-2.753 v -6.321 h 4.188 v -5.235 h -4.188 v -7.406 h -6.863 z" />
            <path
               id="path176"
               d="m -95167.337,70472.865 h -2.869 v 5.235 h 2.869 v 7.639 c 0,3.529 1.319,7.6 6.786,7.6 2.831,0 5.041,-1.24 5.041,-1.24 l -1.706,-5.545 c 0,0 -0.814,0.62 -1.706,0.62 -1.086,0 -1.551,-0.892 -1.551,-2.753 v -6.321 h 4.188 v -5.235 h -4.188 v -7.406 h -6.864 z" />
            <path
               id="path178"
               d="m -95153.183,70492.758 h 6.863 v -11.245 c 0,-1.978 2.016,-3.878 4.072,-3.878 2.21,0 3.567,1.9 3.567,3.878 v 11.245 h 6.864 v -13.107 c 0,-5.545 -5.08,-7.367 -8.725,-7.367 -2.172,0 -4.149,1.124 -5.7,2.675 h -0.08 v -15.549 h -6.863 z" />
            <path
               id="path180"
               d="m -95124.023,70460.573 c -2.249,0 -4.072,1.823 -4.072,4.072 0,2.249 1.823,4.071 4.072,4.071 2.249,0 4.071,-1.822 4.071,-4.071 0,-2.249 -1.822,-4.072 -4.071,-4.072 z m -3.529,12.292 h 6.863 v 19.893 h -6.863 z" />
            <path
               id="path182"
               d="m -95115.842,70492.758 h 6.864 v -11.245 c 0,-1.978 2.016,-3.878 4.071,-3.878 2.211,0 3.568,1.9 3.568,3.878 v 11.245 h 6.863 v -13.107 c 0,-5.545 -5.079,-7.367 -8.724,-7.367 -2.172,0 -4.15,1.124 -5.701,2.675 h -0.08 v -2.094 h -6.864 z" />
            <path
               id="path184"
               d="m -95091.102,70497.644 c 2.094,4.847 6.863,5.777 11.012,5.777 6.786,0 11.711,-3.451 11.711,-10.12 v -20.436 h -6.864 v 1.784 h -0.116 c -1.628,-1.512 -3.761,-2.365 -6.398,-2.365 -5.817,0 -9.888,4.731 -9.888,10.547 0,5.816 4.071,10.508 9.888,10.508 2.714,0 5.041,-0.387 6.514,-2.016 v 1.474 c 0,3.528 -2.947,4.653 -4.847,4.653 -2.985,0 -4.653,-1.357 -5.39,-2.559 z m 6.747,-14.813 c 0,-2.753 2.055,-4.692 4.653,-4.692 2.559,0 4.615,1.939 4.615,4.692 0,2.714 -1.939,4.653 -4.615,4.653 -2.792,0 -4.653,-1.939 -4.653,-4.653 z" />
          </g>
          <g
             id="text1958"
             style="font-style:normal;font-variant:normal;font-weight:bold;font-stretch:normal;font-size:42.71298599px;line-height:1.25;font-family:'League Spartan';-inkscape-font-specification:'League Spartan, Bold';font-variant-ligatures:normal;font-variant-caps:normal;font-variant-numeric:normal;font-feature-settings:normal;text-align:start;letter-spacing:0px;word-spacing:0px;writing-mode:lr-tb;text-anchor:start;fill:#003bb5;fill-opacity:1;stroke:none"
             transform="matrix(2.1408192,0,0,2.1408192,204426.03,-150458.53)"
             aria-label="ever happened">
            <path
               id="path187"
               d="m -95315.355,70482.848 c 0.04,-0.256 0.04,-0.726 0.04,-1.025 0,-7.688 -5.083,-11.618 -11.746,-11.618 -6.621,0 -12.046,5.211 -12.046,11.618 0,6.365 5.425,11.576 12.046,11.576 4.869,0 8.884,-1.581 11.361,-5.724 l -5.467,-2.734 c -1.837,1.965 -2.905,2.435 -5.339,2.435 -1.922,0 -4.741,-1.153 -4.741,-4.528 z m -15.676,-4.185 c 0.128,-2.008 1.581,-3.546 4.186,-3.546 2.221,0 3.802,1.239 4.143,3.546 z" />
            <path
               id="path189"
               d="m -95306.428,70470.846 h -8.97 l 11.746,21.912 h 5.126 l 11.746,-21.912 h -8.97 l -5.339,11.917 z" />
            <path
               id="path191"
               d="m -95263.032,70482.848 c 0.04,-0.256 0.04,-0.726 0.04,-1.025 0,-7.688 -5.083,-11.618 -11.746,-11.618 -6.621,0 -12.045,5.211 -12.045,11.618 0,6.365 5.424,11.576 12.045,11.576 4.869,0 8.884,-1.581 11.361,-5.724 l -5.467,-2.734 c -1.836,1.965 -2.904,2.435 -5.339,2.435 -1.922,0 -4.741,-1.153 -4.741,-4.528 z m -15.676,-4.185 c 0.129,-2.008 1.581,-3.546 4.186,-3.546 2.221,0 3.802,1.239 4.144,3.546 z" />
            <path
               id="path193"
               d="m -95259.529,70492.758 h 7.56 v -11.533 c 0,-0.555 0.555,-4.442 4.485,-4.442 2.52,0 3.929,1.196 3.929,1.196 l 3.161,-6.407 c 0,0 -1.965,-1.367 -4.784,-1.367 -4.314,0 -6.706,3.802 -6.706,3.802 h -0.08 v -3.161 h -7.56 z" />
            <path
               id="path195"
               d="m -95226.598,70492.758 h 7.56 v -12.387 c 0,-2.178 2.221,-4.271 4.485,-4.271 2.435,0 3.93,2.093 3.93,4.271 v 12.387 h 7.56 v -14.437 c 0,-6.108 -5.595,-8.116 -9.61,-8.116 -2.392,0 -4.571,1.239 -6.279,2.948 h -0.09 v -17.128 h -7.56 z" />
            <path
               id="path197"
               d="m -95199.945,70481.823 c 0,6.407 4.485,11.576 10.892,11.576 2.99,0 5.553,-1.325 7.176,-3.119 h 0.08 v 2.478 h 7.475 v -21.912 h -7.56 v 2.093 c -1.794,-1.751 -4.229,-2.734 -7.176,-2.734 -6.407,0 -10.892,5.211 -10.892,11.618 z m 8.03,0 c 0,-3.032 2.264,-5.168 5.126,-5.168 2.819,0 5.082,2.136 5.082,5.168 0,2.99 -2.135,5.126 -5.082,5.126 -3.076,0 -5.126,-2.136 -5.126,-5.126 z" />
            <path
               id="path199"
               d="m -95143.564,70481.781 c 0,-6.407 -4.485,-11.576 -10.892,-11.576 -2.99,0 -5.552,1.324 -7.175,3.118 h -0.09 v -2.477 h -7.475 v 33.017 h 7.561 v -13.198 c 1.793,1.751 4.228,2.734 7.175,2.734 6.407,0 10.892,-5.211 10.892,-11.618 z m -8.03,0 c 0,3.032 -2.264,5.168 -5.125,5.168 -2.82,0 -5.083,-2.136 -5.083,-5.168 0,-2.99 2.135,-5.126 5.083,-5.126 3.075,0 5.125,2.136 5.125,5.126 z" />
            <path
               id="path201"
               d="m -95114.391,70481.781 c 0,-6.407 -4.485,-11.576 -10.892,-11.576 -2.99,0 -5.552,1.324 -7.176,3.118 h -0.08 v -2.477 h -7.475 v 33.017 h 7.56 v -13.198 c 1.794,1.751 4.229,2.734 7.176,2.734 6.407,0 10.892,-5.211 10.892,-11.618 z m -8.03,0 c 0,3.032 -2.264,5.168 -5.126,5.168 -2.819,0 -5.082,-2.136 -5.082,-5.168 0,-2.99 2.135,-5.126 5.082,-5.126 3.076,0 5.126,2.136 5.126,5.126 z" />
            <path
               id="path203"
               d="m -95088.678,70482.848 c 0.04,-0.256 0.04,-0.726 0.04,-1.025 0,-7.688 -5.083,-11.618 -11.746,-11.618 -6.621,0 -12.045,5.211 -12.045,11.618 0,6.365 5.424,11.576 12.045,11.576 4.869,0 8.884,-1.581 11.361,-5.724 l -5.467,-2.734 c -1.836,1.965 -2.904,2.435 -5.339,2.435 -1.922,0 -4.741,-1.153 -4.741,-4.528 z m -15.675,-4.185 c 0.128,-2.008 1.58,-3.546 4.185,-3.546 2.221,0 3.802,1.239 4.144,3.546 z" />
            <path
               id="path205"
               d="m -95085.175,70492.758 h 7.56 v -12.387 c 0,-2.178 2.221,-4.271 4.485,-4.271 2.434,0 3.929,2.093 3.929,4.271 v 12.387 h 7.56 v -14.437 c 0,-6.108 -5.595,-8.116 -9.61,-8.116 -2.392,0 -4.57,1.239 -6.279,2.948 h -0.09 v -2.307 h -7.56 z" />
            <path
               id="path207"
               d="m -95034.774,70482.848 c 0.04,-0.256 0.04,-0.726 0.04,-1.025 0,-7.688 -5.083,-11.618 -11.747,-11.618 -6.62,0 -12.045,5.211 -12.045,11.618 0,6.365 5.425,11.576 12.045,11.576 4.87,0 8.885,-1.581 11.362,-5.724 l -5.467,-2.734 c -1.837,1.965 -2.905,2.435 -5.339,2.435 -1.922,0 -4.741,-1.153 -4.741,-4.528 z m -15.676,-4.185 c 0.128,-2.008 1.581,-3.546 4.186,-3.546 2.221,0 3.802,1.239 4.143,3.546 z" />
            <path
               id="path209"
               d="m -95032.767,70481.823 c 0,6.407 4.485,11.576 10.892,11.576 2.99,0 5.553,-1.325 7.176,-3.119 h 0.08 v 2.478 h 7.475 v -36.733 h -7.56 v 16.914 c -1.794,-1.751 -4.229,-2.734 -7.176,-2.734 -6.407,0 -10.892,5.211 -10.892,11.618 z m 8.03,0 c 0,-3.032 2.264,-5.168 5.126,-5.168 2.819,0 5.083,2.136 5.083,5.168 0,2.99 -2.136,5.126 -5.083,5.126 -3.075,0 -5.126,-2.136 -5.126,-5.126 z" />
          </g>
          <g
             id="text1962"
             style="font-style:normal;font-variant:normal;font-weight:bold;font-stretch:normal;font-size:37.33557892px;line-height:1.25;font-family:'League Spartan';-inkscape-font-specification:'League Spartan, Bold';font-variant-ligatures:normal;font-variant-caps:normal;font-variant-numeric:normal;font-feature-settings:normal;text-align:start;letter-spacing:0px;word-spacing:0px;writing-mode:lr-tb;text-anchor:start;fill:#003bb5;fill-opacity:1;stroke:none"
             transform="matrix(2.7835603,0,0,2.7835603,265704.12,-195634.85)"
             aria-label="on ethereum:">
            <path
               id="path212"
               d="m -95339.227,70483.2 c 0,5.899 4.629,10.118 11.536,10.118 6.609,0 11.425,-4.219 11.425,-10.118 0,-5.974 -5.077,-10.155 -11.425,-10.155 -6.459,0 -11.536,4.181 -11.536,10.155 z m 7.019,0 c 0,-2.651 1.979,-4.518 4.48,-4.518 2.464,0 4.443,1.867 4.443,4.518 0,2.613 -1.867,4.48 -4.443,4.48 -2.688,0 -4.48,-1.867 -4.48,-4.48 z" />
            <path
               id="path214"
               d="m -95313.242,70492.758 h 6.609 v -10.828 c 0,-1.904 1.941,-3.733 3.92,-3.733 2.128,0 3.435,1.829 3.435,3.733 v 10.828 h 6.608 v -12.62 c 0,-5.339 -4.891,-7.093 -8.4,-7.093 -2.091,0 -3.995,1.082 -5.489,2.576 h -0.07 v -2.016 h -6.609 z" />
            <path
               id="path216"
               d="m -95258.993,70484.096 c 0.04,-0.224 0.04,-0.635 0.04,-0.896 0,-6.72 -4.443,-10.155 -10.267,-10.155 -5.787,0 -10.529,4.555 -10.529,10.155 0,5.563 4.742,10.118 10.529,10.118 4.256,0 7.766,-1.382 9.931,-5.003 l -4.779,-2.39 c -1.605,1.718 -2.539,2.129 -4.667,2.129 -1.68,0 -4.144,-1.009 -4.144,-3.958 z m -13.702,-3.659 c 0.112,-1.755 1.381,-3.099 3.659,-3.099 1.941,0 3.322,1.083 3.621,3.099 z" />
            <path
               id="path218"
               d="m -95254.924,70473.605 h -2.763 v 5.04 h 2.763 v 7.355 c 0,3.398 1.27,7.318 6.534,7.318 2.726,0 4.854,-1.195 4.854,-1.195 l -1.643,-5.339 c 0,0 -0.784,0.597 -1.643,0.597 -1.045,0 -1.493,-0.858 -1.493,-2.65 v -6.086 h 4.032 v -5.04 h -4.032 v -7.131 h -6.609 z" />
            <path
               id="path220"
               d="m -95241.296,70492.758 h 6.608 v -10.828 c 0,-1.904 1.942,-3.733 3.92,-3.733 2.128,0 3.435,1.829 3.435,3.733 v 10.828 h 6.609 v -12.62 c 0,-5.339 -4.891,-7.093 -8.401,-7.093 -2.091,0 -3.995,1.082 -5.488,2.576 h -0.07 v -14.972 h -6.608 z" />
            <path
               id="path222"
               d="m -95197.24,70484.096 c 0.04,-0.224 0.04,-0.635 0.04,-0.896 0,-6.72 -4.443,-10.155 -10.267,-10.155 -5.787,0 -10.529,4.555 -10.529,10.155 0,5.563 4.742,10.118 10.529,10.118 4.256,0 7.766,-1.382 9.931,-5.003 l -4.779,-2.39 c -1.605,1.718 -2.539,2.129 -4.667,2.129 -1.68,0 -4.144,-1.009 -4.144,-3.958 z m -13.702,-3.659 c 0.112,-1.755 1.381,-3.099 3.658,-3.099 1.942,0 3.323,1.083 3.622,3.099 z" />
            <path
               id="path224"
               d="m -95194.179,70492.758 h 6.609 v -10.081 c 0,-0.485 0.485,-3.883 3.92,-3.883 2.203,0 3.435,1.046 3.435,1.046 l 2.762,-5.601 c 0,0 -1.717,-1.194 -4.181,-1.194 -3.771,0 -5.862,3.322 -5.862,3.322 h -0.07 v -2.762 h -6.609 z" />
            <path
               id="path226"
               d="m -95156.433,70484.096 c 0.04,-0.224 0.04,-0.635 0.04,-0.896 0,-6.72 -4.443,-10.155 -10.268,-10.155 -5.787,0 -10.528,4.555 -10.528,10.155 0,5.563 4.741,10.118 10.528,10.118 4.257,0 7.766,-1.382 9.932,-5.003 l -4.779,-2.39 c -1.606,1.718 -2.539,2.129 -4.667,2.129 -1.68,0 -4.144,-1.009 -4.144,-3.958 z m -13.702,-3.659 c 0.112,-1.755 1.382,-3.099 3.659,-3.099 1.942,0 3.323,1.083 3.622,3.099 z" />
            <path
               id="path228"
               d="m -95147.061,70473.605 h -6.609 v 10.715 c 0,6.422 3.211,8.998 10.379,8.998 7.169,0 10.38,-2.576 10.38,-8.998 v -10.715 h -6.609 v 9.11 c 0,3.77 -1.008,5.227 -3.771,5.227 -2.762,0 -3.77,-1.457 -3.77,-5.227 z" />
            <path
               id="path230"
               d="m -95128.804,70492.758 h 6.608 v -11.201 c 0,-1.531 0.859,-3.211 3.061,-3.211 2.353,0 3.361,1.68 3.361,3.584 v 10.828 h 6.608 v -11.425 c 0.07,-1.456 0.971,-2.987 3.062,-2.987 2.352,0 3.36,1.68 3.36,3.584 v 10.828 h 6.608 v -12.62 c 0,-5.339 -3.957,-7.093 -7.467,-7.093 -2.091,0 -4.331,1.082 -6.347,3.509 -1.344,-2.576 -4.144,-3.509 -6.683,-3.509 -2.091,0 -3.995,1.082 -5.488,2.576 h -0.07 v -2.016 h -6.608 z" />
            <path
               id="path232"
               d="m -95087.773,70472.074 c -2.352,0 -4.256,1.904 -4.256,4.293 0,2.353 1.904,4.257 4.256,4.257 2.39,0 4.294,-1.904 4.294,-4.257 0,-2.389 -1.904,-4.293 -4.294,-4.293 z m 0,12.694 c -2.352,0 -4.256,1.904 -4.256,4.294 0,2.352 1.904,4.256 4.256,4.256 2.39,0 4.294,-1.904 4.294,-4.256 0,-2.39 -1.904,-4.294 -4.294,-4.294 z" />
          </g>
        </g>
      </g>
    </g>
  </g>
</svg>
