<svg width="1600" height="900" viewBox="0 0 1600 900" fill="none" xmlns="http://www.w3.org/2000/svg">
<path d="M807.819 702.21V777.301L872.85 739.756V664.665L807.819 702.21Z" fill="#FF8080"/>
<path d="M803.174 694.165L868.204 656.62L803.174 619.074L738.143 656.62L803.174 694.165Z" fill="#FF8080"/>
<path d="M798.529 702.21V777.301L733.498 739.756V664.665L798.529 702.21Z" fill="#FF8080"/>
<path d="M872.85 659.302V653.938L937.88 616.393V621.756L942.525 624.438L877.495 661.983L872.85 659.302Z" fill="#FF8080"/>
<path d="M1016.85 582.601V657.692L1081.88 620.147V545.056L1016.85 582.601Z" fill="#FF8080"/>
<path d="M1012.2 574.556L1077.23 537.01L1012.2 499.465L947.17 537.01L1012.2 574.556Z" fill="#FF8080"/>
<path d="M1007.56 582.601V657.692L942.525 620.147V545.056L1007.56 582.601Z" fill="#FF8080"/>
<path d="M733.498 659.302V653.938L668.467 616.393V621.756L663.822 624.438L728.853 661.983L733.498 659.302Z" fill="#FF8080"/>
<path d="M598.792 581.529V656.62L663.822 619.074V543.983L598.792 581.529Z" fill="#FF8080"/>
<path d="M594.146 573.484L659.177 535.938L594.146 498.393L529.116 535.938L594.146 573.484Z" fill="#FF8080"/>
<path d="M589.501 581.529V656.62L524.471 619.074V543.983L589.501 581.529Z" fill="#FF8080"/>
<path d="M807.819 461.919V537.01L872.85 499.465V424.374L807.819 461.919Z" fill="#FF8080"/>
<path d="M803.174 453.874L868.204 416.329L803.174 378.783L738.143 416.329L803.174 453.874Z" fill="#FF8080"/>
<path d="M798.529 461.919V537.01L733.498 499.465V424.374L798.529 461.919Z" fill="#FF8080"/>
<path d="M872.85 419.011V413.647L937.88 376.102V381.465L942.525 384.147L877.495 421.692L872.85 419.011Z" fill="#FF8080"/>
<path d="M663.822 538.62V533.256L728.853 495.711V501.075L733.498 503.756L668.467 541.302L663.822 538.62Z" fill="#FF8080"/>
<path d="M1016.85 340.165V415.255L1081.88 377.71V302.619L1016.85 340.165Z" fill="#FF8080"/>
<path d="M1012.2 332.119L1077.23 294.574L1012.2 257.028L947.17 294.574L1012.2 332.119Z" fill="#FF8080"/>
<path d="M1007.56 340.165V415.255L942.525 377.71V302.619L1007.56 340.165Z" fill="#FF8080"/>
<path d="M942.525 297.256V291.892L877.495 254.347L877.495 259.71L872.85 262.392L937.88 299.938L942.525 297.256Z" fill="#FF8080"/>
<path d="M807.819 219.483V294.574L872.85 257.028V181.938L807.819 219.483Z" fill="#FF8080"/>
<path d="M803.174 211.438L868.204 173.892L803.174 136.347L738.143 173.892L803.174 211.438Z" fill="#FF8080"/>
<path d="M798.529 219.483V294.574L733.498 257.028V181.938L798.529 219.483Z" fill="#FF8080"/>
<path d="M598.792 340.165V415.255L663.822 377.71V302.619L598.792 340.165Z" fill="#FF8080"/>
<path d="M594.146 332.119L659.177 294.574L594.146 257.028L529.116 294.574L594.146 332.119Z" fill="#FF8080"/>
<path d="M589.501 340.165V415.255L524.471 377.71V302.619L589.501 340.165Z" fill="#FF8080"/>
<path d="M663.822 297.256V291.892L728.853 254.347V259.71L733.498 262.392L668.467 299.938L663.822 297.256Z" fill="#FF8080"/>
<path d="M385.119 459.238V453.874L519.826 376.102V381.465L524.471 384.147L389.764 461.92L385.119 459.238Z" fill="#FF8080"/>
<path d="M1086.52 537.01V531.647L1221.23 453.874V459.238L1225.87 461.919L1091.17 539.692L1086.52 537.01Z" fill="#FF8080"/>
<path d="M250.413 543.447V613.174L310.799 578.31V508.583L250.413 543.447Z" fill="#FF8080"/>
<path d="M245.768 535.401L306.154 500.538L245.768 465.674L185.382 500.538L245.768 535.401Z" fill="#FF8080"/>
<path d="M241.123 543.447V613.174L180.737 578.31V508.583L241.123 543.447Z" fill="#FF8080"/>
<path d="M320.089 503.22V572.947L380.474 538.084V468.356L320.089 503.22Z" fill="#FF8080"/>
<path d="M250.413 623.902V693.629L310.799 658.765V589.038L250.413 623.902Z" fill="#FF8080"/>
<path d="M320.089 583.674V653.401L380.474 618.538V548.811L320.089 583.674Z" fill="#FF8080"/>
<path d="M315.444 495.175L375.829 460.311L315.444 425.447L255.058 460.311L315.444 495.175Z" fill="#FF8080"/>
<path d="M241.123 623.902V693.629L180.737 658.765V589.038L241.123 623.902Z" fill="#FF8080"/>
<path d="M171.447 503.22V572.947L111.062 538.084V468.356L171.447 503.22Z" fill="#FF8080"/>
<path d="M171.447 583.674V653.401L111.062 618.538V548.811L171.447 583.674Z" fill="#FF8080"/>
<path d="M176.092 495.175L236.478 460.311L176.092 425.447L115.707 460.311L176.092 495.175Z" fill="#FF8080"/>
<path d="M245.768 454.947L306.154 420.083L245.768 385.22L185.382 420.083L245.768 454.947Z" fill="#FF8080"/>
<path d="M1365.22 381.464V451.192L1425.61 416.328V346.601L1365.22 381.464Z" fill="#FF8080"/>
<path d="M1360.58 373.419L1420.97 338.555L1360.58 303.691L1300.19 338.555L1360.58 373.419Z" fill="#FF8080"/>
<path d="M1355.93 381.464V451.192L1295.55 416.328V346.601L1355.93 381.464Z" fill="#FF8080"/>
<path d="M1434.9 341.238V410.965L1495.29 376.101V306.374L1434.9 341.238Z" fill="#FF8080"/>
<path d="M1365.22 461.919V531.647L1425.61 496.783V427.056L1365.22 461.919Z" fill="#FF8080"/>
<path d="M1434.9 421.692V491.419L1495.29 456.555V386.828L1434.9 421.692Z" fill="#FF8080"/>
<path d="M1430.26 333.192L1490.64 298.329L1430.26 263.465L1369.87 298.329L1430.26 333.192Z" fill="#FF8080"/>
<path d="M1355.93 461.919V531.647L1295.55 496.783V427.056L1355.93 461.919Z" fill="#FF8080"/>
<path d="M1286.26 341.238V410.965L1225.87 376.101V306.374L1286.26 341.238Z" fill="#FF8080"/>
<path d="M1286.26 421.692V491.419L1225.87 456.555V386.828L1286.26 421.692Z" fill="#FF8080"/>
<path d="M1290.9 333.192L1351.29 298.329L1290.9 263.465L1230.52 298.329L1290.9 333.192Z" fill="#FF8080"/>
<path d="M1360.58 292.965L1420.97 258.101L1360.58 223.237L1300.19 258.101L1360.58 292.965Z" fill="#FF8080"/>
<path d="M250.413 140.101V215.192L315.444 177.647V102.556L250.413 140.101Z" fill="#FF8080"/>
<path d="M245.768 132.056L310.799 94.5103L245.768 56.9648L180.737 94.5103L245.768 132.056Z" fill="#FF8080"/>
<path d="M241.123 140.101V215.192L176.092 177.647V102.556L241.123 140.101Z" fill="#FF8080"/>
<path d="M1365.22 783.738V858.829L1430.25 821.283V746.192L1365.22 783.738Z" fill="#FF8080"/>
<path d="M1360.58 775.693L1425.61 738.147L1360.58 700.602L1295.55 738.147L1360.58 775.693Z" fill="#FF8080"/>
<path d="M1355.93 783.738V858.829L1290.9 821.283V746.192L1355.93 783.738Z" fill="#FF8080"/>
<path d="M1086.52 622.829L1081.88 625.51L1286.26 743.51L1290.9 740.829V735.465L1086.52 617.465V622.829Z" fill="#FF8080"/>
<path d="M320.088 180.329L315.443 183.01L519.825 301.01L524.471 298.329V292.965L320.088 174.965V180.329Z" fill="#FF8080"/>
<path d="M0 0V900H64.9512H1558.85H1600V0H0Z" fill="url(#paint0_linear)"/>
<path d="M0 0V900H1600V0H0ZM245.768 56.9648L310.799 94.5098L245.768 132.057L180.738 94.5098L245.768 56.9648ZM176.092 102.557L241.123 140.102V215.193L176.092 177.646V102.557ZM315.443 102.557V177.646L250.414 215.193V140.102L315.443 102.557ZM803.174 136.348L868.205 173.893L803.174 211.437L738.143 173.893L803.174 136.348ZM320.088 174.965L524.471 292.965V298.328L519.826 301.012L315.443 183.01L320.088 180.328V174.965ZM733.498 181.937L798.529 219.484V294.574L733.498 257.029V181.937ZM872.85 181.937V257.029L807.818 294.574V219.484L872.85 181.937ZM1360.58 223.238L1420.96 258.102L1360.58 292.965L1300.19 258.102L1360.58 223.238ZM728.853 254.348V259.711L733.498 262.393L668.467 299.937L663.822 297.256V291.893L728.853 254.348ZM877.494 254.348L942.525 291.893V297.256L937.881 299.937L872.85 262.393L877.494 259.711V254.348ZM594.146 257.029L659.178 294.574L594.146 332.119L529.115 294.574L594.146 257.029ZM1012.2 257.029L1077.23 294.574L1012.2 332.119L947.17 294.574L1012.2 257.029ZM1290.9 263.465L1351.29 298.328L1290.9 333.193L1230.52 298.328L1290.9 263.465ZM1430.26 263.465L1490.64 298.328L1430.26 333.193L1369.87 298.328L1430.26 263.465ZM524.471 302.619L589.502 340.166V415.256L524.471 377.711V302.619ZM663.822 302.619V377.711L598.791 415.256V340.166L663.822 302.619ZM942.525 302.619L1007.56 340.166V415.256L942.525 377.711V302.619ZM1081.88 302.619V377.711L1016.85 415.256V340.166L1081.88 302.619ZM1360.58 303.693L1420.96 338.557L1360.58 373.42L1300.19 338.557L1360.58 303.693ZM1225.87 306.375L1286.26 341.238V410.965L1225.87 376.102V306.375ZM1495.29 306.375V376.102L1434.9 410.965V341.238L1495.29 306.375ZM1295.55 346.602L1355.93 381.465V451.193L1295.55 416.328V346.602ZM1425.61 346.602V416.328L1365.22 451.193V381.465L1425.61 346.602ZM519.826 376.102V381.465L524.471 384.146L389.764 461.92L385.119 459.238V453.875L519.826 376.102ZM937.881 376.102V381.465L942.525 384.146L877.494 421.693L872.85 419.012V413.646L937.881 376.102ZM803.174 378.783L868.205 416.328L803.174 453.875L738.143 416.328L803.174 378.783ZM245.768 385.221L306.154 420.084L245.768 454.947L185.383 420.084L245.768 385.221ZM1225.87 386.828L1286.26 421.693V491.42L1225.87 456.557V386.828ZM1495.29 386.828V456.557L1434.9 491.42V421.693L1495.29 386.828ZM733.498 424.375L798.529 461.92V537.012L733.498 499.465V424.375ZM872.85 424.375V499.465L807.818 537.012V461.92L872.85 424.375ZM176.092 425.447L236.479 460.311L176.092 495.174L115.707 460.311L176.092 425.447ZM315.443 425.447L375.83 460.311L315.443 495.174L255.059 460.311L315.443 425.447ZM1295.55 427.057L1355.93 461.92V531.646L1295.55 496.783V427.057ZM1425.61 427.057V496.783L1365.22 531.646V461.92L1425.61 427.057ZM1221.23 453.875V459.238L1225.87 461.92L1091.17 539.693L1086.52 537.012V531.646L1221.23 453.875ZM245.768 465.674L306.154 500.539L245.768 535.402L185.383 500.539L245.768 465.674ZM111.062 468.355L171.447 503.221V572.947L111.062 538.084V468.355ZM380.475 468.355V538.084L320.09 572.947V503.221L380.475 468.355ZM728.853 495.711V501.074L733.498 503.756L668.467 541.303L663.822 538.619V533.256L728.853 495.711ZM594.146 498.393L659.178 535.937L594.146 573.484L529.115 535.937L594.146 498.393ZM1012.2 499.465L1077.23 537.012L1012.2 574.557L947.17 537.012L1012.2 499.465ZM180.738 508.584L241.123 543.447V613.174L180.738 578.311V508.584ZM310.799 508.584V578.311L250.414 613.174V543.447L310.799 508.584ZM524.471 543.984L589.502 581.529V656.619L524.471 619.074V543.984ZM663.822 543.984V619.074L598.791 656.619V581.529L663.822 543.984ZM942.525 545.057L1007.56 582.602V657.693L942.525 620.146V545.057ZM1081.88 545.057V620.146L1016.85 657.693V582.602L1081.88 545.057ZM111.062 548.811L171.447 583.674V653.402L111.062 618.539V548.811ZM380.475 548.811V618.539L320.09 653.402V583.674L380.475 548.811ZM180.738 589.039L241.123 623.902V693.629L180.738 658.766V589.039ZM310.799 589.039V658.766L250.414 693.629V623.902L310.799 589.039ZM668.467 616.393L733.498 653.937V659.303L728.853 661.984L663.822 624.437L668.467 621.756V616.393ZM937.881 616.393V621.756L942.525 624.437L877.494 661.984L872.85 659.303V653.937L937.881 616.393ZM1086.52 617.465L1290.9 735.465V740.83L1286.26 743.512L1081.88 625.512L1086.52 622.828V617.465ZM803.174 619.074L868.205 656.619L803.174 694.166L738.143 656.619L803.174 619.074ZM733.498 664.666L798.529 702.211V777.303L733.498 739.756V664.666ZM872.85 664.666V739.756L807.818 777.303V702.211L872.85 664.666ZM1360.58 700.602L1425.61 738.146L1360.58 775.693L1295.55 738.146L1360.58 700.602ZM1290.9 746.193L1355.93 783.738V858.83L1290.9 821.283V746.193ZM1430.26 746.193V821.283L1365.22 858.83V783.738L1430.26 746.193Z" fill="#0E0133"/>
<g filter="url(#filter0_d)">
<path d="M769.47 98.627C769.47 98.627 766.165 102.929 765.872 104.06C765.588 105.192 764.233 109.965 766.611 113.192C767.896 114.938 768.589 112.481 768.911 109.286C769.054 107.84 768.848 106.735 770.736 105.172C772.113 104.041 773.647 101.757 774.221 100.571C774.803 99.3823 769.47 98.627 769.47 98.627Z" fill="#CFCECF"/>
<path d="M774.155 100.824C773.575 102.01 771.9 104.073 771.649 105.824C771.336 107.936 769.055 107.84 768.911 109.286C768.657 111.772 768.117 113.843 767.337 113.791C767.668 111.919 765.478 110.504 767.796 106.138C768.644 104.551 771.465 101.237 773.062 99.8701C774.008 100.319 774.376 100.358 774.155 100.824" fill="#CFCECF"/>
<path d="M772.826 99.8457C772.826 99.8457 772.171 105.918 771.706 107.731C771.245 109.536 770.161 110.606 769.941 110.21C769.706 109.811 770.795 104.375 768.82 104.534C767.78 104.615 772.535 100.693 772.826 99.8457Z" fill="#CFCECF"/>
<path d="M786.949 50.7404C786.949 50.7404 780.842 49.398 778.453 61.5283C776.068 73.6584 776.126 78.3763 774.396 82.5468C772.659 86.7149 768.057 100.22 768.057 100.22C768.057 100.22 771.92 100.368 773.43 103.243C773.43 103.243 783.213 86.5143 785.1 79.1738C786.982 71.8332 793.32 54.0193 786.949 50.7404Z" fill="#14BD92"/>
<path d="M774.396 82.5468C776.126 78.3763 776.068 73.6585 778.453 61.5283C779.757 54.9332 782.146 52.323 784.076 51.3125C789.862 55.0496 783.734 72.3336 781.884 79.5428C780.473 85.0334 774.825 96.2819 772.049 101.631C769.991 100.148 768.057 100.22 768.057 100.22C768.057 100.22 772.659 86.7149 774.396 82.5468Z" fill="#14BD92"/>
<path d="M803.854 162.169C803.854 162.169 805.469 165.943 803.854 166.916C802.231 167.887 802.016 168.964 799.428 168.749C796.833 168.536 797.208 169.398 796.317 170.369C795.433 171.33 786.264 175.337 784.538 173.385C782.812 171.446 787.668 169.17 789.384 168.041C791.116 166.916 795.216 162.379 795.327 161.086C795.434 159.794 803.854 162.169 803.854 162.169Z" fill="#F578A6"/>
<path d="M803.855 166.916C802.231 167.887 802.017 168.964 799.429 168.749C796.833 168.536 797.209 169.397 796.318 170.368C795.433 171.329 786.264 175.336 784.539 173.385C783.944 172.724 784.12 172.02 784.682 171.339C785.319 171.456 786.205 171.619 787.373 171.819C790.072 172.29 793.548 169.179 794.887 168.023C796.224 166.866 797.922 167.312 800.24 166.931C802.553 166.547 802.231 163.008 802.231 163.008L803.95 162.416C804.269 163.251 805.223 166.086 803.854 166.916" fill="#F578A6"/>
<path d="M820.213 174.425C820.213 174.425 820.896 178.89 819.174 181.305C817.47 183.722 813.692 187.905 812.066 187.724C810.436 187.533 810.178 186.79 810.178 186.79C810.178 186.79 809.489 183.167 810.689 179.541C811.899 175.918 811.973 174.425 811.973 174.425H820.213" fill="#F578A6"/>
<path d="M819.174 181.305C817.67 183.432 814.571 186.917 812.743 187.608C815.159 184.492 811.525 185.136 814.258 183.658C818.009 181.622 815.609 179.926 817.283 179.445C818.953 178.97 817.728 174.836 817.728 174.836L818.636 174.425H820.213C820.213 174.425 820.896 178.89 819.174 181.305" fill="#F578A6"/>
<path d="M800.364 101.8C800.364 101.8 792.654 100.965 790.082 95.2617C790.082 95.2617 789.379 107.853 790.938 122.447C792.495 137.046 793.79 162.718 793.79 162.718C793.79 162.718 798.776 167.421 803.925 162.718C803.925 162.718 805.375 145.769 803.925 136.375C803.925 136.375 804.893 119.931 803.284 111.706C801.669 103.486 800.364 101.8 800.364 101.8" fill="#5A29C4"/>
<path d="M793.789 162.718C793.789 162.718 792.495 137.045 790.938 122.446C789.379 107.852 789.913 93.3516 789.913 93.3516C791.793 97.537 796.611 101.009 798.955 101.546C798.766 107.119 798.243 123.541 798.329 129.002C798.407 134.195 799.428 155.711 799.857 164.748C796.425 165.204 793.789 162.718 793.789 162.718" fill="#5A29C4"/>
<path d="M818.468 100.923C818.468 100.923 819.216 109.462 819.374 122.729C819.54 135.991 820.503 140.991 820.827 143.022C821.143 145.06 822.274 167.258 821.632 173.736C821.632 173.736 817.443 180.21 810.844 173.736C810.844 173.736 809.722 150.982 808.596 145.798C807.463 140.617 801.161 115.455 798.612 106.426C797.491 102.439 797.227 100.923 797.227 100.923C797.227 100.923 808.332 108.91 818.468 100.923Z" fill="#5A29C4"/>
<path d="M810.844 173.736C810.844 173.736 809.723 150.982 808.596 145.798C807.463 140.617 801.161 115.455 798.612 106.426C797.491 102.439 794.888 99.3652 794.888 99.3652C794.888 99.3652 802.188 104.487 808.498 104.472C808.773 106.418 811.455 125 812.08 133.118C812.695 141.174 818.211 169.506 816.731 176.614C815.105 176.663 813.117 175.965 810.844 173.736Z" fill="#5A29C4"/>
<path d="M801.229 49.074C801.229 49.074 813.778 53.3164 814.198 54.1707C814.624 55.0227 817.971 56.7463 815.14 67.6383C815.14 67.6383 810.977 79.6347 815.518 90.3483C818.156 96.5571 820.15 99.7023 820.15 99.7023C820.15 99.7023 816.098 108.152 800.741 104.933C797.648 104.281 792.122 100.993 790.156 97.9935C790.156 97.9935 790.122 88.2705 786.668 77.4108C783.211 66.5487 780.065 52.2613 786.101 49.4083C786.101 49.4083 787.423 47.2388 801.229 49.0742" fill="#14BD92"/>
<path d="M798.16 39.6251C798.16 39.6251 796.777 46.0444 800.781 48.4615C803.011 49.8038 801.287 55.7376 795.147 57.6941C795.147 57.6941 792.216 58.0782 792.113 57.0006C791.875 54.5611 790.51 53.6596 788.901 52.3347C787.295 51.0221 798.16 39.625 798.16 39.625" fill="#CFCECF"/>
<path d="M798.298 36.2776C798.298 36.2776 799.459 43.6082 795.992 48.4746C792.922 52.8012 788.82 56.4442 786.022 51.8651C783.803 48.227 778.022 39.0043 780.7 35.6659C784.158 31.3666 784.554 27.5502 790.444 27.4561C790.444 27.4561 797.379 27.8773 798.298 36.2776Z" fill="#CFCECF"/>
<path d="M798.298 36.2774C798.298 36.2774 800.009 42.2929 796.047 48.5635C795.203 49.8984 793.942 51.1987 792.948 52.1496C794.499 49.7152 794.529 49.1307 795.455 46.5229C796.378 43.9175 792.486 46.2954 793.403 40.1755C793.715 38.0951 789.799 42.1443 788.722 42.5307C782.311 44.8264 781.376 41.0101 780.653 39.5291C780.527 38.801 780.455 38.0951 780.455 37.4438L780.609 36.057L780.7 35.6659C781.064 34.5292 781.441 33.5138 781.884 32.6074C784.632 31.6143 792.418 28.7811 792.58 28.7638C792.701 28.7487 794.726 30.0367 796.631 31.275C797.432 32.5059 798.067 34.128 798.298 36.2776" fill="#CFCECF"/>
<path d="M798.046 43.9099C798.046 43.9099 801.355 37.1985 796.952 31.1209C796.952 31.1209 793.881 26.0539 787.567 27.671C784.54 28.4413 779.645 30.8708 779.703 37.5501C779.726 39.6378 781.143 43.3477 787.567 38.7216C788.484 38.0581 791.059 36.6511 792.355 37.1489C793.656 37.6438 794.391 39.2292 794.464 40.7895C794.535 42.154 795.643 41.8667 795.693 41.5596C795.742 41.2451 795.765 37.2554 797.594 38.1073C799.228 38.8726 798.083 43.6226 798.046 43.9099Z" fill="#F578A6"/>
<path d="M798.046 43.9098C798.08 43.6226 799.228 38.8725 797.593 38.1072C795.765 37.2552 795.739 41.245 795.692 41.5595C795.643 41.8664 794.533 42.1541 794.464 40.7894C794.391 39.2291 793.656 37.6441 792.355 37.1488C791.178 36.6903 788.955 38.0181 787.567 38.7214C788.453 37.5079 790.718 36.3216 790.797 34.0234C790.886 30.9425 791.996 29.095 793.315 28.0449C795.753 29.142 796.952 31.1208 796.952 31.1208C801.354 37.1984 798.046 43.9098 798.046 43.9098" fill="#F578A6"/>
<path d="M787.962 38.8109C787.962 38.8109 791.679 36.1015 791.854 31.609C791.888 30.6456 792.325 28.9145 793.675 28.2285C793.675 28.2285 790.247 25.95 784.694 28.5724C782.087 29.7983 780.166 33.4042 779.787 34.1818C777.823 38.2409 780.582 44.3803 787.962 38.8105" fill="#F578A6"/>
<path d="M814.198 54.1705C814.624 55.0225 817.971 56.7461 815.14 67.638C815.14 67.638 810.978 79.6345 815.518 90.3481C818.156 96.5569 820.15 99.7021 820.15 99.7021C820.15 99.7021 818.12 103.875 811.575 105.232C807.873 95.9922 806.038 78.6315 804.385 66.7539C803.324 59.0988 806.089 54.3415 808.594 51.6865C811.413 52.7316 814.009 53.7892 814.198 54.1705" fill="#14BD92"/>
<path d="M806.585 56.2681C807.015 52.9322 811.447 49.0489 815.35 55.6391C819.252 62.2242 826.528 83.129 823.853 86.1653C822.808 87.349 820.937 88.7928 819.2 87.6264C816.486 85.8036 813.78 80.1868 812.725 76.9994C810.984 71.7715 806.185 59.3911 806.585 56.2681Z" fill="#14BD92"/>
<path d="M800.571 91.1061C800.571 91.1061 795.944 91.6186 794.97 90.9326C793.995 90.2537 792.743 91.3861 793.97 92.0892C795.2 92.7877 796.81 92.8272 796.81 92.8272C796.81 92.8272 791.665 94.5756 790.779 93.1791C789.893 91.7798 791.373 97.3966 794.013 97.7879C796.641 98.1895 799.454 99.103 803.558 93.7833C803.558 93.7833 802.791 91.698 800.571 91.1061" fill="#CFCECF"/>
<path d="M824.135 85.2192C824.135 85.2192 817.362 94.2983 801.578 96.0913C801.578 96.0913 802.148 93.699 799.825 91.2943C799.825 91.2943 825.742 69.29 824.135 85.2192Z" fill="#14BD92"/>
<path d="M211.528 354.61C211.528 354.61 217.343 357.497 220.342 356.831C223.354 356.163 227.413 354.055 225.726 353.094C224.04 352.128 219.466 352.46 219.235 351.214C219.003 349.969 221.878 350.249 220.516 349.572C219.156 348.896 216.536 348.659 211.615 351.237C211.615 351.237 210.189 352.713 211.528 354.61" fill="#CFCECF"/>
<path d="M181.316 324.913C181.316 324.913 176.705 323.177 176.688 328.514C176.688 328.514 177.396 335.543 182.998 345.828C182.998 345.828 188.246 355.967 190.96 356.462C193.68 356.965 213.279 356.44 213.279 356.44C213.279 356.44 212.11 353.609 213.328 350.072C213.328 350.072 196.131 348.202 194.863 346.873C193.585 345.553 185.058 325.918 181.319 324.91" fill="#14BD92"/>
<path d="M180.267 447.261C180.267 447.261 180.651 450.958 182.287 452.912C183.934 454.881 191.441 459.354 190.928 461.402C190.413 463.445 185.083 463.688 181.693 460.347C178.303 457.013 177.396 456.513 175.965 456.223C174.531 455.936 172.475 454.173 173.914 451.02C173.914 451.02 178.446 449.685 180.267 447.261Z" fill="#F578A6"/>
<path d="M182.104 363.672C182.104 363.672 188.273 393.943 184.888 410.717C184.888 410.717 183.335 423.944 182.595 427.592C181.847 431.225 181.963 451.02 181.963 451.02C181.963 451.02 176.4 453.388 173.585 450.79C173.585 450.79 169.999 430.418 173.941 417.433C173.941 417.433 169.298 392.638 169.191 384.554C169.089 376.471 168.079 369.522 168.079 369.522L182.104 363.672" fill="#7034F5"/>
<path d="M184.888 410.717C184.888 410.717 183.335 423.944 182.594 427.592C181.846 431.225 181.963 451.02 181.963 451.02C181.963 451.02 181.034 451.392 179.756 451.691C179.347 445.795 178.607 435.509 178.287 433.184C177.832 429.88 181.574 411.769 181.868 405.04C182.173 398.314 174.719 373.085 174.719 373.085L176.777 365.893L182.104 363.672C182.104 363.672 188.273 393.943 184.887 410.717" fill="#7034F5"/>
<path d="M170.457 328.765L162.713 329.397L161.863 318.805L169.6 318.173L170.457 328.765Z" fill="#F578A6"/>
<path d="M163.367 454.819C163.367 454.819 163.647 458.534 165.231 460.535C166.831 462.534 174.211 467.2 173.654 469.233C173.085 471.261 167.757 471.365 164.446 467.95C161.13 464.523 160.248 463.99 158.822 463.663C157.398 463.341 155.392 461.518 156.913 458.415C156.913 458.415 161.494 457.182 163.367 454.819Z" fill="#F578A6"/>
<path d="M156.942 373.625C156.942 373.625 150.974 382.162 153.847 399.602L155.132 420.422C155.132 420.422 151.177 427.091 154.01 447.335L156.739 459.512C156.739 459.512 160.112 461.976 163.845 456.937C163.845 456.937 163.562 426.99 164.974 422.386C166.002 419.013 170.685 404.946 172.535 391.345C173.206 386.387 180.878 378.177 180.48 373.892L156.942 373.625" fill="#7034F5"/>
<path d="M156.739 459.512L154.01 447.335C151.177 427.091 155.132 420.422 155.132 420.422L153.847 399.602C150.974 382.162 156.942 373.625 156.942 373.625L157.626 373.64L164.154 377.858C164.154 377.858 157.683 410.838 158.146 419.214C158.631 427.592 156.254 437.382 156.576 442.6C156.772 445.943 158.275 454.433 159.32 460.077C157.772 460.255 156.74 459.513 156.74 459.513" fill="#7034F5"/>
<path d="M152.95 337.106C152.95 337.106 158.23 327.142 179.883 324.671C179.883 324.671 183.313 323.234 182.986 334.371C182.937 335.976 184.598 338.718 185.728 340.174C186.862 341.63 189.851 347.207 183.296 353.877C183.296 353.877 180.765 363.793 183.788 370.212C186.498 375.936 172.344 381.535 160.296 380.371C158.815 380.225 154.714 378.798 156.016 373.625C157.309 368.459 161.187 359.868 158.753 350.348C156.341 340.818 151.336 341.952 152.95 337.106" fill="#14BD92"/>
<path d="M152.95 336.756C151.336 341.601 156.341 340.474 158.753 349.996C161.187 359.516 157.309 368.459 156.016 373.625C154.713 378.798 157.874 380.017 159.362 380.175C161.348 380.361 163.741 380.609 165.766 380.46C161.541 371.22 167.545 354.04 167.812 344.778C168.087 334.964 159.199 331.135 159.199 331.135C154.496 334.087 152.95 336.757 152.95 336.757" fill="#14BD92"/>
<path d="M183.788 370.212C180.764 363.793 183.296 353.877 183.296 353.877C189.851 347.208 186.862 341.63 185.728 340.174C184.598 338.718 182.939 335.976 182.986 334.372C183.118 329.988 182.657 327.564 182.067 326.219C180.814 327.67 178.313 327.142 179.15 332.259C179.638 335.3 178.628 339.815 173.927 339.82C169.214 339.835 171.859 347.398 172.134 349.498C174.048 364.105 166.262 370.94 168.783 380.176C178.003 378.935 185.871 374.616 183.788 370.212Z" fill="#14BD92"/>
<path d="M174.759 305.701C174.759 305.701 172.156 317.987 172.344 328.611C172.367 330.147 173.248 328.77 175.997 327.819C175.997 327.819 186.054 317.479 178.647 305.547C176.287 301.77 168.503 296.83 160.608 303.313L174.759 305.701Z" fill="#F578A6"/>
<path d="M178.191 320.053C178.191 320.053 174.712 324.847 176.876 329.525C177.473 330.823 179.108 336.172 170.68 334.587C170.68 334.587 161.772 330.907 164.144 328.119C165.737 326.261 167.188 323.641 163.986 314.971L178.191 320.053" fill="#9B94B0"/>
<path d="M164.144 328.118C163.896 328.415 163.782 328.715 163.787 329.007C171.779 329.978 176.765 324.017 176.765 324.017L165.853 315.758C165.853 315.758 165.352 316.144 164.622 316.798C166.965 324.017 165.608 326.397 164.144 328.118" fill="#CFCECF"/>
<path d="M175.608 304.455C175.608 304.455 177.889 305.037 178.476 311.615C178.539 312.343 179.777 313.215 180.217 314.998C180.666 316.811 181.639 324.102 177.456 325.206C174.422 326.006 166.671 324.652 163.555 317.474C160.439 310.287 166.002 300.29 175.608 304.455Z" fill="#CFCECF"/>
<path d="M175.393 307.125C175.393 307.125 164.684 307.442 165.566 326.699L166.883 336.318C152.633 328.331 156.11 312.246 156.11 312.246C156.11 312.246 157.329 300.009 167.569 301.013C167.569 301.013 174.442 303.038 175.393 307.125Z" fill="#F578A6"/>
<path d="M167.406 318.435C167.406 318.435 165.962 314.881 163.956 316.159C163.324 316.56 162.663 317.38 163.813 319.168C164.962 320.959 167.181 322.502 168.806 322.17L167.406 318.435" fill="#CFCECF"/>
<path d="M125.381 362.947C125.381 362.947 119.569 365.837 116.569 365.161C113.558 364.495 109.499 362.389 111.188 361.433C112.869 360.468 117.444 360.795 117.684 359.549C117.91 358.306 115.036 358.585 116.399 357.912C117.761 357.236 120.373 356.993 125.297 359.574C125.297 359.574 126.723 361.052 125.381 362.947" fill="#CFCECF"/>
<path d="M155.6 333.248C155.6 333.248 160.204 331.514 160.224 336.848C160.224 336.848 159.515 343.877 153.911 354.167C153.911 354.167 148.666 364.294 145.949 364.806C143.227 365.304 123.632 364.784 123.632 364.784C123.632 364.784 124.801 361.946 123.583 358.421C123.583 358.421 140.783 356.542 142.054 355.222C143.334 353.897 151.858 334.26 155.603 333.247" fill="#14BD92"/>
<path d="M971.341 589.417C971.341 589.417 971.014 593.645 969.209 595.935C967.394 598.219 958.966 603.548 959.61 605.857C960.256 608.17 966.341 608.291 970.108 604.388C973.88 600.492 974.893 599.876 976.52 599.499C978.137 599.13 980.428 597.052 978.697 593.511C978.697 593.511 973.483 592.111 971.341 589.417Z" fill="#F578A6"/>
<path d="M982.884 596.418C982.884 596.418 982.223 601.119 980.039 603.541C977.847 605.963 968.079 611.302 968.622 613.925C969.179 616.557 975.955 617.125 980.44 613.043C984.935 608.952 986.104 608.357 987.939 608.048C989.767 607.746 992.486 605.591 990.797 601.522C990.797 601.522 985.084 599.583 982.884 596.418Z" fill="#F578A6"/>
<path d="M1006.57 529.051C1006.57 529.051 974.145 547.224 972.186 552.955C969.367 561.167 969.892 566.749 971.247 587.121L971.163 591.921C971.163 591.921 975.313 595.301 979.858 593.005C981.265 592.285 979.824 578.884 982.077 571.422C982.077 571.422 982.783 562.564 982.099 560.211C982.099 560.211 1008.26 551.127 1014.37 545.52C1020.49 539.92 1006.57 529.051 1006.57 529.051" fill="#F578A6"/>
<path d="M1034.15 534.772C1034.15 534.772 1039.31 546.434 1025.58 553.524C1011.01 561.043 995.599 570.137 995.599 570.137C995.599 570.137 995.993 579.34 994.849 584.915C993.303 592.433 991.025 602.238 991.025 602.238C991.025 602.238 984.779 604.767 981.26 601.327C981.26 601.327 980.923 565.211 985.168 561.142C989.413 557.068 1010.64 540.933 1010.64 540.933L1006.57 529.051L1034.15 534.772Z" fill="#F578A6"/>
<path d="M1025.58 553.524C1011.01 561.043 995.599 570.137 995.599 570.137C995.599 570.137 995.993 579.34 994.849 584.915C993.304 592.433 992.204 601.886 992.204 601.886C992.204 601.886 989.923 602.605 988.4 602.676C990.564 592.981 991.525 571.393 992.516 567.425C993.737 562.504 1009.1 557.237 1020.03 551.464C1030.95 545.696 1031.45 534.219 1031.45 534.212L1034.15 534.771C1034.15 534.771 1039.31 546.434 1025.58 553.524" fill="#F578A6"/>
<path d="M970.145 586.462C968.788 566.088 969.368 561.167 972.186 552.955C974.145 547.224 1006.57 529.051 1006.57 529.051C1006.57 529.051 1008.34 530.445 1010.35 532.488C1001.6 536.797 980.646 547.677 976.73 555.032C972.245 563.46 975.603 586.935 975.153 593.674C973.134 593.514 970.43 592.488 970.43 592.488L970.145 586.462" fill="#F578A6"/>
<path d="M982.909 510.773C982.909 510.773 978.226 509.993 976.198 511.675C974.177 513.349 971.542 514.984 970.655 516.735C969.776 518.481 970.014 519.219 971.572 519.144C973.117 519.067 977.545 517.324 979.908 515.87C982.275 514.414 982.639 514.761 983.41 514.617C984.187 514.491 985.165 512.227 982.909 510.773" fill="#CFCECF"/>
<path d="M983.922 515.164C983.147 515.3 982.275 514.414 979.907 515.87C977.545 517.324 973.117 519.067 971.571 519.144L970.989 519.117C972.391 518.112 974.791 516.425 976.903 515.009C979.568 513.216 983.164 513.05 984.286 513.045C984.278 513.875 984.335 515.093 983.922 515.162" fill="#CFCECF"/>
<path d="M1014.88 483.462C1012.79 482.499 1008.9 482.583 1007.13 488.391C1005.36 494.203 1000.59 510.494 1000.59 510.494C1000.59 510.494 984.809 510.536 982.909 510.774C982.909 510.774 985.059 512.042 983.258 514.915C983.258 514.915 1000.27 521.51 1004.73 518.392C1009.19 515.279 1023.42 487.385 1014.88 483.462" fill="#CFCECF"/>
<path d="M982.909 510.774C984.809 510.536 1000.59 510.494 1000.59 510.494C1000.59 510.494 1005.36 494.203 1007.13 488.391C1008.9 482.583 1012.79 482.499 1014.88 483.462C1015.43 483.715 1015.88 484.076 1016.26 484.525L1016.34 484.787C1016.34 484.787 1010.53 486.065 1007.61 496.754C1004.7 507.438 1007.52 514.677 998.269 513.813C992.756 513.297 987.29 513.384 983.773 513.057C983.501 511.673 982.909 510.774 982.909 510.774" fill="#CFCECF"/>
<path d="M1014.4 503.423C1014.4 503.423 1006.01 503.397 1003.09 499.827C1003.09 499.827 1004.98 480.721 1013.76 482.234C1013.76 482.234 1023.14 484.478 1014.4 503.423" fill="#5A29C4"/>
<path d="M1038.37 494.708C1038.37 494.708 1032.93 485.295 1011.31 482.209C1011.31 482.209 1007.85 480.765 1008.18 491.959C1008.23 493.574 1006.55 496.331 1005.41 497.794C1004.29 499.253 1001.27 504.857 1007.87 511.561C1007.87 511.561 1010.41 521.534 1007.37 527.986C1004.65 533.746 1018.88 539.373 1030.98 538.202C1032.47 538.058 1035.78 537.077 1034.48 531.887C1033.18 526.691 1030.09 517.599 1032.54 508.022C1034.97 498.446 1039.99 499.582 1038.37 494.708" fill="#5A29C4"/>
<path d="M1038.37 494.708C1039.99 499.582 1034.97 498.445 1032.54 508.022C1030.09 517.599 1033.18 526.69 1034.48 531.886C1035.78 537.077 1032.47 538.058 1030.98 538.201C1028.99 538.392 1026.93 538.395 1024.9 538.251C1029.14 528.958 1023.71 512.088 1023.44 502.776C1023.16 492.907 1032.09 489.054 1032.09 489.054C1036.82 492.023 1038.37 494.705 1038.37 494.705" fill="#5A29C4"/>
<path d="M1013.87 528.335C1013.87 528.335 1009.24 529.387 1008.01 531.72C1006.77 534.033 1004.95 536.547 1004.8 538.504C1004.65 540.458 1005.15 541.045 1006.56 540.383C1007.97 539.725 1011.4 536.428 1013.03 534.185C1014.67 531.941 1015.13 532.122 1015.79 531.701C1016.46 531.282 1016.5 528.823 1013.87 528.335Z" fill="#CFCECF"/>
<path d="M1016.47 532.01C1015.81 532.431 1014.67 531.94 1013.03 534.184C1011.4 536.428 1007.97 539.724 1006.56 540.383L1006.02 540.581C1006.93 539.125 1008.51 536.646 1009.92 534.533C1011.71 531.864 1014.97 530.345 1016.01 529.912C1016.31 530.682 1016.83 531.787 1016.47 532.01" fill="#CFCECF"/>
<path d="M1033.06 490.923C1030.77 490.824 1027.2 492.38 1027.77 498.43C1028.34 504.473 1030.12 521.355 1030.12 521.355C1030.12 521.355 1015.54 527.391 1013.87 528.334C1013.87 528.334 1016.34 528.688 1015.77 532.027C1015.77 532.027 1034.01 531.67 1036.95 527.086C1039.89 522.512 1042.45 491.31 1033.06 490.923Z" fill="#CFCECF"/>
<path d="M1013.87 528.334C1015.54 527.391 1030.12 521.355 1030.12 521.355C1030.12 521.355 1028.34 504.473 1027.77 498.43C1027.2 492.38 1030.77 490.824 1033.06 490.923C1033.68 490.95 1034.23 491.109 1034.75 491.379L1034.92 491.594C1034.92 491.594 1030.03 494.985 1031.39 505.978C1032.75 516.972 1038.12 522.594 1029.23 525.308C1023.94 526.927 1018.92 529.082 1015.54 530.122C1014.76 528.933 1013.87 528.334 1013.87 528.334" fill="#CFCECF"/>
<path d="M1040.21 509.565C1040.21 509.565 1032.44 512.735 1028.38 510.541C1028.38 510.541 1022.86 492.153 1031.56 490.216C1031.56 490.216 1041.09 488.72 1040.21 509.565Z" fill="#5A29C4"/>
<path d="M1011.21 482.932C1010.65 484.289 1009.87 485.512 1010.61 487.008C1011.09 487.989 1011.97 488.611 1012.92 489.081C1013.67 489.445 1014.44 489.723 1015.23 490C1016.57 490.225 1017.96 490.238 1019.39 490.193H1019.42C1019.5 488.893 1030.23 485.631 1030.26 484.326C1030.31 481.32 1019.4 480.183 1018.14 477.454C1017.01 474.997 1015.09 472.837 1014.7 470.163C1014.51 468.944 1014.8 467.852 1014.91 466.653C1014.97 465.93 1014.67 465.591 1013.9 465.64C1012.13 465.762 1011.07 468.459 1010.68 469.895C1010.36 471.042 1010.28 472.248 1010.47 473.417C1010.87 476.005 1012.44 478.548 1011.76 481.062C1011.66 481.683 1011.47 482.308 1011.21 482.932" fill="#D44C6E"/>
<path d="M1013.83 479.014C1013.83 479.014 1017.33 483.103 1015.72 487.501C1015.28 488.712 1014.19 493.683 1021.7 491.627C1021.7 491.627 1029.51 487.647 1027.15 485.29C1025.58 483.725 1024.06 481.459 1026.33 473.37L1013.83 479.014Z" fill="#5A29C4"/>
<path d="M1027.15 485.289C1027.4 485.547 1027.52 485.807 1027.54 486.075C1020.36 487.531 1015.42 482.496 1015.42 482.496L1024.7 474.217C1024.7 474.217 1025.18 474.536 1025.89 475.061C1024.29 481.788 1025.69 483.836 1027.15 485.289" fill="#CFCECF"/>
<path d="M1015.04 464.69C1015.04 464.69 1013.01 465.396 1012.97 471.389C1012.95 472.055 1011.89 472.932 1011.62 474.581C1011.35 476.251 1011.01 482.932 1014.87 483.626C1017.68 484.124 1024.6 482.338 1026.9 475.602C1029.21 468.861 1023.43 460.215 1015.04 464.69Z" fill="#CFCECF"/>
<path d="M1020.01 470.289C1017.86 469.605 1014.91 468.982 1013.81 466.745C1013.6 466.319 1013.44 465.834 1013.35 465.316C1014.44 462.859 1015.52 462.872 1019.35 461.222C1021.94 460.11 1024.12 459.127 1025.75 462.325C1026.03 462.884 1026.82 463.236 1026.36 463.323C1023.19 468.206 1030.36 473.709 1025.42 475.272C1025.23 472.818 1022.09 470.948 1020.01 470.289" fill="#D44C6E"/>
<path d="M1031.49 488.437C1031.06 487.105 1030.64 486.278 1031.08 484.931C1031.5 483.653 1031.53 482.652 1032.18 481.491C1032.93 480.151 1033.19 478.581 1033.36 477.045C1033.78 473.179 1035.36 467.419 1028.64 462.545C1025.04 459.917 1020.98 463.402 1022.17 466.403C1022.85 468.12 1023.14 470.232 1023.18 472.59L1023.08 472.741C1022.15 474.665 1021.54 476.733 1022.1 478.895C1022.66 481.018 1024.96 482.449 1024.66 484.839C1024.53 485.81 1024 486.605 1023.49 487.397L1023.36 487.618C1022.95 488.97 1022.93 490.297 1024.16 491.545C1025.96 493.366 1027.65 495.409 1029.63 493.945C1031.46 492.588 1033.74 490.74 1033.82 490.54C1033.87 489.723 1031.75 489.232 1031.49 488.437Z" fill="#D44C6E"/>
<path d="M1021.81 478.046C1021.81 478.046 1023.35 474.928 1025.08 476.211C1025.63 476.625 1026.17 477.405 1025.01 478.95C1023.85 480.5 1021.75 481.758 1020.28 481.337L1021.81 478.046" fill="#CFCECF"/>
<path d="M584.762 295.33C584.762 295.33 582.623 299.976 586.61 301.524C590.599 303.072 589.63 300.39 598.318 303.557C607.012 306.725 608.278 302.215 608.399 301.17C608.673 298.763 602.545 297.67 600.648 296.957C598.754 296.244 595.061 293.911 595.061 293.911L584.583 293.869L584.762 295.333" fill="#5A29C4"/>
<path d="M602.042 140.816C602.042 140.816 598.781 139.929 596.695 145.876C596.695 145.876 598.597 128.76 614.423 135.249C614.423 135.249 604.702 134.944 602.042 140.816Z" fill="#F578A6"/>
<path d="M580.713 276.558C580.713 276.558 584.04 277.414 583.023 279.279C582.006 281.142 577.806 283.712 577.168 284.896C576.531 286.075 572.905 290.151 571.924 289.639C570.937 289.121 568.209 289.462 569.029 284.473C569.849 279.49 576.229 275.884 580.713 276.558Z" fill="#5A29C4"/>
<path d="M576.471 209.929C576.471 209.929 573.44 239.023 573.104 242.307C572.768 245.581 566.467 271.035 567.509 282.546C567.509 282.546 573.206 289.553 579.47 283.767C579.47 283.767 584.567 251.617 586.945 244.492C589.313 237.359 591.047 214.981 591.047 214.981L576.471 209.929Z" fill="#F578A6"/>
<path d="M587.179 215.208C587.179 215.208 586.706 234.149 586.296 252.936C586.296 252.936 583.437 290.017 583.77 295.426C583.77 295.426 595.399 299.612 597.161 294.109C597.161 294.109 600.195 261.537 601.186 254.766C602.186 247.988 604.824 229.084 603.261 217.858C601.693 206.639 587.179 215.208 587.179 215.208Z" fill="#F578A6"/>
<path d="M583.77 295.427C583.437 290.018 586.296 252.937 586.296 252.937C586.571 240.284 586.881 227.579 587.052 220.62L594.239 223.176C594.239 223.176 598.119 237.666 595.166 258.492C592.89 274.607 590.994 290.509 590.259 296.878C586.96 296.581 583.77 295.427 583.77 295.427Z" fill="#F578A6"/>
<path d="M567.509 282.546C566.467 271.035 572.769 245.581 573.104 242.307C573.423 239.186 576.182 212.652 576.448 210.134L582.346 215.716C582.346 215.716 582.253 236.737 579.005 248.384C576.051 258.977 575.096 280.092 573.577 286.016C570.039 285.656 567.509 282.546 567.509 282.546Z" fill="#F578A6"/>
<path d="M594.192 152.019C594.192 152.019 588.567 149.988 586.016 159.54C583.964 167.252 582.586 179.709 583.57 184.984C584.557 190.254 588.567 201.5 588.567 201.5C588.567 201.5 595.496 202.456 595.554 198.08L591.918 181.103C591.918 181.103 600.806 152.908 594.192 152.019Z" fill="#5A29C4"/>
<path d="M593.727 151.804C593.727 151.804 586.866 152.648 586.651 163.731C586.434 174.803 586.484 182.042 584.992 185.666C583.479 189.281 577.712 201.231 576.029 203.482C576.029 203.482 572.168 211.286 589.084 222.765C589.084 222.765 603.877 229.771 604.939 218.777C606.005 207.779 610.818 191.119 612.594 187.372C614.356 183.628 619.446 176.688 611.599 167.998C603.748 159.298 600.082 153.626 593.727 151.804Z" fill="#5A29C4"/>
<path d="M612.593 187.372C610.818 191.119 606.005 207.778 604.938 218.777C604.204 226.397 596.871 225.367 592.442 224.02C592.641 219.02 597.86 211.818 598.119 200.829C598.434 187.243 601.856 179.404 606.297 173.689C609.172 169.979 611.744 170.764 613.746 170.813C618.356 178.188 614.16 184.038 612.593 187.372Z" fill="#5A29C4"/>
<path d="M602.362 149.364C602.362 149.364 601.141 154.751 598.215 157.369C595.557 159.734 606.8 166.742 608.051 164.122C608.185 163.848 607.434 158.557 612.249 154.322C614.775 152.098 602.362 149.364 602.362 149.364Z" fill="#CFCECF"/>
<path d="M597.732 157.069C599.905 155.127 601.138 151.652 601.625 149.993L608.96 157.571L608.945 157.599C608.593 157.564 602.041 156.956 599.21 160.811C597.639 159.417 596.765 157.929 597.733 157.072" fill="#8D60F7"/>
<path d="M620.085 140.176C620.085 140.176 620.313 145.548 618.499 149.458C616.546 153.668 616.881 154.778 615.919 156.625C615.509 157.4 615.002 158.631 613.919 159.122C612.111 159.936 609.172 159.439 605.904 156.734C601.955 153.455 599.39 145.515 603.325 140.587C607.262 135.669 614.877 133.175 620.085 140.176" fill="#CFCECF"/>
<path d="M601.372 146.734C604.986 142.331 611.654 137.881 611.725 137.541C611.774 137.336 613.607 136.93 615.666 136.528C617.233 137.19 618.735 138.366 620.085 140.176C620.085 140.176 620.141 141.613 619.948 143.535C618.437 144.364 615.745 144.956 615.047 145.865C613.416 148.012 612.549 151.826 612.693 153.706C612.838 155.581 609.081 156.92 609.186 158.567L609.137 158.773C608.114 158.33 607.03 157.666 605.903 156.735C603.376 154.64 601.427 150.633 601.371 146.734" fill="#CFCECF"/>
<path d="M622.114 138.725C622.114 138.725 621.34 142.987 616.681 143.519C613.88 143.842 612.726 147.769 612.591 148.52C612.446 149.265 611.999 152.75 611.567 153.067C610.716 153.668 609.74 150.511 608.794 150.377C606.38 150.003 606.509 152.423 607.779 155.367C609.134 158.478 603.048 157.405 601.078 154.518C600.023 152.992 599.73 152.195 599.189 147.853C598.397 141.518 600.556 135.017 608.123 133.831C615.698 132.647 617.616 138.888 622.114 138.725Z" fill="#F578A6"/>
<path d="M601.078 154.518C600.023 152.992 599.73 152.195 599.189 147.853C598.397 141.518 600.556 135.017 608.123 133.831C615.698 132.647 617.616 138.888 622.114 138.725C622.114 138.725 621.981 139.453 621.505 140.335C619.378 139.944 613.488 139.074 611.221 140.936C608.438 143.229 606.84 141.602 605.689 145.273C604.59 148.814 602.066 153.071 607.228 157.12C604.493 157.913 601.841 155.642 601.078 154.518" fill="#F578A6"/>
<path d="M607.942 162.269L610.724 167.022C610.724 167.022 597.103 166.172 595.632 158.827C595.427 157.787 597.068 155.134 599.413 155.357C599.413 155.357 598.087 160.446 607.942 162.269Z" fill="#F578A6"/>
<path d="M625.592 183.934C625.592 183.934 625.347 180.987 626.065 180.301C626.774 179.62 628.458 176.561 628.639 175.937C628.814 175.321 629.983 174.369 630.223 174.904C630.461 175.437 629.941 179.323 629.799 180.041C629.652 180.754 632.924 179.587 633.625 178.419C634.339 177.232 635.291 175.964 635.6 176.361C635.897 176.757 637.313 180.11 634.859 183.203C632.41 186.309 629.015 187.681 629.015 187.681L625.592 183.934" fill="#CFCECF"/>
<path d="M609.671 169.779C611.467 169.456 614.596 170.38 615.247 174.519C615.889 178.655 613.232 195.456 613.232 195.456L625.992 182.243C625.992 182.243 631.101 184.489 630.614 188.063C630.614 188.063 610.973 211.154 608.418 210.894C601.557 210.186 600.202 171.458 609.671 169.779Z" fill="#5A29C4"/>
<path d="M608.418 210.894C610.973 211.154 630.615 188.063 630.615 188.063C630.699 187.404 630.599 186.795 630.377 186.225L629.83 185.237L629.676 185.017C629.142 185.571 613.377 201.86 608.745 205.05C604.412 208.044 609.433 174.989 610.254 169.731L609.671 169.781C600.203 171.46 601.558 210.188 608.419 210.896" fill="#5A29C4"/>
<path d="M612.389 479.155C612.389 479.155 607.537 479.752 607.733 485.257C607.921 490.76 613.018 514.538 618.858 519.263C624.695 523.983 624.576 512.742 624.576 512.742C624.576 512.742 620.985 477.944 612.389 479.155Z" fill="#F578A6"/>
<path d="M645.359 517.094C645.359 517.094 652.034 518.345 656.581 516.45C661.137 514.568 660.04 514.412 659.691 513.719C658.928 512.22 652.91 512.636 651.806 512.342C650.694 512.049 652.725 511.168 653.185 510.407C653.644 509.642 654.693 508.746 654.329 508.495C653.973 508.248 653.037 507.985 651.35 509.333C649.656 510.682 645.387 512.51 645.387 512.51L645.36 517.094" fill="#CFCECF"/>
<path d="M646.32 511.866C646.32 511.866 645.951 513.139 645.968 514.838C645.991 516.881 646.924 518.261 646.924 518.261C646.924 518.261 625.163 522.627 619.633 519.818C619.633 519.818 614.288 511.581 622.463 509.39L646.32 511.866" fill="#F578A6"/>
<path d="M621.512 520.41C621.002 520.444 620.4 520.266 619.712 519.85L619.633 519.816L619.61 519.782C619.362 519.628 619.119 519.48 618.855 519.26C613.015 514.535 607.918 490.757 607.73 485.254C607.696 484.194 607.878 483.38 608.138 482.651C609.919 488.781 618.215 516.9 620.756 517.395C623.092 517.851 640.066 516.845 646.181 516.466C646.471 517.571 646.921 518.257 646.921 518.257C646.921 518.257 628.934 521.858 621.509 520.407" fill="#F578A6"/>
<path d="M637.1 587.071C637.1 587.071 635.862 591.418 638.915 592.51C641.974 593.602 644.483 594.907 645.659 595.836C646.828 596.765 659.968 602.347 661.586 599.702C663.205 597.057 659.287 594.073 658.294 593.154C657.306 592.23 648.341 584.493 648.341 584.493L637.1 587.071Z" fill="#F578A6"/>
<path d="M626.478 594.632C626.478 594.632 625.247 598.979 628.303 600.076C631.352 601.163 633.863 602.463 635.037 603.397C636.216 604.326 649.346 609.903 650.966 607.268C652.581 604.623 648.663 601.634 647.677 600.715C646.694 599.791 637.724 592.052 637.724 592.052L626.478 594.632Z" fill="#F578A6"/>
<path d="M615.113 524.353C615.113 524.353 647.323 544.603 648.254 549.752C649.173 554.908 648.985 585.244 648.985 585.244C648.985 585.244 640.733 588.793 636.753 586.576L633.415 557.989C633.415 557.989 608.075 539.286 606.96 538.593C605.841 537.892 615.113 524.353 615.113 524.353Z" fill="#14BD92"/>
<path d="M606.96 538.593C608.075 539.286 633.415 557.989 633.415 557.989L636.753 586.576C638.675 587.651 641.59 587.366 644.089 586.802C642.952 578.126 640.399 559.012 639.477 554.165C638.279 547.84 612.29 532.882 612.29 532.882L606.997 537.832C606.854 538.239 606.819 538.513 606.963 538.593" fill="#14BD92"/>
<path d="M615.15 525.123C615.15 525.123 611.433 536.176 609.496 538.588C609.496 538.588 635.233 552.217 636.553 558.797C637.87 565.382 639.478 593.57 639.478 593.57C639.478 593.57 633.727 597.325 625.975 594.571C625.975 594.571 623.093 572.926 622.795 564.213C622.795 564.213 583.866 553.911 586.744 532.595C586.744 532.595 601.643 538.521 615.15 525.123Z" fill="#14BD92"/>
<path d="M622.795 564.213C623.092 572.925 625.975 594.57 625.975 594.57C627.31 595.048 628.575 595.318 629.767 595.457C629.549 592.071 629.274 587.626 628.932 581.776C627.644 559.936 624.279 560.354 624.279 560.354C599.585 549.202 594.59 538.563 594.59 538.563L586.66 533.682C585.221 554.249 622.795 564.213 622.795 564.213Z" fill="#14BD92"/>
<path d="M598.527 481.045C598.527 481.045 586.243 487.303 585.936 488.251C585.629 489.202 582.447 491.478 586.996 502.271C586.996 502.271 593.096 513.998 590.04 525.709C588.264 532.505 586.674 536.054 586.674 536.054C586.674 536.054 592.128 544.142 607.453 538.508C610.553 537.369 615.752 533.144 617.324 529.759C617.324 529.759 615.888 519.738 617.805 508.032C619.726 496.32 620.804 481.129 614.159 479.113C614.159 479.113 612.475 477.07 598.527 481.045" fill="#F578A6"/>
<path d="M602.846 477.286C602.846 477.286 611.775 481.989 607.8 488.723L611.997 491.031C611.997 491.031 616.116 479.25 602.846 477.286Z" fill="#CCCCCC"/>
<path d="M597.118 472.543C597.118 472.543 600.872 478.251 597.896 482.105C596.234 484.255 600.149 489.361 606.843 488.95C606.843 488.95 609.828 488.22 609.523 487.132C608.832 484.668 609.818 483.284 610.885 481.399C611.945 479.515 597.118 472.543 597.118 472.543Z" fill="#CFCECF"/>
<path d="M597.896 482.105C597.699 482.36 597.573 482.66 597.541 482.984C600.055 480.433 604.864 480.243 604.864 480.243L598.507 473.209C598.262 473.093 598.049 472.994 597.863 472.907L597.67 473.526C598.591 475.322 600.117 479.23 597.895 482.105" fill="#F578A6"/>
<path d="M609.523 487.133C608.891 483.227 609.818 483.284 610.885 481.4C611.181 480.882 610.271 479.983 608.803 478.95C608.441 479.217 608.075 479.619 607.718 480.174C605.122 484.171 605.14 487.286 605.452 488.951C605.902 488.977 606.366 489.025 606.844 488.951C607.644 488.829 609.716 488.344 609.523 487.133Z" fill="#CFCECF"/>
<path d="M595.724 469.343C595.724 469.343 597.358 476.894 602.552 480.322C607.156 483.358 612.518 485.349 613.498 479.856C614.283 475.485 616.428 464.365 612.572 462.127C607.604 459.254 605.784 455.705 600.028 457.827C600.028 457.827 593.453 460.844 595.724 469.343" fill="#CFCECF"/>
<path d="M595.724 469.343C595.724 469.343 596.326 475.827 602.527 480.421C603.862 481.404 605.563 482.189 606.888 482.744C604.464 480.961 604.216 480.401 602.341 478.224C600.457 476.035 605.14 476.874 601.943 471.292C600.863 469.39 606.18 471.842 607.374 471.81C614.454 471.631 613.927 467.575 614.065 465.863C613.922 465.113 613.726 464.397 613.481 463.763L612.807 462.473L612.572 462.126C611.796 461.165 611.036 460.321 610.273 459.607C607.24 459.671 598.614 459.86 598.443 459.898C598.321 459.932 596.843 461.946 595.466 463.858C595.139 465.354 595.139 467.169 595.723 469.343" fill="#CFCECF"/>
<path d="M598.835 476.656C598.835 476.656 593.096 471.391 595.088 463.835C595.088 463.835 596.162 457.76 602.903 456.95C606.128 456.566 612.332 456.767 614.786 463.275C615.556 465.304 615.036 469.752 607.062 467.681C605.92 467.379 602.884 466.983 601.819 467.954C600.741 468.922 600.63 470.742 601.145 472.28C601.6 473.632 600.399 473.779 600.236 473.494C600.073 473.209 598.539 469.338 597.098 470.854C595.793 472.216 598.691 476.394 598.834 476.656" fill="#F578A6"/>
<path d="M598.835 476.656C598.691 476.394 595.793 472.216 597.098 470.854C598.54 469.338 600.073 473.209 600.236 473.494C600.4 473.779 601.601 473.633 601.145 472.28C600.63 470.742 600.741 468.922 601.819 467.954C602.79 467.072 605.447 467.523 607.062 467.681C605.735 466.834 603.102 466.535 602.158 464.333C600.905 461.381 599.132 459.999 597.46 459.481C595.514 461.46 595.088 463.835 595.088 463.835C593.097 471.391 598.835 476.656 598.835 476.656" fill="#F578A6"/>
<path d="M598.82 480.253C598.82 480.253 600.172 486.997 607.8 488.723L605.62 494.04C605.62 494.04 591.95 487.187 598.82 480.253Z" fill="#CCCCCC"/>
<path d="M585.936 488.252C585.629 489.202 582.447 491.479 586.996 502.271C586.996 502.271 592.123 513.904 589.453 525.606C588.311 530.63 588.413 530.975 586.501 535.242C585.401 537.686 590.199 539.157 594.567 540.5C597.19 534.291 596.903 534.189 598 527.398C599.488 518.089 598.438 510.434 590.81 501.097C584.106 492.888 586.932 489.693 586.778 487.528C586.291 487.856 585.983 488.11 585.936 488.252Z" fill="#F578A6"/>
<path d="M614.786 463.276C614.786 463.276 615.96 470.542 606.707 467.912C606.707 467.912 602.081 466.678 600.219 462.384C599.823 461.475 598.755 459.955 597.185 459.791C597.185 459.791 599.652 456.297 606.026 456.74C609.02 456.955 612.141 459.87 612.899 460.341C613.667 460.821 612.426 463.858 614.786 463.276Z" fill="#F578A6"/>
<path d="M613.972 536.53C613.972 536.53 621.329 542.603 628.536 541.186C628.536 541.186 628.521 539.317 625.322 538.616C622.127 537.917 620.903 535.468 620.923 535.094C620.95 534.72 623.462 534.507 624.586 534.45C625.715 534.401 627.058 532.855 624.321 532.687C621.587 532.521 616.914 531.471 614.254 532.053C614.254 532.053 611.601 534.884 613.972 536.531" fill="#CFCECF"/>
<path d="M590.229 486.05C590.229 486.05 584.188 487.444 582.722 492.751C581.263 498.064 578.997 522.277 583.158 528.525C587.316 534.781 614.437 538.07 614.437 538.07C612.485 533.951 615.257 530.546 615.257 530.546L591.834 520.751C591.834 520.751 596.026 488.348 590.229 486.05Z" fill="#F578A6"/>
<path d="M321.345 308.79L321.371 319.564L330.113 314.519L330.079 303.748L321.339 308.79" fill="#CFCECF"/>
<path d="M320.408 441.029C320.408 441.029 316.79 441.571 317.672 443.659C318.543 445.75 322.709 448.917 323.256 450.247C323.811 451.562 327.209 456.272 328.301 455.839C329.406 455.396 332.256 456.062 331.927 450.681C331.602 445.306 325.235 440.801 320.408 441.029Z" fill="#F578A6"/>
<path d="M313.499 460.772C313.499 460.772 315.257 465.925 310.871 467.133C306.485 468.332 307.793 465.596 298.26 468.011C288.708 470.427 287.611 465.492 287.834 464.382C288.054 463.29 294.414 461.313 296.502 460.772C298.58 460.227 302.532 459.238 302.532 459.238H313.843L313.499 460.772" fill="#F578A6"/>
<path d="M331.531 370.246C331.531 370.246 331.594 401.394 331.594 404.896C331.594 408.403 335.512 436.034 333.156 448.099C333.156 448.099 326.363 454.91 320.36 448.099C320.36 448.099 318.438 413.507 316.7 405.704C314.966 397.895 315.548 374.013 315.548 374.013L331.534 370.246" fill="#8D60F7"/>
<path d="M319.618 374.672C319.618 374.672 318.068 394.779 316.475 414.718C316.475 414.718 315.467 454.291 314.536 459.995C314.536 459.995 301.775 463.165 300.492 457.15C300.492 457.15 300.816 422.316 300.492 415.04C300.18 407.759 299.424 387.457 302.305 375.744C305.18 364.033 319.618 374.672 319.618 374.672" fill="#8D60F7"/>
<path d="M314.537 459.994C315.468 454.29 316.476 414.717 316.476 414.717C317.551 401.294 318.596 387.805 319.168 380.417L311.28 382.349C311.28 382.349 305.604 397.27 306.468 419.643C307.144 436.962 307.416 453.99 307.513 460.824C311.037 460.858 314.537 459.994 314.537 459.994Z" fill="#8D60F7"/>
<path d="M333.153 448.1C335.508 436.034 331.59 408.403 331.59 404.896C331.59 401.557 331.534 373.156 331.534 370.475L324.681 375.744C324.681 375.744 322.509 398.006 324.681 410.689C326.66 422.227 325.392 444.687 326.355 451.133C330.142 451.133 333.156 448.1 333.156 448.1" fill="#8D60F7"/>
<path d="M335.052 319.118C331.179 318.999 328.541 331.533 324.759 341.501L306.351 333.403C305.556 332.447 303.924 330.418 303.325 329.15C302.517 327.437 301.678 327.288 301.301 327.34C300.92 327.396 301.405 328.507 301.472 329.285C301.535 330.064 302.802 331.538 301.809 331.347C300.828 331.147 296.247 328.507 295.073 329.396C294.53 329.802 293.602 329.499 296.467 332.747C298.51 335.065 302.02 336.528 303.857 337.177C312.619 345.652 325.074 350.736 325.074 350.736V350.728C326.446 351.12 327.994 350.57 327.994 350.57C334.146 345.676 337.392 335.664 338.628 326.324C339.512 319.645 335.052 319.115 335.052 319.115" fill="#CFCECF"/>
<path d="M333.568 318.468C335.567 317.862 339.386 318.317 339.386 324.442C339.386 330.567 339.185 332.672 337.107 337.652C336.085 340.124 328.707 338.994 326.77 334.98C325.651 332.651 329.589 319.672 333.568 318.468Z" fill="#F578A6"/>
<path d="M334.861 317.392C334.861 317.392 340.714 320.466 337.165 330.45C333.611 340.446 331.112 346.905 331.233 350.651C331.362 354.401 332.489 367.054 333.227 369.63C333.227 369.63 334.052 377.931 315.022 382.488C315.022 382.488 299.414 383.753 302.178 373.553C304.952 363.352 306.262 346.803 305.953 342.858C305.628 338.898 303.421 330.973 313.39 325.841C323.355 320.713 328.561 316.879 334.861 317.392Z" fill="#F578A6"/>
<path d="M305.953 342.858C306.262 346.803 304.952 363.351 302.178 373.553C300.267 380.628 307.176 382.186 311.602 382.475C313.107 377.928 310.876 369.714 314.363 359.787C318.655 347.522 318.256 339.349 316.208 332.731C314.886 328.44 312.32 328.276 310.51 327.637C303.897 332.68 305.668 339.341 305.953 342.858Z" fill="#F578A6"/>
<path d="M333.227 369.63C332.489 367.054 331.362 354.401 331.233 350.651C331.112 346.905 333.698 340.473 337.165 330.45C340.441 320.988 336.88 318.416 334.861 317.392C333.72 322.303 316.594 324.051 316.936 327.357C317.322 331.037 321.825 334.554 321.956 341.132C322.097 347.712 321.05 357.422 319.797 362.259C318.717 366.472 319.009 376.7 319.881 381.118C333.911 376.452 333.227 369.63 333.227 369.63" fill="#F578A6"/>
<path d="M327.954 312.285C327.954 312.285 327.224 317.525 328.96 320.846C330.542 323.871 318.105 326.347 317.865 323.571C317.842 323.279 320.309 318.798 317.421 313.374C315.916 310.539 327.954 312.285 327.954 312.285" fill="#CFCECF"/>
<path d="M315.195 298.067C315.195 298.067 313.176 302.802 313.476 306.915C313.8 311.346 313.122 312.228 313.367 314.197C313.466 315.041 313.508 316.304 314.308 317.116C315.651 318.464 318.454 318.999 322.29 317.684C326.931 316.089 331.917 309.848 330.062 304.112C328.197 298.366 322.228 293.557 315.195 298.067" fill="#CFCECF"/>
<path d="M329.73 310.264C327.987 305.106 323.521 298.865 323.568 298.533C323.602 298.337 322.097 297.354 320.384 296.299C318.759 296.362 317.018 296.9 315.195 298.067C315.195 298.067 314.652 299.33 314.177 301.123C315.252 302.371 317.459 303.813 317.781 304.858C318.519 307.339 317.996 311.047 317.233 312.681C316.475 314.308 319.38 316.775 318.736 318.216L318.71 318.411C319.775 318.355 320.964 318.137 322.291 317.684C325.265 316.663 328.356 313.743 329.731 310.264" fill="#CFCECF"/>
<path d="M314.913 297.069C314.913 297.069 314.177 300.432 317.117 302.208C319.423 303.607 319.217 307.344 319.086 308.067C318.96 308.791 318.187 312.069 318.47 312.493C319.014 313.315 320.963 310.824 321.86 311.009C324.136 311.495 323.205 313.622 321.075 315.819C318.819 318.157 324.624 319.247 327.36 317.335C328.819 316.322 329.347 315.713 331.308 312.003C334.151 306.606 334.419 300.053 328.039 296.425C321.664 292.807 317.358 295.712 314.913 297.069" fill="#F578A6"/>
<path d="M327.36 317.334C328.819 316.322 329.921 315.96 331.875 312.245C334.721 306.849 335.404 297.73 328.078 295.263C321.132 292.918 316.434 295.776 314.913 297.069C314.913 297.069 314.781 297.581 314.913 298.532C316.946 298.907 321.478 299.308 322.875 301.747C324.591 304.736 326.582 303.822 326.36 307.498C326.139 311.042 326.969 315.702 320.973 317.587C323.165 319.214 326.295 318.078 327.36 317.334" fill="#F578A6"/>
<path d="M318.595 321.948L314.499 325.264C314.499 325.264 326.983 329.108 330.775 323.031C331.315 322.166 330.741 319.238 328.566 318.649C328.566 318.649 328.039 323.645 318.595 321.948Z" fill="#F578A6"/>
<path d="M311.252 328.286C307.386 328.174 304.744 340.705 300.965 350.673L282.554 342.578C281.754 341.617 280.134 339.591 279.528 338.324C278.715 336.612 277.878 336.459 277.507 336.512C277.126 336.576 277.611 337.679 277.67 338.46C277.741 339.237 279.005 340.711 278.017 340.515C277.024 340.32 272.45 337.679 271.276 338.566C270.736 338.983 269.805 338.678 272.67 341.919C274.716 344.232 278.223 345.698 280.058 346.344C288.822 354.825 301.279 359.914 301.279 359.914L301.272 359.907C302.646 360.298 304.189 359.743 304.189 359.743C310.341 354.857 313.598 344.836 314.829 335.505C315.72 328.826 311.25 328.288 311.25 328.288" fill="#CFCECF"/>
<path d="M309.776 327.637C311.768 327.033 315.586 327.494 315.586 333.619C315.586 339.743 315.388 341.845 313.318 346.831C312.29 349.3 304.905 348.165 302.971 344.149C301.854 341.828 305.792 328.841 309.776 327.637Z" fill="#F578A6"/>
<path d="M1407.46 216.361C1407.46 216.361 1406.09 213.153 1401.85 213.111C1401.85 213.111 1402.9 217.109 1407.46 216.361Z" fill="#F578A6"/>
<path d="M1403.35 211.46C1403.35 211.46 1399.82 215.948 1399.5 217.131C1399.18 218.32 1397.7 223.325 1400.16 226.753C1401.5 228.605 1402.26 226.03 1402.63 222.669C1402.8 221.151 1402.6 219.982 1404.61 218.357C1406.07 217.188 1407.71 214.808 1408.34 213.563C1408.96 212.317 1403.35 211.46 1403.35 211.46" fill="#CFCECF"/>
<path d="M1408.26 213.83C1407.64 215.071 1405.85 217.216 1405.56 219.063C1405.21 221.277 1402.8 221.151 1402.63 222.669C1402.34 225.28 1401.75 227.459 1400.92 227.392C1401.29 225.426 1399 223.91 1401.5 219.343C1402.41 217.681 1405.42 214.232 1407.12 212.812C1408.12 213.293 1408.5 213.34 1408.26 213.83" fill="#CFCECF"/>
<path d="M1406.87 212.78C1406.87 212.78 1406.11 219.165 1405.6 221.064C1405.09 222.966 1403.93 224.071 1403.71 223.657C1403.47 223.231 1404.67 217.523 1402.6 217.664C1401.5 217.738 1406.56 213.667 1406.87 212.78Z" fill="#CFCECF"/>
<path d="M1422.36 161.267C1422.36 161.267 1415.94 159.781 1413.28 172.513C1410.61 185.255 1410.61 190.223 1408.74 194.589C1406.86 198.955 1401.85 213.111 1401.85 213.111C1401.85 213.111 1405.91 213.319 1407.46 216.361C1407.46 216.361 1417.98 198.876 1420.05 191.174C1422.13 183.474 1429.02 164.799 1422.36 161.267Z" fill="#14BD92"/>
<path d="M1408.74 194.589C1410.61 190.223 1410.61 185.255 1413.28 172.513C1414.73 165.591 1417.28 162.872 1419.32 161.837C1425.37 165.839 1418.7 183.96 1416.66 191.521C1415.11 197.284 1409.02 209.048 1406.03 214.655C1403.88 213.07 1401.85 213.112 1401.85 213.112C1401.85 213.112 1406.86 198.956 1408.74 194.589Z" fill="#14BD92"/>
<path d="M1428.76 284.491C1428.76 284.491 1430.46 288.471 1428.76 289.482C1427.05 290.514 1426.83 291.646 1424.1 291.423C1421.37 291.19 1421.77 292.104 1420.83 293.125C1419.89 294.143 1410.25 298.353 1408.42 296.307C1406.61 294.254 1411.71 291.862 1413.53 290.673C1415.35 289.482 1419.67 284.717 1419.79 283.355C1419.89 281.992 1428.76 284.491 1428.76 284.491Z" fill="#F578A6"/>
<path d="M1428.76 289.482C1427.05 290.515 1426.83 291.646 1424.1 291.424C1421.37 291.19 1421.77 292.104 1420.83 293.125C1419.89 294.143 1410.24 298.353 1408.42 296.307C1407.8 295.601 1407.99 294.866 1408.58 294.148C1409.25 294.264 1410.19 294.44 1411.41 294.65C1414.25 295.146 1417.91 291.872 1419.32 290.653C1420.73 289.44 1422.52 289.913 1424.96 289.507C1427.39 289.1 1427.05 285.373 1427.05 285.373L1428.86 284.749C1429.2 285.636 1430.21 288.62 1428.76 289.482" fill="#F578A6"/>
<path d="M1445.98 297.396C1445.98 297.396 1446.7 302.094 1444.89 304.64C1443.09 307.186 1439.12 311.585 1437.4 311.387C1435.68 311.193 1435.41 310.416 1435.41 310.416C1435.41 310.416 1434.7 306.594 1435.95 302.78C1437.22 298.964 1437.31 297.396 1437.31 297.396H1445.98" fill="#F578A6"/>
<path d="M1444.89 304.641C1443.3 306.874 1440.04 310.542 1438.12 311.265C1440.66 307.989 1436.84 308.67 1439.72 307.112C1443.66 304.967 1441.14 303.182 1442.9 302.682C1444.66 302.179 1443.37 297.832 1443.37 297.832L1444.32 297.396H1445.98C1445.98 297.396 1446.7 302.095 1444.89 304.64" fill="#F578A6"/>
<path d="M1425.09 220.942C1425.09 220.942 1416.97 220.066 1414.27 214.058C1414.27 214.058 1413.52 227.307 1415.16 242.677C1416.81 258.041 1418.17 285.071 1418.17 285.071C1418.17 285.071 1423.41 290.019 1428.83 285.071C1428.83 285.071 1430.36 267.224 1428.83 257.336C1428.83 257.336 1429.85 240.027 1428.16 231.371C1426.46 222.708 1425.09 220.942 1425.09 220.942" fill="#5A29C4"/>
<path d="M1418.17 285.071C1418.17 285.071 1416.81 258.042 1415.16 242.677C1413.52 227.307 1414.09 212.052 1414.09 212.052C1416.07 216.455 1421.14 220.108 1423.6 220.67C1423.41 226.545 1422.86 243.829 1422.95 249.574C1423.03 255.047 1424.1 277.696 1424.56 287.206C1420.94 287.686 1418.17 285.071 1418.17 285.071" fill="#5A29C4"/>
<path d="M1444.15 220.019C1444.15 220.019 1444.93 229.001 1445.1 242.971C1445.27 256.934 1446.29 262.197 1446.63 264.337C1446.96 266.479 1448.15 289.85 1447.48 296.673C1447.48 296.673 1443.07 303.484 1436.12 296.673C1436.12 296.673 1434.94 272.715 1433.75 267.261C1432.56 261.81 1425.92 235.316 1423.24 225.811C1422.07 221.613 1421.78 220.019 1421.78 220.019C1421.78 220.019 1433.48 228.426 1444.15 220.019Z" fill="#5A29C4"/>
<path d="M1436.12 296.673C1436.12 296.673 1434.94 272.715 1433.75 267.262C1432.56 261.811 1425.92 235.317 1423.24 225.811C1422.07 221.614 1419.32 218.382 1419.32 218.382C1419.32 218.382 1427 223.768 1433.65 223.749C1433.94 225.802 1436.76 245.359 1437.42 253.913C1438.07 262.388 1443.88 292.216 1442.32 299.697C1440.61 299.746 1438.52 299.016 1436.12 296.673Z" fill="#5A29C4"/>
<path d="M1436.51 164.259C1436.51 164.259 1448.47 171.458 1448.7 172.434C1448.95 173.41 1452 175.931 1446.63 186.496C1446.63 186.496 1439.64 197.886 1441.89 209.924C1443.2 216.908 1444.54 220.591 1444.54 220.591C1444.54 220.591 1438.47 228.362 1423.41 221.586C1420.36 220.214 1415.42 215.588 1414.09 212.051C1414.09 212.051 1416.24 202.056 1415.14 190.107C1414.05 178.157 1414.04 162.756 1420.88 161.193C1420.88 161.193 1422.74 159.254 1436.51 164.259Z" fill="#14BD92"/>
<path d="M1435.5 153.862C1435.5 153.862 1432.63 160.143 1436.2 163.531C1438.19 165.418 1435.07 171.129 1428.32 171.753C1428.32 171.753 1425.22 171.477 1425.36 170.354C1425.66 167.788 1424.47 166.552 1423.11 164.831C1421.76 163.125 1435.5 153.862 1435.5 153.862" fill="#CFCECF"/>
<path d="M1436.2 163.531C1436.43 163.755 1436.6 164.034 1436.69 164.361C1433.78 162.196 1428.95 162.746 1428.95 162.746L1434.21 154.744C1434.44 154.584 1434.64 154.444 1434.81 154.328L1435.1 154.925C1434.46 156.864 1433.54 161.002 1436.2 163.531" fill="#DC8858"/>
<path d="M1436.4 150.447C1436.4 150.447 1435.93 158.246 1431.27 162.466C1427.14 166.218 1422.1 169.034 1420.26 163.699C1418.8 159.454 1414.94 148.669 1418.45 145.848C1422.97 142.195 1424.24 138.366 1430.31 139.597C1430.31 139.597 1437.35 141.598 1436.4 150.447Z" fill="#CFCECF"/>
<path d="M1436.4 150.448C1436.4 150.448 1436.8 157.021 1431.31 162.566C1430.14 163.749 1428.55 164.799 1427.32 165.56C1429.46 163.4 1429.62 162.813 1431.16 160.332C1432.7 157.863 1428.16 159.425 1430.48 153.348C1431.28 151.282 1426.34 154.556 1425.13 154.715C1418.03 155.624 1417.93 151.493 1417.53 149.794C1417.55 149.026 1417.64 148.288 1417.79 147.607L1418.26 146.223L1418.45 145.849C1419.07 144.756 1419.69 143.795 1420.35 142.966C1423.4 142.559 1432.04 141.413 1432.22 141.428C1432.34 141.435 1434.13 143.223 1435.81 144.925C1436.36 146.371 1436.64 148.181 1436.4 150.447" fill="#CFCECF"/>
<path d="M1434.42 158.236C1434.42 158.236 1439.34 152.085 1436.18 144.836C1436.18 144.836 1434.17 138.927 1427.31 139.169C1424.03 139.281 1418.44 140.668 1416.99 147.55C1416.55 149.705 1417.16 153.838 1424.81 150.537C1425.91 150.052 1428.87 149.192 1430.09 149.994C1431.32 150.802 1431.71 152.597 1431.44 154.217C1431.2 155.638 1432.41 155.596 1432.53 155.289C1432.64 154.972 1433.57 150.876 1435.26 152.164C1436.77 153.32 1434.52 157.951 1434.42 158.236" fill="#F578A6"/>
<path d="M1434.42 158.236C1434.52 157.951 1436.77 153.32 1435.26 152.164C1433.57 150.876 1432.64 154.972 1432.53 155.289C1432.41 155.596 1431.2 155.638 1431.44 154.217C1431.71 152.597 1431.32 150.801 1430.09 149.994C1428.99 149.264 1426.39 150.126 1424.81 150.537C1426 149.492 1428.6 148.778 1429.19 146.431C1429.99 143.288 1431.55 141.636 1433.14 140.858C1435.4 142.537 1436.18 144.836 1436.18 144.836C1439.34 152.085 1434.42 158.236 1434.42 158.236" fill="#F578A6"/>
<path d="M1413.15 146.73C1413.15 146.73 1416.36 154.776 1425.2 150.707C1425.2 150.707 1429.63 148.768 1430.83 144.189C1431.09 143.208 1431.92 141.524 1433.46 141.123C1433.46 141.123 1430.46 138.013 1424.15 139.444C1421.19 140.125 1418.53 143.515 1417.84 144.11C1417.15 144.702 1415.6 146.948 1413.15 146.73Z" fill="#F578A6"/>
<path d="M1448.7 172.434C1448.95 173.41 1452 175.931 1446.63 186.496C1446.63 186.496 1439.64 197.886 1441.89 209.924C1443.2 216.908 1444.54 220.591 1444.54 220.591C1444.54 220.591 1441.51 224.427 1434.48 224.343C1432.75 214.001 1434.78 195.741 1435.77 183.153C1436.41 175.047 1440.33 170.775 1443.5 168.61C1446.16 170.327 1448.59 171.996 1448.7 172.434Z" fill="#14BD92"/>
<path d="M1423.02 174.608C1423.02 174.608 1423.31 169.593 1424.22 168.674C1425.12 167.756 1424.15 166.218 1423.18 167.406C1422.2 168.585 1421.87 170.289 1421.87 170.289C1421.87 170.289 1420.94 164.492 1422.6 163.801C1424.25 163.11 1417.99 163.669 1417.09 166.403C1416.19 169.135 1414.7 171.968 1419.62 177.308C1419.62 177.308 1421.99 176.864 1423.02 174.608Z" fill="#CFCECF"/>
<path d="M1442.71 172.006C1446.02 170.111 1452.48 171.622 1449.1 179.888C1445.73 188.148 1431.12 207.158 1426.59 206.717C1422.05 206.273 1423.71 197.21 1427.3 191.944C1430.89 186.684 1439.61 173.786 1442.71 172.006Z" fill="#14BD92"/>
<path d="M1425.28 206.444C1425.28 206.444 1416.86 195.872 1417.83 175.396C1417.83 175.396 1420.28 176.637 1423.27 174.202C1423.27 174.202 1436.13 209.798 1425.28 206.444Z" fill="#14BD92"/>
<path d="M1287.38 305.437C1287.38 305.437 1285.24 310.083 1289.23 311.63C1293.22 313.178 1292.25 310.496 1300.94 313.664C1309.63 316.831 1310.9 312.321 1311.02 311.276C1311.29 308.869 1305.16 307.777 1303.27 307.064C1301.37 306.35 1297.68 304.018 1297.68 304.018L1287.2 303.976L1287.38 305.439" fill="#5A29C4"/>
<path d="M1304.66 150.923C1304.66 150.923 1301.4 150.036 1299.31 155.982C1299.31 155.982 1301.22 138.867 1317.04 145.355C1317.04 145.355 1307.32 145.051 1304.66 150.923Z" fill="#F578A6"/>
<path d="M1328.59 203.481L1329.16 204.675L1327.22 203.276L1326.65 202.082L1328.59 203.481" fill="#F578A6"/>
<path d="M1283.33 286.664C1283.33 286.664 1286.66 287.521 1285.64 289.386C1284.63 291.248 1280.43 293.819 1279.79 295.003C1279.15 296.181 1275.52 300.258 1274.54 299.745C1273.56 299.228 1270.83 299.569 1271.65 294.579C1272.47 289.596 1278.85 285.99 1283.33 286.664" fill="#5A29C4"/>
<path d="M1279.09 220.035C1279.09 220.035 1276.06 249.13 1275.72 252.414C1275.39 255.688 1269.09 281.142 1270.13 292.653C1270.13 292.653 1275.83 299.659 1282.09 293.874C1282.09 293.874 1287.19 261.723 1289.56 254.598C1291.93 247.466 1293.67 225.087 1293.67 225.087L1279.09 220.035Z" fill="#F578A6"/>
<path d="M1289.8 225.314C1289.8 225.314 1289.33 244.255 1288.92 263.042C1288.92 263.042 1286.06 300.124 1286.39 305.533C1286.39 305.533 1298.02 309.718 1299.78 304.215C1299.78 304.215 1302.81 271.643 1303.81 264.873C1304.8 258.094 1307.44 239.191 1305.88 227.964C1304.31 216.746 1289.8 225.314 1289.8 225.314Z" fill="#F578A6"/>
<path d="M1286.39 305.534C1286.06 300.125 1288.92 263.043 1288.92 263.043C1289.19 250.391 1289.5 237.686 1289.67 230.727L1296.86 233.282C1296.86 233.282 1300.74 247.773 1297.79 268.598C1295.51 284.713 1293.61 300.615 1292.88 306.985C1289.58 306.688 1286.39 305.534 1286.39 305.534Z" fill="#F578A6"/>
<path d="M1270.13 292.652C1269.09 281.141 1275.39 255.687 1275.72 252.413C1276.04 249.293 1278.8 222.759 1279.07 220.24L1284.97 225.822C1284.97 225.822 1284.87 246.843 1281.62 258.491C1278.67 269.083 1277.72 290.198 1276.2 296.122C1272.66 295.763 1270.13 292.652 1270.13 292.652Z" fill="#F578A6"/>
<path d="M1296.81 162.125C1296.81 162.125 1291.19 160.094 1288.64 169.646C1286.58 177.358 1285.21 189.816 1286.19 195.091C1287.18 200.361 1291.19 211.607 1291.19 211.607C1291.19 211.607 1298.12 212.563 1298.17 208.187L1294.54 191.21C1294.54 191.21 1303.43 163.014 1296.81 162.125Z" fill="#5A29C4"/>
<path d="M1296.35 161.91C1296.35 161.91 1289.49 162.755 1289.27 173.837C1289.05 184.91 1289.1 192.149 1287.61 195.772C1286.1 199.388 1280.33 211.337 1278.65 213.589C1278.65 213.589 1274.79 221.392 1291.7 232.871C1291.7 232.871 1306.5 239.877 1307.56 228.884C1308.62 217.885 1313.44 201.226 1315.21 197.479C1316.98 193.734 1322.07 186.795 1314.22 178.104C1306.37 169.404 1302.7 163.733 1296.35 161.91Z" fill="#5A29C4"/>
<path d="M1315.21 197.478C1313.44 201.225 1308.62 217.885 1307.56 228.883C1306.82 236.504 1299.49 235.473 1295.06 234.126C1295.26 229.126 1300.48 221.924 1300.74 210.936C1301.05 197.349 1304.48 189.511 1308.92 183.795C1311.79 180.085 1314.36 180.87 1316.37 180.92C1320.98 188.295 1316.78 194.145 1315.21 197.478Z" fill="#5A29C4"/>
<path d="M1304.98 159.471C1304.98 159.471 1303.76 164.857 1300.84 167.475C1298.18 169.84 1309.42 176.849 1310.67 174.229C1310.8 173.954 1310.05 168.664 1314.87 164.429C1317.4 162.205 1304.98 159.471 1304.98 159.471Z" fill="#CFCECF"/>
<path d="M1322.7 150.282C1322.7 150.282 1322.93 155.654 1321.12 159.565C1319.17 163.775 1319.5 164.884 1318.54 166.732C1318.13 167.507 1317.62 168.738 1316.54 169.228C1314.73 170.043 1311.79 169.546 1308.52 166.841C1304.57 163.562 1302.01 155.622 1305.94 150.694C1309.88 145.775 1317.5 143.281 1322.7 150.282" fill="#CFCECF"/>
<path d="M1303.99 156.841C1307.61 152.437 1314.27 147.987 1314.34 147.648C1314.39 147.442 1316.23 147.036 1318.29 146.635C1319.85 147.296 1321.35 148.472 1322.7 150.283C1322.7 150.283 1322.76 151.719 1322.57 153.641C1321.06 154.471 1318.36 155.063 1317.67 155.971C1316.04 158.119 1315.17 161.932 1315.31 163.812C1315.46 165.687 1311.7 167.027 1311.81 168.674L1311.76 168.879C1310.73 168.436 1309.65 167.772 1308.52 166.841C1306 164.746 1304.05 160.739 1303.99 156.841" fill="#CFCECF"/>
<path d="M1324.73 148.831C1324.73 148.831 1323.96 153.093 1319.3 153.626C1316.5 153.948 1315.35 157.876 1315.21 158.626C1315.07 159.371 1314.62 162.856 1314.19 163.173C1313.34 163.775 1312.36 160.617 1311.41 160.483C1309 160.109 1309.13 162.529 1310.4 165.474C1311.75 168.584 1305.67 167.512 1303.7 164.624C1302.64 163.099 1302.35 162.301 1301.81 157.96C1301.02 151.625 1303.18 145.124 1310.74 143.938C1318.32 142.754 1320.24 148.995 1324.73 148.831Z" fill="#F578A6"/>
<path d="M1303.7 164.624C1302.64 163.099 1302.35 162.301 1301.81 157.96C1301.02 151.625 1303.18 145.124 1310.74 143.938C1318.32 142.754 1320.24 148.995 1324.73 148.831C1324.73 148.831 1324.6 149.559 1324.12 150.441C1322 150.05 1316.11 149.18 1313.84 151.043C1311.06 153.336 1309.46 151.709 1308.31 155.379C1307.21 158.921 1304.69 163.178 1309.85 167.227C1307.11 168.019 1304.46 165.748 1303.7 164.624" fill="#F578A6"/>
<path d="M1310.56 172.376L1313.34 177.128C1313.34 177.128 1299.72 176.279 1298.25 168.933C1298.05 167.893 1299.69 165.241 1302.03 165.463C1302.03 165.463 1300.71 170.553 1310.56 172.376Z" fill="#F578A6"/>
<path d="M1328.21 194.04C1328.21 194.04 1327.97 191.093 1328.69 190.407C1329.39 189.726 1331.08 186.668 1331.26 186.044C1331.43 185.427 1332.6 184.476 1332.84 185.011C1333.08 185.543 1332.56 189.429 1332.42 190.147C1332.27 190.86 1335.54 189.694 1336.25 188.525C1336.96 187.339 1337.91 186.071 1338.22 186.467C1338.52 186.864 1339.93 190.217 1337.48 193.31C1335.03 196.415 1331.63 197.787 1331.63 197.787L1328.21 194.04" fill="#CFCECF"/>
<path d="M1312.29 179.885C1314.09 179.563 1317.22 180.487 1317.87 184.625C1318.51 188.761 1315.85 205.562 1315.85 205.562L1328.61 192.35C1328.61 192.35 1333.72 194.596 1333.23 198.169C1333.23 198.169 1313.59 221.261 1311.04 221.001C1304.18 220.293 1302.82 181.564 1312.29 179.885Z" fill="#5A29C4"/>
<path d="M1311.04 221.001C1313.59 221.26 1333.23 198.169 1333.23 198.169C1333.32 197.511 1333.22 196.901 1333 196.332L1332.45 195.344L1332.3 195.123C1331.76 195.678 1316 211.966 1311.36 215.156C1307.03 218.15 1312.05 185.096 1312.87 179.838L1312.29 179.887C1302.82 181.566 1304.18 220.295 1311.04 221.003" fill="#5A29C4"/>
<path d="M996.974 152.28C996.974 152.28 996.379 146.888 995.807 145.87C995.23 144.852 992.908 140.468 988.957 139.791C986.815 139.416 988.023 141.669 990 144.197C990.904 145.341 991.815 145.996 991.529 148.439C991.318 150.205 991.792 152.917 992.199 154.173C992.606 155.426 996.974 152.28 996.974 152.28Z" fill="#CFCECF"/>
<path d="M992.076 153.945C991.666 152.689 991.46 150.042 990.419 148.596C989.181 146.855 990.904 145.341 990.001 144.197C988.465 142.231 987.411 140.362 988.015 139.859C989.072 141.442 991.636 140.941 992.984 145.697C993.469 147.432 993.734 151.779 993.526 153.865C992.524 154.211 992.236 154.433 992.076 153.945Z" fill="#CFCECF"/>
<path d="M993.718 153.726C993.718 153.726 989.978 148.896 989.063 147.262C988.143 145.633 988.175 144.112 988.619 144.242C989.058 144.377 992.044 149.049 993.355 147.569C994.055 146.784 993.336 152.913 993.718 153.726Z" fill="#CFCECF"/>
<path d="M1030.71 176.465C1030.71 176.465 1030.25 183.231 1021.7 180.877C1013.16 178.527 997.772 172.26 995.8 168.144C993.832 164.028 991.828 152.948 991.828 152.948C991.828 152.948 995.988 154.33 997.541 150.939L1004.31 164.667C1004.31 164.667 1031.13 171.748 1030.71 176.465Z" fill="#5A29C4"/>
<path d="M1030.71 176.466C1031.14 171.748 1004.31 164.667 1004.31 164.667L997.542 150.94C996.965 152.2 996.027 152.8 995.082 153.056C995.791 156.57 997.187 162.864 998.569 165.747C1000.54 169.868 1015.92 176.132 1024.47 178.484C1026.95 179.166 1028.74 179.065 1030.05 178.605C1030.64 177.491 1030.71 176.466 1030.71 176.466Z" fill="#5A29C4"/>
<path d="M1016.79 286.704C1016.79 286.704 1013.57 287.192 1014.35 289.038C1015.13 290.891 1018.83 293.708 1019.31 294.877C1019.8 296.046 1022.81 300.226 1023.78 299.837C1024.76 299.446 1027.29 300.029 1026.99 295.263C1026.7 290.5 1021.06 286.51 1016.79 286.704Z" fill="#F578A6"/>
<path d="M1010.66 304.209C1010.66 304.209 1012.22 308.78 1008.33 309.851C1004.44 310.92 1005.6 308.492 997.143 310.627C988.675 312.768 987.71 308.396 987.904 307.419C988.097 306.449 993.734 304.694 995.585 304.209C997.429 303.726 1000.93 302.848 1000.93 302.848H1010.96L1010.66 304.209Z" fill="#F578A6"/>
<path d="M1026.64 223.954C1026.64 223.954 1026.69 251.564 1026.69 254.673C1026.69 257.783 1030.17 282.279 1028.08 292.978C1028.08 292.978 1022.06 299.015 1016.73 292.978C1016.73 292.978 1015.03 262.313 1013.49 255.389C1011.95 248.466 1012.47 227.294 1012.47 227.294L1026.64 223.954Z" fill="#14BD92"/>
<path d="M1016.08 227.877C1016.08 227.877 1014.71 245.705 1013.29 263.383C1013.29 263.383 1012.4 298.471 1011.58 303.52C1011.58 303.52 1000.26 306.327 999.132 300.997C999.132 300.997 999.418 270.119 999.132 263.665C998.846 257.21 998.18 239.209 1000.73 228.824C1003.28 218.439 1016.08 227.877 1016.08 227.877Z" fill="#14BD92"/>
<path d="M1011.58 303.52C1012.4 298.471 1013.29 263.383 1013.29 263.383C1014.25 251.481 1015.17 239.522 1015.68 232.968L1008.69 234.686C1008.69 234.686 1003.66 247.91 1004.43 267.744C1005.02 283.098 1005.27 298.198 1005.35 304.257C1008.47 304.291 1011.58 303.52 1011.58 303.52Z" fill="#14BD92"/>
<path d="M1028.08 292.977C1030.17 282.279 1026.69 257.782 1026.69 254.673C1026.69 251.71 1026.65 226.536 1026.64 224.155L1020.57 228.824C1020.57 228.824 1018.64 248.567 1020.57 259.807C1022.32 270.036 1021.19 289.95 1022.05 295.661C1025.41 295.661 1028.08 292.977 1028.08 292.977Z" fill="#14BD92"/>
<path d="M1028.33 173.814C1028.33 173.814 1034.17 176.729 1030.86 186.65C1027.56 196.57 1025.22 202.985 1025.41 206.68C1025.61 210.375 1026.97 222.819 1027.75 225.35C1027.75 225.35 1028.72 233.522 1010.05 238.384C1010.05 238.384 994.688 239.937 997.214 229.825C999.742 219.712 1000.72 203.379 1000.33 199.485C999.939 195.595 997.603 187.816 1007.33 182.566C1017.06 177.315 1022.11 173.428 1028.33 173.814Z" fill="#5A29C4"/>
<path d="M1000.33 199.485C1000.72 203.379 999.743 219.712 997.214 229.825C995.466 236.833 1002.31 238.235 1006.67 238.437C1008.07 233.922 1005.71 225.871 1008.95 216.017C1012.96 203.839 1012.39 195.794 1010.25 189.308C1008.86 185.098 1006.33 184.986 1004.53 184.396C998.104 189.493 999.983 196.028 1000.33 199.485Z" fill="#5A29C4"/>
<path d="M1021.43 168.915C1021.43 168.915 1020.81 174.097 1022.59 177.344C1024.2 180.286 1011.99 182.968 1011.7 180.243C1011.67 179.952 1014.02 175.493 1011.07 170.199C1009.52 167.43 1021.43 168.915 1021.43 168.915Z" fill="#CFCECF"/>
<path d="M1022.52 177.521C1021.2 175.114 1021.2 171.627 1021.3 170.003L1012.38 174.427L1012.39 174.448C1012.71 174.528 1018.73 176.054 1020.03 180.383C1021.86 179.632 1023.11 178.594 1022.52 177.521Z" fill="#DC8858"/>
<path d="M1008.57 155.147C1008.57 155.147 1006.67 159.858 1007.05 163.903C1007.45 168.268 1006.81 169.147 1007.08 171.085C1007.19 171.911 1007.26 173.167 1008.07 173.947C1009.42 175.246 1012.19 175.724 1015.95 174.349C1020.5 172.686 1025.29 166.436 1023.34 160.814C1021.39 155.193 1015.41 150.569 1008.57 155.147Z" fill="#CFCECF"/>
<path d="M1023.14 166.893C1021.31 161.834 1016.79 155.767 1016.83 155.444C1016.86 155.25 1015.36 154.305 1013.65 153.301C1012.05 153.397 1010.34 153.966 1008.57 155.147C1008.57 155.147 1008.06 156.41 1007.62 158.178C1008.71 159.391 1010.92 160.771 1011.25 161.8C1012.03 164.223 1011.59 167.891 1010.87 169.515C1010.15 171.133 1013.06 173.51 1012.45 174.946L1012.43 175.139C1013.48 175.065 1014.65 174.823 1015.95 174.349C1018.86 173.285 1021.85 170.341 1023.14 166.893Z" fill="#CFCECF"/>
<path d="M1007.91 153.728C1006.43 154.572 1006.56 157.252 1010.54 159.199C1012.93 160.368 1012.71 164.214 1012.6 164.93C1012.49 165.646 1011.78 168.89 1012.07 169.304C1012.63 170.105 1014.5 167.609 1015.39 167.781C1017.65 168.22 1016.77 170.325 1014.71 172.54C1012.53 174.88 1018.28 175.848 1020.94 173.91C1022.35 172.878 1022.87 172.265 1024.72 168.572C1027.43 163.193 1027.56 156.732 1021.2 153.282C1014.84 149.839 1011.61 151.63 1007.91 153.728Z" fill="#F578A6"/>
<path d="M1020.94 173.91C1022.35 172.878 1022.87 172.265 1024.72 168.572C1027.43 163.193 1028.35 156.75 1021.99 153.3C1015.64 149.857 1013.03 150.745 1009.35 152.852C1008.99 153.053 1007.11 153.906 1007.26 154.842C1009.27 155.167 1014.79 156.252 1016.21 158.622C1017.96 161.541 1019.9 160.601 1019.75 164.227C1019.61 167.728 1020.52 172.304 1014.65 174.278C1016.83 175.845 1019.91 174.662 1020.94 173.91Z" fill="#F578A6"/>
<path d="M1012.39 178.63L1008.41 181.977C1008.41 181.977 1020.79 185.528 1024.42 179.454C1024.93 178.598 1024.31 175.717 1022.15 175.178C1022.15 175.178 1021.73 180.119 1012.39 178.63Z" fill="#F578A6"/>
<path d="M973.443 208.245C973.443 208.245 968.789 207.888 968.03 206.95C967.268 206.014 965.737 206.783 966.744 207.801C967.753 208.819 969.299 209.29 969.299 209.29C969.299 209.29 963.82 209.592 963.335 207.988C962.85 206.385 962.76 212.267 965.218 213.367C967.677 214.475 970.166 216.138 975.616 212.072C975.616 212.072 975.447 209.423 973.443 208.245Z" fill="#CFCECF"/>
<path d="M1006.57 184.302C1006.57 184.302 1012.63 186.746 1007.93 193.886C1003.22 201.024 994.67 212.725 990.3 213.31C985.942 213.885 973.695 214.045 973.695 214.045C973.695 214.045 975.74 210.29 973.093 207.856L988.58 204.381C988.58 204.381 1002.36 182.508 1006.57 184.302Z" fill="#5A29C4"/>
<path d="M1006.57 184.302C1002.36 182.508 988.58 204.38 988.58 204.38L973.093 207.856C973.676 208.384 974.017 208.981 974.218 209.59C979.421 208.956 989.049 207.686 991.028 206.686C993.453 205.472 1005.46 189.333 1008.28 185.5C1007.45 184.663 1006.57 184.302 1006.57 184.302Z" fill="#5A29C4"/>
</g>
<defs>
<filter id="filter0_d" x="110.791" y="27.3105" width="1349.26" height="598.693" filterUnits="userSpaceOnUse" color-interpolation-filters="sRGB">
<feFlood flood-opacity="0" result="BackgroundImageFix"/>
<feColorMatrix in="SourceAlpha" type="matrix" values="0 0 0 0 0 0 0 0 0 0 0 0 0 0 0 0 0 0 127 0"/>
<feOffset dx="6" dy="6"/>
<feGaussianBlur stdDeviation="2"/>
<feColorMatrix type="matrix" values="0 0 0 0 0 0 0 0 0 0 0 0 0 0 0 0 0 0 0.4 0"/>
<feBlend mode="normal" in2="BackgroundImageFix" result="effect1_dropShadow"/>
<feBlend mode="normal" in="SourceGraphic" in2="effect1_dropShadow" result="shape"/>
</filter>
<linearGradient id="paint0_linear" x1="178.477" y1="89.7321" x2="1413.19" y2="828.683" gradientUnits="userSpaceOnUse">
<stop stop-color="#8A69F0"/>
<stop offset="0.519371" stop-color="#16F3CF"/>
<stop offset="1" stop-color="#FF76A4"/>
</linearGradient>
</defs>
</svg>
